<svg width="31" height="34" viewBox="0 0 31 34" fill="none" xmlns="http://www.w3.org/2000/svg">
<path d="M24.2919 15.9478C24.2919 15.6543 24.2185 15.2874 24.2185 15.2874C24.1451 14.4803 23.4114 12.8661 22.3842 11.9856C21.2835 11.0317 19.816 10.5181 18.055 10.5181C15.6337 10.5181 12.9188 11.4719 10.3507 13.2329C10.3507 13.2329 10.3507 13.2329 10.2773 13.2329C10.1306 13.2329 9.98382 13.2329 9.76369 13.2329C9.02994 13.2329 7.7092 13.3797 7.1222 14.4069C7.1222 14.4803 7.04883 14.5537 7.04883 14.5537C7.04883 14.6271 7.04883 14.7004 7.04883 14.7004C7.04883 14.7738 7.1222 14.7738 7.1222 14.8472C7.19558 14.9206 7.19557 14.9206 7.26895 14.9206H7.34233C8.07608 15.2141 8.22282 15.4342 8.36957 15.6543C8.0027 16.3147 7.92932 17.0484 8.0027 17.7088C8.07607 18.3692 8.07607 18.6627 7.85595 18.736C7.78257 18.8094 7.7092 18.8828 7.63582 18.9562C7.63582 19.0295 7.63583 19.1763 7.7092 19.2497L7.78258 19.323C7.92933 19.6899 8.22282 20.0568 8.51632 20.3503C8.66307 20.4237 8.88319 20.497 9.10332 20.497C9.83707 20.497 10.8643 19.9834 11.5981 19.5432C11.7448 19.7633 11.7448 20.0568 11.7448 20.3503C11.7448 20.7172 11.5981 21.0107 11.3779 21.2308C11.3046 21.3042 11.3046 21.3775 11.3046 21.4509C11.3046 21.5243 11.3046 21.5977 11.3046 21.671C11.3046 21.7444 11.3779 21.8178 11.4513 21.8178C11.5247 21.8912 11.5981 21.8912 11.6714 21.8912L13.1389 22.0379C13.2123 22.0379 13.2857 22.0379 13.2857 21.9645C13.3591 21.9645 13.3591 21.8912 13.4324 21.8912C14.0194 21.2308 14.4597 20.4237 14.7532 19.6165C14.8266 19.6165 14.8999 19.6165 14.9733 19.6899C14.7532 20.3503 14.3863 20.8639 13.9461 21.3775C13.8727 21.4509 13.8727 21.4509 13.8727 21.5243C13.8727 21.5977 13.8727 21.671 13.8727 21.7444C13.8727 21.8178 13.8727 21.8912 13.9461 21.8912C13.9461 21.9645 14.0194 21.9645 14.0928 22.0379C14.3863 22.1113 14.6798 22.1847 14.9733 22.1847C15.0467 22.1847 15.1201 22.1847 15.1934 22.1847H15.5603C15.6337 22.1847 15.7071 22.1847 15.7804 22.1113C16.4408 21.5243 16.9544 20.7905 17.1745 19.8367C17.7615 19.8367 18.3485 19.6899 18.8622 19.4698C18.642 20.2035 18.2752 20.8639 17.7615 21.3775C17.6882 21.4509 17.6882 21.4509 17.6148 21.5243C17.6148 21.5977 17.6148 21.671 17.6148 21.7444C17.6148 21.8178 17.6148 21.8912 17.6882 21.8912C17.6882 21.9645 17.7615 21.9645 17.8349 22.0379C18.1284 22.1113 18.4219 22.1847 18.7154 22.1847C18.7888 22.1847 18.8622 22.1847 18.9355 22.1847H19.3024C19.3758 22.1847 19.4492 22.1847 19.5225 22.1113C20.1829 21.5977 20.6232 20.8639 20.9167 20.1302H20.99C20.99 20.5704 20.8433 21.0107 20.6965 21.4509C20.6965 21.5243 20.6965 21.5977 20.6965 21.5977C20.6965 21.671 20.6965 21.7444 20.7699 21.7444C20.7699 21.8178 20.8433 21.8178 20.9167 21.8912C20.99 21.9645 20.99 21.9645 21.0634 21.9645C21.4303 22.0379 21.7972 22.1113 22.164 22.1113C22.5309 22.1113 22.6777 22.0379 22.751 21.9645C22.8244 21.8912 22.8978 21.8178 22.8978 21.7444C23.9984 19.7633 24.4386 17.7088 24.2919 15.9478ZM21.8705 19.6899C21.7972 19.6165 21.7972 19.5432 21.7238 19.5432C21.6504 19.5432 21.6504 19.5432 21.577 19.5432H21.5037C21.4303 19.5432 21.3569 19.5432 21.2835 19.5432C20.99 19.5432 20.7699 19.4698 20.5498 19.3964C20.2563 19.2497 19.9628 19.1029 19.7427 18.8828C19.6693 18.8094 19.5959 18.8094 19.5225 18.736H19.4492H19.3758C19.3758 18.736 19.3024 18.736 19.229 18.736C19.1557 18.736 19.0823 18.736 19.0823 18.8094C18.4953 19.1763 17.7615 19.323 16.8077 19.323C16.2207 19.323 15.5603 19.2497 14.7532 19.1029H14.6798H14.6064C14.533 19.1029 14.4597 19.1029 14.3863 19.1763C14.3129 19.2497 14.2396 19.323 14.2396 19.3964C14.0194 20.2035 13.5792 20.9373 13.0656 21.5243L12.4786 21.4509C12.6253 21.084 12.6987 20.7905 12.6987 20.4237C12.6987 20.0568 12.5519 19.6165 12.3318 19.323C12.4786 19.1029 12.6253 18.8828 12.6987 18.6627C12.6987 18.5893 12.6987 18.5159 12.6987 18.5159C12.6987 18.4425 12.6987 18.3692 12.6253 18.3692C12.6253 18.2958 12.5519 18.2958 12.4786 18.2224C12.4052 18.2224 12.4052 18.149 12.3318 18.149H12.2584H12.1851C12.1117 18.149 12.0383 18.149 12.0383 18.2224C11.9649 18.2224 11.9649 18.2958 11.8916 18.3692C11.8916 18.4425 11.8182 18.4425 11.8182 18.5159C11.6714 18.8094 11.4513 19.1029 11.1578 19.2497C10.4974 19.6899 9.54357 20.1302 9.10332 20.1302C9.02994 20.1302 9.02995 20.1302 8.95657 20.1302C8.80982 19.9834 8.66307 19.7633 8.5897 19.5432C8.95657 19.1029 8.8832 18.5159 8.8832 18.0023C8.8832 17.4887 8.80982 16.7549 9.1767 16.3147C9.25007 16.2413 9.25007 16.1679 9.25007 16.1679C9.25007 16.0945 9.25007 16.0212 9.25007 15.9478C9.1767 15.6543 8.95657 15.3608 8.73644 15.1407C8.58969 14.9939 8.36957 14.8472 8.14945 14.7004C8.51632 14.4069 9.02994 14.2602 9.47019 14.2602C9.54357 14.2602 9.54357 14.2602 9.69032 14.2602C9.98382 14.2602 10.3507 14.3336 10.6442 14.5537C10.6442 14.6271 10.7176 14.6271 10.7909 14.7004C10.9377 14.5537 11.0844 14.5537 11.1578 14.5537C11.2312 14.5537 11.3046 14.5537 11.3779 14.4803C11.4513 14.4803 11.4513 14.4069 11.5247 14.4069C11.5247 14.3336 11.5981 14.3336 11.5981 14.2602C11.5981 14.1868 11.5981 14.1868 11.5981 14.1134C11.5981 14.0401 11.5981 14.0401 11.5247 13.9667C11.4513 13.8933 11.3779 13.7466 11.3046 13.6732C13.0656 12.4992 15.1201 11.6921 17.2479 11.3986C17.5414 11.3986 17.8349 11.3252 18.1284 11.3252C19.6693 11.3252 20.99 11.7654 21.9439 12.5726C23.9984 14.3336 24.1451 17.562 22.3108 21.5243C22.164 21.5243 22.0173 21.5243 21.8705 21.5243C22.0173 20.8639 22.164 20.1302 21.8705 19.6899ZM20.3297 20.2035C20.1095 20.7172 19.816 21.2308 19.3758 21.5977H19.0823C19.4492 21.084 19.6693 20.5704 19.8894 19.9834C19.9628 20.0568 20.1095 20.1302 20.3297 20.2035ZM16.4408 20.1302C16.2207 20.7172 15.9272 21.2308 15.4869 21.5977H15.1934C15.4869 21.1574 15.7804 20.6438 15.9272 20.0568C16.1473 20.1302 16.294 20.1302 16.4408 20.1302Z" fill="#0F9548"/>
<path d="M30.6756 30.623L29.2815 26.3672C29.2081 26.1471 29.2081 25.927 29.2081 25.7068C29.575 22.405 29.7951 19.47 29.7217 16.535C29.7217 13.4533 29.575 10.4449 29.1347 7.06966C29.1347 6.84953 29.1347 6.62941 29.2081 6.40928L30.5289 2.37367C30.749 1.7133 30.6022 1.05293 30.0886 0.539304C29.6484 0.099056 28.9146 -0.121068 28.2542 0.0990559L25.3192 1.05293C24.6589 1.27305 23.9985 1.34643 23.3381 1.19968C20.4765 0.686054 18.0551 0.392555 15.7071 0.392555C13.3592 0.392555 10.8644 0.686054 8.07618 1.19968C7.41581 1.34643 6.68206 1.27305 6.09506 1.05293L3.16007 0.0990559C2.4997 -0.121068 1.83932 0.0256813 1.3257 0.539304C0.812076 1.05293 0.665328 1.7133 0.885452 2.37367L2.2062 6.40928C2.27957 6.62941 2.27957 6.84953 2.27957 7.06966C1.9127 10.4449 1.69257 13.4533 1.69257 16.535C1.69257 19.5434 1.83933 22.4784 2.2062 25.7802C2.2062 26.0003 2.20619 26.2205 2.13282 26.4406L0.738705 30.6963C0.51858 31.3567 0.665329 32.0171 1.17895 32.5307C1.54583 32.8976 1.98607 33.0443 2.42632 33.0443C2.64644 33.0443 2.7932 33.0443 3.01332 32.9709L6.68206 31.7236C6.82881 31.6502 6.97556 31.6502 7.12231 31.7236C10.3508 32.3839 13.0657 32.6774 15.7071 32.6774C18.3486 32.6774 21.0635 32.3839 24.292 31.7236C24.4387 31.7236 24.5855 31.7236 24.7322 31.7236L28.401 32.9709C29.0614 33.1911 29.7217 33.0443 30.2354 32.5307C30.6756 31.9437 30.8223 31.2833 30.6756 30.623ZM29.575 31.7969C29.4282 31.9437 29.2081 32.0904 28.9146 32.0904C28.8412 32.0904 28.6945 32.0904 28.6211 32.0171L24.9524 30.7697C24.8056 30.6963 24.5855 30.6963 24.4387 30.6963C24.3654 30.6963 24.2186 30.6963 24.1452 30.6963C20.9901 31.3567 18.2753 31.6502 15.7071 31.6502C13.139 31.6502 10.4975 31.3567 7.26905 30.6963C7.1223 30.6963 7.04893 30.6963 6.90218 30.6963C6.75543 30.6963 6.53531 30.6963 6.38856 30.7697L2.71982 32.0171C2.64645 32.0171 2.4997 32.0904 2.42632 32.0904C2.2062 32.0904 1.98607 32.0171 1.76595 31.7969C1.54582 31.5768 1.47245 31.2099 1.54583 30.9164L2.93995 26.6607C3.01332 26.3672 3.0867 26.0003 3.01332 25.6335C2.64645 22.405 2.49969 19.47 2.49969 16.535C2.49969 13.5266 2.64645 10.5183 3.08669 7.21641C3.16007 6.84953 3.0867 6.55603 3.01332 6.18916L1.69257 2.15355C1.6192 1.86005 1.69258 1.49318 1.9127 1.27305C2.05945 1.1263 2.27957 0.979553 2.57307 0.979553C2.64645 0.979553 2.79319 0.979553 2.86657 1.05293L5.80156 2.0068C6.31518 2.15355 6.82881 2.22692 7.34243 2.22692C7.63593 2.22692 7.92943 2.22692 8.22293 2.15355C11.0112 1.63993 13.3592 1.4198 15.7071 1.4198C18.0551 1.4198 20.4031 1.63993 23.1914 2.15355C23.4849 2.22692 23.7784 2.22692 24.0719 2.22692C24.5855 2.22692 25.0991 2.15355 25.6127 2.0068L28.5477 1.05293C28.6211 1.05293 28.7679 0.979553 28.8412 0.979553C29.0614 0.979553 29.2815 1.05293 29.5016 1.27305C29.7217 1.49318 29.7951 1.86005 29.7217 2.15355L28.401 6.18916C28.2542 6.55603 28.2542 6.84953 28.3276 7.21641C28.6945 10.5183 28.9146 13.5266 28.9146 16.535C28.9146 19.47 28.7679 22.405 28.401 25.6335C28.3276 26.0003 28.401 26.2938 28.4744 26.6607L29.8685 30.9164C29.9419 31.2099 29.7951 31.5768 29.575 31.7969Z" fill="#0F9548"/>
</svg>
