<svg width="37" height="32" viewBox="0 0 37 32" fill="none" xmlns="http://www.w3.org/2000/svg">
<path d="M36.9919 3.65176C36.979 3.56302 36.9491 3.4778 36.9041 3.401C36.859 3.32421 36.7997 3.25735 36.7294 3.20429C36.6592 3.15123 36.5795 3.11301 36.4948 3.09183C36.4102 3.07066 36.3223 3.06695 36.2362 3.08091L33.0066 3.5944L33.765 1.1171C33.7964 1.0304 33.8103 0.938031 33.806 0.845597C33.8017 0.753164 33.7792 0.662598 33.7399 0.579402C33.7005 0.496205 33.6452 0.422113 33.5772 0.361626C33.5092 0.301139 33.43 0.255519 33.3443 0.227537C33.2587 0.199555 33.1684 0.189795 33.079 0.198849C32.9896 0.207904 32.9029 0.235584 32.8242 0.280208C32.7455 0.324833 32.6765 0.38547 32.6212 0.458438C32.566 0.531406 32.5257 0.615182 32.5028 0.704677L31.6808 3.38409C31.0137 3.02811 30.2738 2.84086 29.5225 2.83783C28.8551 2.83588 28.1951 2.98112 27.5869 3.26379C26.9786 3.54646 26.4361 3.96 25.9959 4.47661C24.8743 5.79857 21.8594 7.22431 17.8874 7.22431C13.9153 7.22431 10.9005 5.79583 9.77886 4.47388C9.33887 3.95699 8.79643 3.54326 8.18809 3.26057C7.57975 2.97787 6.91965 2.83279 6.25228 2.8351C5.36564 2.83642 4.49727 3.09482 3.74654 3.58074V0.682827C3.74654 0.50173 3.6767 0.32805 3.55239 0.199995C3.42807 0.0719405 3.25946 0 3.08365 0C2.90784 0 2.73923 0.0719405 2.61491 0.199995C2.4906 0.32805 2.42076 0.50173 2.42076 0.682827V3.08091L1.00747 2.155C0.85916 2.06205 0.681367 2.03273 0.512298 2.07336C0.34323 2.11398 0.196381 2.22131 0.103311 2.37227C0.0102397 2.52323 -0.0216247 2.70577 0.0145651 2.88067C0.0507548 3.05557 0.15211 3.20887 0.29685 3.30761L2.51091 4.76067C1.91409 5.58011 1.61005 6.58659 1.65015 7.61017C1.69025 8.63375 2.07201 9.61172 2.73099 10.379C5.16248 13.2468 9.03908 15.2325 13.5388 16.0137C13.511 16.0896 13.4966 16.1701 13.4964 16.2513V21.9024C13.4993 22.5474 13.6697 23.1799 13.99 23.7341C14.3104 24.2884 14.7689 24.7442 15.318 25.0543V31.3172C15.318 31.4983 15.3878 31.6719 15.5121 31.8C15.6365 31.9281 15.8051 32 15.9809 32C16.1567 32 16.3253 31.9281 16.4496 31.8C16.5739 31.6719 16.6438 31.4983 16.6438 31.3172V24.1475L16.2169 23.9809C15.8079 23.8199 15.4558 23.5352 15.2069 23.1642C14.9579 22.7932 14.8238 22.3533 14.8221 21.9024V16.254C14.8221 16.2349 14.8221 16.2185 14.8221 16.1994C15.2066 16.2458 15.5938 16.2841 15.9862 16.3114V19.6436C15.9862 19.8247 16.056 19.9983 16.1803 20.1264C16.3047 20.2544 16.4733 20.3264 16.6491 20.3264C16.8249 20.3264 16.9935 20.2544 17.1178 20.1264C17.2421 19.9983 17.312 19.8247 17.312 19.6436V16.3878C17.5055 16.3878 17.6991 16.3878 17.8927 16.3878C18.0862 16.3878 18.2798 16.3878 18.4734 16.3878V19.6654C18.4734 19.8465 18.5432 20.0202 18.6675 20.1482C18.7918 20.2763 18.9604 20.3482 19.1363 20.3482C19.3121 20.3482 19.4807 20.2763 19.605 20.1482C19.7293 20.0202 19.7991 19.8465 19.7991 19.6654V16.3114C20.1916 16.2841 20.5787 16.2458 20.9658 16.1994C20.9645 16.2176 20.9645 16.2358 20.9658 16.254V21.9024C20.9628 22.3548 20.8266 22.7957 20.5752 23.1668C20.3238 23.5379 19.9691 23.8218 19.5579 23.9809L19.131 24.1475V31.3172C19.131 31.4983 19.2008 31.6719 19.3251 31.8C19.4494 31.9281 19.618 32 19.7938 32C19.9697 32 20.1383 31.9281 20.2626 31.8C20.3869 31.6719 20.4567 31.4983 20.4567 31.3172V25.0543C21.0063 24.7446 21.4654 24.2889 21.7862 23.7346C22.107 23.1803 22.2779 22.5477 22.281 21.9024V16.254C22.2799 16.1727 22.2646 16.0922 22.2359 16.0164C26.7436 15.2352 30.6122 13.2523 33.0437 10.3817C33.6803 9.63862 34.0587 8.69842 34.1192 7.70934C34.1797 6.72027 33.9189 5.73859 33.3778 4.91908L36.4377 4.43291C36.524 4.41926 36.6068 4.38821 36.6814 4.34153C36.7559 4.29485 36.8208 4.23346 36.8723 4.16088C36.9238 4.0883 36.9609 4.00597 36.9814 3.9186C37.0019 3.83123 37.0055 3.74055 36.9919 3.65176ZM32.0441 9.4831C29.1062 12.9519 23.8136 15.0222 17.8874 15.0222C11.9611 15.0222 6.66857 12.9519 3.73063 9.4831C3.45899 9.16858 3.25274 8.80009 3.1246 8.40034C2.99646 8.0006 2.94913 7.57806 2.98554 7.15876C3.02369 6.73325 3.14536 6.32016 3.34318 5.94455C3.541 5.56894 3.81084 5.23865 4.13632 4.97371C4.73949 4.48039 5.4874 4.21267 6.25758 4.21441C6.73511 4.21056 7.20788 4.31245 7.64385 4.5132C8.07983 4.71395 8.46883 5.00885 8.78452 5.37794C9.39093 6.04455 10.1096 6.59239 10.9058 6.99488C10.2508 7.34449 9.47658 8.06009 9.27241 9.51587C9.26026 9.60562 9.28296 9.69668 9.33558 9.76929C9.3882 9.8419 9.4665 9.89021 9.55348 9.90372H9.60121C9.68083 9.90336 9.75771 9.87371 9.81799 9.82013C9.87827 9.76655 9.918 9.69255 9.93 9.61147C10.158 7.97269 11.2399 7.5111 11.7198 7.38546C12.4752 7.71184 13.2569 7.96956 14.0558 8.15568C13.5079 8.98316 13.2345 9.97096 13.2763 10.9717C13.2797 11.0591 13.3159 11.1418 13.3772 11.2024C13.4384 11.263 13.5201 11.2968 13.6051 11.2967H13.621C13.6644 11.2949 13.7071 11.2843 13.7465 11.2655C13.7859 11.2467 13.8213 11.22 13.8507 11.1869C13.88 11.1539 13.9027 11.1152 13.9174 11.0731C13.9322 11.031 13.9387 10.9863 13.9365 10.9416C13.9066 9.98983 14.2011 9.05728 14.7691 8.30591C15.6895 8.4732 16.6214 8.56454 17.5559 8.57904V10.9525C17.5559 11.0431 17.5908 11.1299 17.653 11.194C17.7152 11.258 17.7995 11.294 17.8874 11.294C17.9753 11.294 18.0596 11.258 18.1217 11.194C18.1839 11.1299 18.2188 11.0431 18.2188 10.9525V8.57904C19.1542 8.56453 20.087 8.4732 21.0083 8.30591C21.5783 9.05598 21.8723 9.98967 21.8382 10.9416C21.8361 10.9863 21.8426 11.031 21.8573 11.0731C21.872 11.1152 21.8947 11.1539 21.9241 11.1869C21.9534 11.22 21.9888 11.2467 22.0282 11.2655C22.0677 11.2843 22.1103 11.2949 22.1537 11.2967H22.1697C22.2549 11.2968 22.3368 11.2631 22.3986 11.2026C22.4603 11.142 22.497 11.0593 22.5011 10.9717C22.5434 9.97164 22.2739 8.98391 21.7321 8.15295C22.526 7.96357 23.3024 7.7031 24.0523 7.37453C24.5295 7.50017 25.6193 7.96176 25.8447 9.59781C25.8567 9.67889 25.8965 9.75289 25.9567 9.80647C26.017 9.86006 26.0939 9.8897 26.1735 9.89006H26.2212C26.3075 9.87782 26.3855 9.83114 26.4386 9.76011C26.4917 9.68908 26.5155 9.59939 26.505 9.51041C26.3034 8.05463 25.5292 7.33902 24.8716 6.98942C25.6685 6.587 26.3873 6.03811 26.9929 5.36975C27.3093 5.00185 27.6986 4.70793 28.1344 4.50772C28.5702 4.30751 29.0426 4.20564 29.5198 4.20894C30.2901 4.20655 31.0382 4.47435 31.6411 4.96825C31.9669 5.23305 32.2372 5.56326 32.4354 5.93885C32.6337 6.31445 32.7559 6.72762 32.7945 7.15329C32.8301 7.57381 32.782 7.9974 32.6529 8.39804C32.5239 8.79868 32.3167 9.16793 32.0441 9.4831Z" fill="#0F9548"/>
</svg>
