<svg width="55" height="29" viewBox="0 0 55 29" fill="none" xmlns="http://www.w3.org/2000/svg">
<path d="M49.6976 14.6598C49.6284 13.8042 52.1128 11.5393 53.1734 10.573C54.5511 9.31639 55.0151 8.89454 55.0007 8.27224C54.9968 8.13523 54.9641 8.00076 54.9049 7.87827C54.8456 7.75578 54.7613 7.64823 54.6577 7.56317C54.4943 7.42978 54.2887 7.36469 54.0813 7.38067C50.3115 7.63497 44.6826 10.3486 42.5527 11.4376C42.4803 11.3215 42.3813 11.2259 42.2645 11.1594C40.2867 9.94654 38.4045 8.57298 36.6357 7.05156C36.5426 6.89181 36.402 6.76787 36.2351 6.69852C34.2175 4.88247 32.396 2.73432 32.0012 0.690888C31.9776 0.564039 31.9267 0.444353 31.8523 0.340749C31.778 0.237146 31.6821 0.152295 31.5717 0.092518C31.4623 0.0321678 31.3411 -0.00161262 31.2173 -0.00627692C31.0935 -0.0109412 30.9703 0.0136323 30.857 0.0655914C27.1621 1.76197 23.7438 4.4666 23.5997 4.58029C23.5072 4.65521 23.431 4.74971 23.3764 4.85752C23.3217 4.96533 23.2898 5.08398 23.2827 5.20559C17.5398 4.44063 11.7125 5.62002 6.66711 8.56843C2.55717 10.9529 0.288922 13.6336 0.202458 13.7623C0.0934876 13.8925 0.0249941 14.054 0.00596355 14.2253C-0.013067 14.3967 0.0182545 14.5701 0.0958185 14.7227C0.0237033 14.8626 -0.00962602 15.0206 -0.000467957 15.1791C0.00869011 15.3375 0.0599771 15.4902 0.147697 15.6202C4.09624 21.4992 9.90664 24.3624 17.9046 24.3624H18.5473H18.6165L21.4381 28.6677C21.5141 28.783 21.616 28.8773 21.735 28.9425C21.8541 29.0077 21.9866 29.0417 22.1212 29.0417H22.2163C22.4036 29.0177 26.7268 28.4433 28.1823 22.9323C30.0233 22.4415 31.8329 21.8319 33.6008 21.1073L35.2753 23.2315C35.3448 23.3173 35.43 23.3879 35.526 23.4393C35.6219 23.4906 35.7268 23.5217 35.8344 23.5307H35.9151C36.1063 23.53 36.2914 23.4614 36.4397 23.3362L42.008 18.5492C42.8179 19.004 44.5212 19.9285 46.4378 20.7512C50.1846 22.3609 52.7152 22.7378 54.1706 21.9001C54.294 21.8309 54.398 21.7298 54.4727 21.6066C54.5474 21.4835 54.5903 21.3424 54.5972 21.197C54.604 21.0516 54.5756 20.9067 54.5147 20.7756C54.4538 20.6444 54.3623 20.5312 54.2485 20.4461C53.2282 19.6981 50.8072 17.6098 49.9771 15.689V15.6711C49.8294 15.3529 49.7348 15.0109 49.6976 14.6598ZM48.9713 12.3771H48.9453L48.3401 12.398C48.384 12.3888 48.4273 12.3769 48.4698 12.3621C48.6629 12.2903 48.9309 12.2095 49.2335 12.1287C49.1644 12.2095 49.0981 12.2903 49.0375 12.3681L48.9713 12.3771ZM49.0721 17.523C48.1854 17.3356 47.3247 17.0341 46.5099 16.6255C46.4683 16.6028 46.4249 16.5837 46.3802 16.5686C47.1418 16.7116 47.9124 16.7966 48.6859 16.8229C48.7926 17.0533 48.928 17.2957 49.0721 17.523ZM51.3548 9.95067C50.6036 10.0523 49.8588 10.1991 49.124 10.3905C50.0261 10.0554 50.9426 9.75021 51.8188 9.51984L51.3548 9.95067ZM31.7043 7.18021C32.182 6.87092 32.7106 6.65588 33.2636 6.54594C33.3796 6.53271 33.4916 6.49396 33.5921 6.43225C33.7622 6.61176 33.9351 6.79127 34.108 6.9648C33.743 7.16109 33.4071 7.41099 33.1108 7.70678C32.6516 7.53525 32.1828 7.35972 31.7043 7.18021ZM32.3701 4.99317C31.6826 5.24691 31.0243 5.57904 30.4074 5.98347C30.1191 6.15401 29.8482 6.31856 29.6349 6.42028L29.5744 6.45618C29.194 6.33651 28.8193 6.22581 28.4504 6.1211C29.2194 5.72821 30.0116 5.38645 30.8224 5.09788C31.2403 4.93932 31.6697 4.77477 32.0848 4.59825C32.1828 4.73886 32.2807 4.8735 32.3816 5.00514L32.3701 4.99317ZM35.5405 8.30814C35.8287 8.56544 36.1169 8.81676 36.4051 9.0561C35.9382 8.85665 35.4578 8.65719 34.964 8.45773C35.1473 8.37186 35.3452 8.32506 35.5462 8.32011L35.5405 8.30814ZM31.1711 3.13523C30.8829 3.25191 30.5688 3.37159 30.2517 3.49126C28.8308 4.03279 27.3696 4.59525 26.2484 5.58556C25.9112 5.51974 25.5855 5.46588 25.2742 5.42699C26.9909 4.15642 28.8017 3.02896 30.6898 2.05517C30.8258 2.42641 30.9866 2.78732 31.1711 3.13523ZM42.325 16.7781C42.1792 16.6921 42.0118 16.6538 41.8447 16.6682C41.6775 16.6826 41.5185 16.7491 41.3883 16.8589L40.2585 17.8252C40.1796 17.634 40.0364 17.479 39.8557 17.3891C39.6749 17.2992 39.4688 17.2805 39.2758 17.3364C39.0828 17.3924 38.9158 17.5192 38.8061 17.6933C38.6963 17.8674 38.6512 18.0769 38.6791 18.283C38.713 18.5265 38.7912 18.761 38.9097 18.9741L38.7713 19.0938C38.7048 19.0164 38.6258 18.9516 38.5379 18.9023C38.4832 18.6817 38.3464 18.4927 38.1575 18.3768C37.9686 18.261 37.7431 18.2277 37.5306 18.2845C37.3181 18.3412 37.136 18.4832 37.0244 18.6793C36.9128 18.8754 36.8808 19.1095 36.9354 19.3301C36.9493 19.3923 36.9676 19.4533 36.9902 19.5126C36.8432 19.3241 36.7192 19.1566 36.6645 19.0728C36.603 18.9797 36.5244 18.9001 36.4333 18.8385C36.3421 18.7769 36.2402 18.7345 36.1333 18.7138C36.0263 18.6931 35.9165 18.6945 35.8101 18.7179C35.7037 18.7412 35.6028 18.7861 35.5131 18.8499C35.4234 18.9138 35.3467 18.9953 35.2873 19.09C35.228 19.1846 35.1872 19.2904 35.1672 19.4014C35.1473 19.5124 35.1486 19.6264 35.1711 19.7368C35.1936 19.8473 35.2368 19.9521 35.2984 20.0452C35.59 20.4626 35.9047 20.8622 36.2408 21.2419L36.0304 21.4214L34.4914 19.4707C34.3761 19.3255 34.2183 19.2232 34.042 19.1795C33.8656 19.1357 33.6804 19.1529 33.5143 19.2284C31.5511 20.0775 29.5276 20.7677 27.4618 21.2928C25.1676 20.8769 21.6456 18.8484 21.6168 18.8215C21.5219 18.7587 21.4156 18.7166 21.3044 18.6979C21.1932 18.6792 21.0796 18.6842 20.9704 18.7127C20.8612 18.7413 20.7587 18.7926 20.6693 18.8637C20.5799 18.9347 20.5054 19.024 20.4503 19.1259C20.3953 19.2279 20.3609 19.3405 20.3493 19.4568C20.3377 19.5731 20.349 19.6906 20.3827 19.8021C20.4163 19.9137 20.4716 20.0169 20.545 20.1055C20.6185 20.1941 20.7086 20.2662 20.8098 20.3174C20.951 20.4012 23.9802 22.1544 26.479 22.8306C26.3904 23.1137 26.2865 23.3914 26.1677 23.6623C25.2225 23.428 24.3505 22.9471 23.6343 22.2651C23.5558 22.1865 23.4631 22.1248 23.3616 22.0834C23.26 22.042 23.1517 22.0218 23.0426 22.0238C22.9335 22.0259 22.8259 22.0503 22.7259 22.0955C22.626 22.1408 22.5355 22.206 22.4598 22.2876C22.3841 22.3691 22.3246 22.4653 22.2848 22.5707C22.2449 22.6761 22.2254 22.7886 22.2274 22.9018C22.2294 23.015 22.2529 23.1267 22.2965 23.2305C22.3401 23.3343 22.4029 23.4282 22.4814 23.5067C23.2828 24.2767 24.2371 24.8547 25.2771 25.2001C25.0742 25.4651 24.8506 25.7123 24.6085 25.9391C23.7445 25.3288 22.9682 24.5945 22.3028 23.7581C22.2363 23.6687 22.1536 23.5937 22.0593 23.5376C21.965 23.4814 21.8609 23.445 21.753 23.4306C21.6452 23.4161 21.5356 23.4239 21.4307 23.4534C21.3257 23.4829 21.2274 23.5335 21.1413 23.6025C21.0551 23.6714 20.983 23.7573 20.9288 23.8552C20.8747 23.9531 20.8397 24.0612 20.8258 24.1731C20.8118 24.2851 20.8193 24.3988 20.8477 24.5078C20.8761 24.6167 20.925 24.7188 20.9914 24.8082C21.6136 25.6037 22.3237 26.3207 23.1069 26.9444C22.9055 27.0371 22.6985 27.1161 22.4872 27.1807L19.0603 21.945C18.9491 21.7888 18.7902 21.6763 18.6095 21.6259C18.4287 21.5756 18.2369 21.5903 18.0653 21.6678C17.8937 21.7452 17.7524 21.8808 17.6646 22.0523C17.5768 22.2238 17.5476 22.4212 17.5818 22.6122C15.8939 22.6051 14.2106 22.4288 12.5553 22.0856C13.9359 21.0714 15.4144 19.1087 15.3107 15.9463C15.3051 15.7825 15.2543 15.6238 15.1644 15.4891C15.0745 15.3544 14.9492 15.2493 14.8034 15.1864C14.9238 15.1098 15.0232 15.0025 15.0924 14.8747C15.1615 14.747 15.1979 14.6029 15.1983 14.4564C15.1983 14.3487 15.1983 14.2918 15.1983 14.2619C15.1922 14.3487 15.1717 14.4337 15.1377 14.5132C15.2 14.2716 15.2195 14.0202 15.1954 13.7713C15.1979 13.6535 15.177 13.5366 15.134 13.4276C15.0911 13.3186 15.027 13.2199 14.9458 13.1377C14.8646 13.0556 14.768 12.9916 14.6619 12.9498C14.5559 12.908 14.4427 12.8893 14.3294 12.8949C14.2161 12.9004 14.1051 12.9301 14.0033 12.9821C13.9016 13.034 13.8112 13.1072 13.7378 13.1969C13.6644 13.2867 13.6095 13.3912 13.5767 13.5039C13.5438 13.6166 13.5337 13.7351 13.5468 13.852C13.5468 14.0076 13.5468 14.0974 13.5468 14.1512C13.5409 14.2509 13.5409 14.3508 13.5468 14.4504C13.5422 14.6207 13.5866 14.7885 13.6744 14.9324C13.7622 15.0764 13.8894 15.1898 14.0396 15.2582C13.9154 15.3379 13.8136 15.45 13.7443 15.5834C13.675 15.7167 13.6407 15.8667 13.6448 16.0181C13.7774 20.0452 10.7857 21.1462 10.6646 21.1881C10.516 21.2389 10.3841 21.3322 10.2842 21.4573C6.74861 20.2682 3.68999 17.9008 1.58301 14.7227C3.33221 12.8646 5.33688 11.2857 7.53176 10.0374C12.5498 7.08309 18.4013 6.03177 24.0839 7.06353H24.2021C26.3291 7.10841 29.6782 8.19146 32.8802 9.45701C32.9808 9.52681 33.0949 9.57278 33.2146 9.59165C36.7913 11.0128 40.1317 12.6164 41.299 13.1819C41.2721 13.3188 41.2576 13.458 41.2557 13.5977C41.2507 13.8068 41.2954 14.0139 41.3859 14.2007C41.4764 14.3876 41.6099 14.5483 41.7745 14.6688C41.911 14.7665 42.0728 14.8186 42.2386 14.8184C42.3887 14.8188 42.5361 14.7768 42.665 14.6968C42.7939 14.6169 42.8993 14.5021 42.9701 14.3646C43.0409 14.2272 43.0744 14.0723 43.0668 13.9167C43.0593 13.761 43.0111 13.6104 42.9274 13.4811C42.9536 13.3743 42.9975 13.273 43.0571 13.1819C43.1195 13.1322 43.1739 13.0726 43.2185 13.0053C44.1091 12.5476 45.726 11.7518 47.5417 10.9918C47.4454 11.1108 47.3823 11.2549 47.3591 11.4084C47.336 11.562 47.3537 11.7192 47.4104 11.863C47.4671 12.0069 47.5606 12.1319 47.6807 12.2246C47.8009 12.3173 47.9432 12.3742 48.0922 12.389C46.3629 12.4578 46.0747 12.5356 45.8672 12.6374C45.6953 12.7189 45.5556 12.8591 45.4712 13.0346C45.3867 13.2101 45.3628 13.4103 45.4032 13.6019C45.4436 13.7935 45.546 13.965 45.6933 14.0878C45.8407 14.2106 46.0241 14.2773 46.213 14.2769C46.3112 14.277 46.4087 14.2598 46.5013 14.226C47.0327 14.1538 47.5678 14.1149 48.1037 14.1093C48.0484 14.3278 48.0279 14.5542 48.0432 14.7795C48.0432 14.8723 48.0663 14.968 48.0807 15.0607C47.1353 14.974 45.9277 14.7616 45.6251 14.5731C45.452 14.4464 45.2387 14.3932 45.029 14.4244C44.8194 14.4556 44.6291 14.5688 44.4972 14.7409C44.3653 14.9129 44.3018 15.1308 44.3197 15.3499C44.3375 15.5691 44.4354 15.7728 44.5933 15.9194C45.0764 16.23 45.616 16.4337 46.1785 16.5178C45.9891 16.5051 45.8012 16.5603 45.6465 16.6743C45.4917 16.7883 45.3793 16.9541 45.3283 17.1438C45.2773 17.3336 45.2907 17.5357 45.3662 17.7165C45.4418 17.8972 45.5749 18.0454 45.7433 18.1364C47.1382 18.8873 48.879 19.2553 50.4008 19.5126C50.4449 19.5156 50.4892 19.5156 50.5334 19.5126C50.5766 19.5157 50.6199 19.5157 50.6631 19.5126C51.0435 19.9135 51.424 20.2785 51.7727 20.5927C49.2134 20.3593 44.9622 18.3279 42.325 16.7781Z" fill="url(#paint0_linear)"/>
<defs>
<linearGradient id="paint0_linear" x1="-6.78172" y1="26.7699" x2="29.9983" y2="-20.6182" gradientUnits="userSpaceOnUse">
<stop stop-color="#8BB35D"/>
<stop offset="0.44" stop-color="#8BB35D"/>
<stop offset="0.75" stop-color="#418F49"/>
<stop offset="1" stop-color="#2D925A"/>
</linearGradient>
</defs>
</svg>
