<svg width="50" height="44" viewBox="0 0 50 44" fill="none" xmlns="http://www.w3.org/2000/svg">
<path d="M45.863 10.823C42.4886 7.19404 37.9707 8.07496 33.1897 9.00852C30.5309 9.52795 27.7844 10.0614 24.8589 9.99824C21.2355 9.91752 18.0014 9.29631 17.4928 8.61544C17.4158 8.51128 17.3131 8.42902 17.1946 8.37679C17.1595 8.31361 17.1245 8.25044 17.0859 8.19078C17.0715 8.16714 17.0551 8.14482 17.0368 8.12409C17.4104 7.6698 17.7099 7.15928 17.9242 6.61144C18.5942 4.89171 18.3802 2.90876 17.2823 0.72576C17.193 0.567029 17.0483 0.446821 16.8759 0.388124C16.7035 0.329427 16.5156 0.336361 16.348 0.407599C16.1804 0.478837 16.045 0.60938 15.9676 0.774265C15.8901 0.939149 15.8762 1.1268 15.9283 1.30134C16.4335 2.76837 15.0058 4.00026 13.6659 4.81099C12.5701 4.24411 11.3506 3.95916 10.1172 3.98183C8.88388 4.0045 7.67559 4.33408 6.60139 4.94084C6.20527 5.15314 5.82851 5.39976 5.47542 5.67787L5.3737 5.64277C3.26908 5.1795 2.21677 4.31613 2.21677 3.08073C2.21789 2.89059 2.14552 2.70737 2.01478 2.56936C1.88404 2.43136 1.70506 2.34925 1.51523 2.3402C1.33449 2.33247 1.15713 2.39094 1.01637 2.50464C0.875615 2.61834 0.781109 2.77949 0.750553 2.95789C0.224399 6.75884 1.69062 8.74179 3.12526 9.72449C3.12526 9.79117 3.12526 9.85786 3.12526 9.92103C3.00249 14.6204 0.757569 17.2 0.74003 17.2246C0.659396 17.3088 0.599866 17.4109 0.566328 17.5225C0.532791 17.6342 0.526204 17.7522 0.547107 17.8669C0.568153 17.9616 1.0452 20.264 2.89375 20.9378L2.98145 20.9589C3.73519 21.4026 4.59053 21.6443 5.4649 21.6608C5.72493 21.662 5.9845 21.6385 6.2401 21.5906C7.38338 21.3656 8.40506 20.7303 9.1129 19.8042C10.2642 20.2087 11.5231 20.1812 12.6557 19.727C13.8974 19.2426 15.0163 18.2705 15.3741 17.358C15.4164 17.1847 15.3946 17.0019 15.313 16.8434C15.2313 16.6848 15.0952 16.5611 14.9296 16.4949C14.7641 16.4287 14.5802 16.4246 14.4118 16.4832C14.2435 16.5418 14.1019 16.6593 14.0131 16.814C13.8763 17.186 13.1748 17.9371 12.1225 18.3372C11.655 18.5238 11.1535 18.6096 10.6506 18.589C10.1477 18.5685 9.6548 18.442 9.2041 18.2178C9.0435 18.1384 8.85945 18.1202 8.68641 18.1667C8.51337 18.2132 8.36321 18.3212 8.26404 18.4705C8.01707 18.8845 7.68852 19.2439 7.29837 19.5269C6.90822 19.8099 6.46462 20.0105 5.99456 20.1166C5.49795 20.1846 4.99265 20.15 4.50996 20.0148C4.02727 19.8795 3.57747 19.6466 3.1884 19.3304C3.0944 19.2643 2.98631 19.2211 2.87271 19.204C2.50898 18.8327 2.24058 18.3787 2.09049 17.8809C2.76397 16.9859 4.48976 14.28 4.58096 9.9456C4.60902 8.55929 5.67536 7.09226 7.29591 6.21836C8.69086 5.43503 10.3385 5.23448 11.8805 5.66032C11.7402 5.71999 11.6525 5.74806 11.649 5.75157C11.5568 5.78314 11.4718 5.83256 11.3988 5.897C11.3257 5.96145 11.2661 6.03965 11.2233 6.12716C11.1804 6.21466 11.1553 6.30975 11.1492 6.407C11.143 6.50424 11.1561 6.60173 11.1877 6.69391C11.2193 6.78609 11.2686 6.87115 11.3331 6.94423C11.3975 7.01731 11.4756 7.07698 11.5631 7.11984C11.7397 7.20639 11.9435 7.21919 12.1295 7.15543C12.7001 6.9458 13.2567 6.69962 13.7957 6.41841C13.8966 6.40925 13.9945 6.37926 14.0833 6.33033C14.172 6.2814 14.2497 6.21459 14.3113 6.13412C14.5744 5.9797 14.848 5.81124 15.1111 5.62523C15.7585 5.19204 16.3278 4.65208 16.7948 4.02834C16.8754 4.71588 16.79 5.41274 16.5457 6.06042C15.8301 7.95212 13.8413 8.74179 13.8237 8.74179C13.6604 8.80198 13.5234 8.91787 13.437 9.06908C13.3506 9.22029 13.3202 9.39715 13.3512 9.56855C13.3822 9.73996 13.4726 9.89495 13.6065 10.0063C13.7404 10.1176 13.9092 10.1781 14.0833 10.1772C14.1732 10.1762 14.2622 10.1596 14.3464 10.1281C14.9237 9.88711 15.4654 9.56829 15.9564 9.1805C16.0546 9.35247 16.1493 9.53146 16.237 9.70694C16.2987 9.83008 16.3934 9.93366 16.5104 10.0062C16.6275 10.0787 16.7623 10.1172 16.9 10.1176C16.9432 10.1212 16.9866 10.1212 17.0298 10.1176C18.9029 11.1985 22.9683 11.4372 24.8274 11.4793C27.9071 11.5495 30.8641 10.9739 33.4738 10.4615C38.2443 9.53146 42.0186 8.79444 44.8388 11.897C44.8858 11.9467 44.9388 11.9903 44.9966 12.0268C51.784 16.2384 46.2734 31.7335 46.2173 31.8914C46.1748 32.0032 46.1615 32.124 46.1787 32.2424C46.4979 35.1589 46.7996 40.2409 46.2419 41.4657C46.2126 41.529 46.1936 41.5965 46.1857 41.6658C45.4175 41.8094 44.6315 41.8308 43.8566 41.7289C44.3407 39.9952 44.3021 36.7488 44.2881 36.0398C44.2788 35.864 44.2164 35.6951 44.1092 35.5555L44.1302 35.5344C44.1927 35.4577 44.2391 35.3692 44.2666 35.2741C44.2941 35.179 44.3022 35.0794 44.2905 34.9812C44.2787 34.8829 44.2472 34.788 44.198 34.7022C44.1488 34.6163 44.0828 34.5413 44.0039 34.4815C40.1174 31.4281 40.1805 28.7327 40.2156 27.2868C40.2156 26.6234 40.2472 26.0478 39.7982 25.6828C39.6769 25.5837 39.5272 25.5258 39.3707 25.5176C39.2143 25.5094 39.0593 25.5513 38.9283 25.6372C38.7459 25.7565 38.5144 25.918 38.2268 26.118C35.9117 27.7606 30.5098 31.6036 25.799 28.7362C25.6896 28.6688 25.5645 28.6311 25.4361 28.627C25.3077 28.6229 25.1804 28.6525 25.0669 28.7128C24.9535 28.7731 24.8577 28.8621 24.7892 28.9708C24.7208 29.0796 24.6819 29.2044 24.6765 29.3329L24.1539 41.3324C23.4147 41.4751 22.6551 41.4751 21.916 41.3324C22.2668 37.7946 21.2811 35.4818 20.9233 34.7658C20.99 33.9551 21.0741 31.3544 19.6535 29.3785C19.5505 29.2357 19.4 29.1342 19.229 29.0924C19.058 29.0506 18.8777 29.0712 18.7205 29.1504C18.6889 29.1504 15.5215 30.7332 13.2871 29.2943C11.5332 28.1782 10.7545 25.5214 10.9159 21.4011C10.9255 21.3007 10.9145 21.1994 10.8836 21.1035C10.8527 21.0075 10.8025 20.9188 10.7362 20.843C10.6698 20.7671 10.5887 20.7055 10.4977 20.6621C10.4068 20.6187 10.3079 20.5943 10.2072 20.5905C10.1065 20.5867 10.0061 20.6035 9.9121 20.6398C9.81811 20.6762 9.73254 20.7314 9.66062 20.8021C9.58871 20.8727 9.53197 20.9573 9.49388 21.0506C9.45579 21.144 9.43715 21.2441 9.43911 21.3449C9.25321 26.0268 10.281 29.1188 12.4873 30.5402C12.9416 30.8304 13.4388 31.0472 13.9605 31.1825C13.9835 31.3381 14.0561 31.4821 14.1675 31.5931C15.4057 32.8285 15.6898 34.1306 15.9424 35.2782C16.038 35.8693 16.2238 36.4422 16.4931 36.9769C16.6579 37.763 16.8649 39.6547 16.1879 40.6936C16.11 40.7795 16.0522 40.8818 16.0189 40.9929C15.9855 41.104 15.9773 41.2212 15.995 41.3359C16.0265 41.502 16.1041 41.6558 16.2188 41.7799C16.3336 41.9041 16.4809 41.9934 16.6439 42.0378C17.4662 42.2646 18.3166 42.3733 19.1695 42.3607C19.6406 42.3677 20.1111 42.323 20.5725 42.2273C20.6052 42.267 20.6416 42.3034 20.6813 42.3361C21.2671 42.7818 22.1124 42.9117 22.9122 42.9117C23.6291 42.9048 24.3432 42.8189 25.0413 42.6555C25.2011 42.6188 25.3441 42.5299 25.4477 42.4027C25.5512 42.2756 25.6094 42.1175 25.6131 41.9536L26.1112 30.5297C28.4719 31.551 30.8992 31.3088 33.0529 30.5928C33.028 30.7289 33.0439 30.8694 33.0985 30.9965C33.1196 31.0491 33.1441 31.1017 33.1687 31.1544L32.1164 32.2564C31.9768 32.396 31.8984 32.5854 31.8984 32.7829C31.8984 32.9803 31.9768 33.1697 32.1164 33.3093C32.2559 33.4489 32.4452 33.5274 32.6425 33.5274C32.8399 33.5274 33.0291 33.4489 33.1687 33.3093L33.9825 32.4775C34.534 33.1269 35.2413 33.6256 36.038 33.927L35.4487 34.9027C35.3987 34.9861 35.3656 35.0786 35.3514 35.1748C35.3371 35.271 35.3419 35.3691 35.3655 35.4634C35.3891 35.5578 35.4311 35.6465 35.489 35.7246C35.5469 35.8028 35.6196 35.8687 35.703 35.9187C35.7864 35.9687 35.8788 36.0018 35.9749 36.0161C36.0711 36.0304 36.1691 36.0256 36.2634 36.0019C36.3577 35.9783 36.4464 35.9363 36.5245 35.8784C36.6026 35.8205 36.6685 35.7477 36.7185 35.6643L37.5533 34.3622C37.7591 34.4131 37.9676 34.4529 38.1777 34.4815H38.2618C39.2261 34.4643 40.1734 34.2241 41.0294 33.7796C41.6261 34.4422 42.2825 35.0484 42.9902 35.5906C42.8823 35.7288 42.8243 35.8995 42.8254 36.0749C42.8604 37.7104 42.7657 40.5637 42.3869 41.557C42.2795 41.497 42.1591 41.4644 42.0361 41.4622C41.2424 41.4823 40.4482 41.4541 39.6579 41.378C39.6579 41.2481 39.7035 41.0902 39.7281 40.9533C40.0224 39.5847 39.9996 38.1668 39.6614 36.8084C39.6163 36.6243 39.5019 36.4647 39.3422 36.3627C39.034 36.1674 38.7767 35.9016 38.5916 35.5871C38.4906 35.4186 38.3269 35.2971 38.1365 35.2494C37.9461 35.2017 37.7445 35.2316 37.5761 35.3326C37.4077 35.4336 37.2863 35.5974 37.2386 35.7879C37.1909 35.9785 37.2208 36.1802 37.3218 36.3487C37.571 36.7666 37.8985 37.1325 38.2864 37.4261C38.5162 38.5032 38.5162 39.6166 38.2864 40.6936C38.1812 41.2727 38.097 41.7465 38.2654 42.1676C38.4337 42.5888 38.567 42.9433 41.4223 42.9433H42.0782C42.2385 42.9412 42.3933 42.8842 42.5167 42.7818C42.8674 43.0942 43.8145 43.2591 44.7932 43.2591C45.8911 43.2591 47.0381 43.0451 47.4871 42.5993C47.5805 42.5039 47.6471 42.3856 47.6804 42.2562C47.7136 42.1268 47.7123 41.991 47.6765 41.8623C48.4271 39.7565 47.8203 33.5304 47.6765 32.2178C48.3079 30.3963 53.2151 15.54 45.863 10.823ZM2.26939 5.93407C2.87986 6.35975 3.55667 6.68115 4.27228 6.88519C3.9646 7.27516 3.70874 7.7034 3.51111 8.15919C2.87965 7.56189 2.44629 6.78532 2.26939 5.93407ZM17.7909 40.8129C18.4925 38.9949 17.9418 36.6505 17.9172 36.5347C17.8961 36.4497 17.8605 36.3689 17.812 36.296C17.5988 35.8748 17.4543 35.4222 17.384 34.9553C17.17 33.6638 16.669 32.4369 15.9178 31.365C16.9009 31.3046 17.8687 31.0927 18.7871 30.7367C19.7412 32.5267 19.4571 34.7904 19.4536 34.8149C19.4324 34.9821 19.4682 35.1515 19.5553 35.2958C19.5553 35.3168 20.7128 37.2787 20.5024 40.7111L20.4673 40.7357C20.099 40.9498 18.6714 40.9182 17.7909 40.7954V40.8129ZM37.2727 32.7407C36.6466 32.636 36.0586 32.3699 35.5666 31.9686C35.0745 31.5674 34.6954 31.0448 34.4665 30.4525C34.4186 30.3412 34.3439 30.2435 34.249 30.1682C35.8293 29.466 37.3317 28.6002 38.7319 27.5851C38.6727 29.3296 39.1636 31.0486 40.135 32.4986C39.2206 32.8389 38.2302 32.9202 37.2727 32.7337V32.7407Z" fill="url(#paint0_linear)"/>
<defs>
<linearGradient id="paint0_linear" x1="-5.54523" y1="39.9033" x2="48.8901" y2="-2.67761" gradientUnits="userSpaceOnUse">
<stop stop-color="#8BB35D"/>
<stop offset="0.44" stop-color="#8BB35D"/>
<stop offset="0.75" stop-color="#418F49"/>
<stop offset="1" stop-color="#2D925A"/>
</linearGradient>
</defs>
</svg>
