<svg width="37" height="44" viewBox="0 0 37 44" fill="none" xmlns="http://www.w3.org/2000/svg">
<path d="M2.06078 20.4279C1.95535 20.6601 1.87741 20.9043 1.82863 21.1552C1.65887 22.2655 1.80808 23.4021 2.25828 24.4279C2.99148 25.806 4.19066 26.866 5.63306 27.4112C5.06829 29.1764 5.49793 31.6689 6.18744 32.9893C6.73142 34.0484 7.70159 35.3688 8.80342 36.0007C9.43163 36.3244 10.1128 36.5278 10.813 36.6009C11.267 36.6499 11.7122 36.7616 12.1366 36.9328C12.2322 36.9776 12.3363 37.0005 12.4415 36.9999C12.5491 36.9973 12.6549 36.9707 12.7513 36.9219C12.8477 36.8731 12.9324 36.8033 12.9994 36.7174L13.0964 36.8128C13.7573 37.4232 14.5853 37.8136 15.4698 37.9319C15.4805 37.9849 15.4956 38.0369 15.5149 38.0872C15.6028 38.9719 15.5901 39.864 15.4768 40.7457C14.1601 40.954 12.7603 41.5259 12.1817 42.984C12.1106 43.1667 12.1129 43.3706 12.1881 43.5516C12.2633 43.7326 12.4054 43.8761 12.5836 43.9513C12.6709 43.9859 12.7637 44.0038 12.8573 44.0043C13.0056 44.0074 13.1513 43.9645 13.275 43.8812C13.3988 43.798 13.4948 43.6784 13.5503 43.5383C13.8344 42.8322 14.5897 42.3767 15.8406 42.2038H15.8752C15.9457 42.2273 16.0194 42.2393 16.0935 42.2391C16.227 42.2393 16.3578 42.2014 16.4712 42.1296C16.9409 42.1049 17.4116 42.1049 17.8814 42.1296C18.4288 42.1579 20.0885 42.6839 20.9998 43.0087C21.0908 43.0407 21.1871 43.0541 21.2831 43.0482C21.3792 43.0422 21.4732 43.0171 21.5598 42.9741C21.6463 42.9312 21.7237 42.8713 21.7876 42.7979C21.8514 42.7244 21.9004 42.6389 21.9318 42.5462C21.9632 42.4535 21.9764 42.3554 21.9706 42.2575C21.9647 42.1595 21.94 42.0638 21.8979 41.9756C21.8557 41.8874 21.797 41.8085 21.7249 41.7435C21.6528 41.6784 21.5689 41.6285 21.4779 41.5965C21.2146 41.5012 18.8793 40.6857 17.9507 40.6362C17.7081 40.6362 17.3616 40.608 16.9597 40.608C17.0568 39.6998 17.0568 38.7836 16.9597 37.8754C17.4087 37.7985 17.8463 37.6645 18.2625 37.4765C19.0915 37.0995 19.8207 36.5271 20.3899 35.8066C20.5732 35.8797 20.7683 35.9168 20.9651 35.916C21.059 35.9157 21.1528 35.9086 21.2458 35.8948C22.6144 35.6936 24.4438 33.999 25.2719 32.9151C27.0667 33.3494 29.5822 32.0113 30.646 30.9804C32.2398 29.4376 32.9432 27.6724 33.695 25.5259C34.7588 22.4862 35.1434 17.9531 32.7249 15.1817C32.6617 15.1063 32.5842 15.0448 32.497 15.0008C32.4099 14.9567 32.3148 14.9312 32.2177 14.9255C32.1206 14.9199 32.0234 14.9344 31.9319 14.9681C31.8404 15.0018 31.7566 15.0541 31.6854 15.1217C31.6121 15.1864 31.5521 15.2654 31.5092 15.354C31.4662 15.4427 31.4411 15.5392 31.4353 15.6378C31.4295 15.7365 31.4431 15.8354 31.4753 15.9287C31.5076 16.0219 31.5578 16.1076 31.623 16.1808C33.4906 18.3203 33.3104 22.1826 32.316 25.0352C31.63 27.0052 30.9959 28.5974 29.6307 29.9213C28.619 30.9028 26.2906 31.9478 25.3343 31.39C25.2469 31.3389 25.15 31.3069 25.0498 31.2959C24.9496 31.285 24.8483 31.2954 24.7522 31.3264C24.6562 31.3582 24.5677 31.4097 24.492 31.4777C24.4163 31.5457 24.3551 31.6288 24.3122 31.7218C23.9657 32.5091 22.0462 34.1932 21.1938 34.4297C21.4926 33.6898 21.6423 32.8962 21.6338 32.0961C21.6407 31.9942 21.627 31.8919 21.5935 31.7957C21.5599 31.6994 21.5073 31.6112 21.4389 31.5365C21.3705 31.4619 21.2878 31.4023 21.1958 31.3616C21.1039 31.3209 21.0047 31.2999 20.9045 31.2999C20.8042 31.2999 20.7051 31.3209 20.6131 31.3616C20.5212 31.4023 20.4384 31.4619 20.37 31.5365C20.3016 31.6112 20.249 31.6994 20.2155 31.7957C20.182 31.8919 20.1682 31.9942 20.1751 32.0961C20.192 32.9463 19.9623 33.7826 19.5149 34.5004C19.0674 35.2182 18.4221 35.7856 17.6596 36.1314C16.3707 36.7174 14.9951 36.5515 14.07 35.6971C13.1449 34.8428 13.0513 34.0978 13.0306 32.4421C13.0306 32.2392 12.9564 32.0436 12.8225 31.8934C12.6886 31.7433 12.5046 31.6494 12.3064 31.6301C12.1049 31.6488 11.9179 31.745 11.7834 31.8991C11.6489 32.0531 11.577 32.2536 11.5822 32.4597C11.5822 33.4835 11.5822 34.4156 11.9772 35.2841C11.655 35.2029 11.3328 35.1676 11.0175 35.1181C10.4904 35.0714 9.97547 34.9304 9.49639 34.7015C8.72719 34.2461 7.91641 33.187 7.45558 32.2867C6.85269 31.1287 6.50621 28.4774 7.21997 27.3935C7.28392 27.2973 7.32477 27.187 7.33921 27.0718C7.35366 26.9565 7.3413 26.8393 7.30313 26.7298C7.2643 26.6201 7.20085 26.5211 7.11783 26.4408C7.03482 26.3605 6.93453 26.3011 6.82498 26.2673C5.30043 25.8048 4.10505 24.8904 3.54374 23.7571C3.25452 23.0565 3.15289 22.2902 3.24923 21.5365C3.9689 21.997 4.74785 22.3535 5.56376 22.5956C5.63014 22.6154 5.69905 22.6249 5.76819 22.6239C5.93681 22.6155 6.09732 22.5476 6.22221 22.4318C6.34711 22.3161 6.42862 22.1597 6.45278 21.9895C6.47694 21.8192 6.44225 21.6457 6.35465 21.4987C6.26705 21.3516 6.13199 21.2402 5.97262 21.1835C5.1926 20.9585 4.45568 20.6004 3.79321 20.1243C3.801 19.9808 3.76826 19.838 3.69887 19.7129C3.62948 19.5877 3.52635 19.4855 3.40168 19.4182C3.34129 19.3875 3.27723 19.365 3.21112 19.3511C2.86763 18.9314 2.58202 18.4658 2.36222 17.9672C2.88542 17.0987 4.51044 16.2973 6.43344 16.4385C8.10351 16.5586 12.1955 17.0987 14.0562 19.4571C14.1349 19.5557 14.2369 19.6324 14.3527 19.6799C14.4684 19.7274 14.5941 19.7443 14.7179 19.7289C14.8415 19.7133 14.9591 19.6654 15.0593 19.59C15.1594 19.5145 15.2388 19.414 15.2897 19.2982C15.6569 18.4756 17.4205 17.4447 18.3769 17.2046C18.7192 17.1312 19.0668 17.0863 19.4163 17.0705C20.0002 17.0528 20.5777 16.942 21.128 16.7421C22.4204 16.2267 22.5555 15.4782 22.6975 14.6839C22.7322 14.4897 22.7738 14.2708 22.8361 14.0202C22.947 13.5683 23.051 13.0952 23.1584 12.608C23.782 9.78363 24.423 6.88513 26.9316 5.61064C28.0785 5.02105 28.9378 5.29643 30.1505 5.64947C30.4658 5.74479 30.7915 5.84364 31.1345 5.93191C31.5822 6.02544 32.0396 6.0622 32.4962 6.04135C32.8587 6.01896 33.2224 6.04747 33.5772 6.12608C34.0358 6.33132 34.4583 6.61157 34.8281 6.95574L34.9944 7.08636C34.3295 7.4578 33.6116 7.72106 32.8669 7.86659L32.4269 7.97957C32.3659 7.99538 32.3075 8.02036 32.2537 8.05371L32.2121 8.01134C32.1324 7.94426 32.0596 7.89131 31.9938 7.84541C32.0039 7.64831 31.9368 7.45519 31.8071 7.30854C31.6775 7.16189 31.496 7.07371 31.3025 7.06342C31.1091 7.05312 30.9196 7.12153 30.7757 7.25362C30.6317 7.38571 30.5452 7.57064 30.5351 7.76774C30.485 8.01659 30.515 8.27525 30.6204 8.50542C30.7259 8.7356 30.9013 8.92506 31.1206 9.04576L31.2419 9.13402C31.2629 9.29492 31.3361 9.44405 31.4498 9.55768C32.174 10.2814 32.3195 10.7792 32.2225 10.9699C32.1255 11.1605 31.5503 11.4465 30.937 11.3759C30.5905 11.3335 30.2198 11.1817 30.1678 10.9346C30.1476 10.8393 30.1091 10.749 30.0546 10.6689C30.0001 10.5887 29.9307 10.5203 29.8502 10.4676C29.7698 10.4148 29.6799 10.3787 29.5858 10.3613C29.4917 10.3439 29.3951 10.3455 29.3016 10.3662C29.2081 10.3868 29.1195 10.426 29.0408 10.4815C28.9622 10.537 28.8951 10.6078 28.8433 10.6897C28.7915 10.7717 28.756 10.8632 28.7389 10.9592C28.7219 11.0551 28.7235 11.1535 28.7437 11.2488C28.8071 11.5236 28.929 11.7809 29.1008 12.0024C29.2727 12.2239 29.4903 12.4041 29.7382 12.5303V12.6045C29.7217 13.3516 29.9772 14.0784 30.4554 14.6451C30.5246 14.7242 30.6094 14.7875 30.7044 14.8307C30.7994 14.8739 30.9023 14.8961 31.0063 14.8957C31.1459 14.8946 31.2823 14.8528 31.3993 14.7753C31.5164 14.6977 31.6092 14.5876 31.6667 14.458C31.7243 14.3284 31.7443 14.1848 31.7243 14.044C31.7042 13.9032 31.6451 13.7712 31.5538 13.6636C31.363 13.44 31.2423 13.1633 31.2073 12.8692C32.1185 12.8692 33.1337 12.488 33.5461 11.6089C33.7851 11.1005 33.8648 10.3203 33.1718 9.30702H33.2204C34.3915 9.01046 35.722 8.67154 36.6852 7.54179L36.706 7.51355L36.7303 7.4853L36.7511 7.45C36.7639 7.42959 36.7755 7.40836 36.7857 7.38645L36.8169 7.31937L36.8377 7.2523C36.8451 7.22801 36.8509 7.20324 36.855 7.17815C36.8567 7.15583 36.8567 7.1334 36.855 7.11108C36.8567 7.08639 36.8567 7.06162 36.855 7.03694C36.8566 7.01343 36.8566 6.98983 36.855 6.96633V6.89572C36.855 6.87454 36.855 6.84982 36.855 6.82864L36.8307 6.76156L36.7996 6.69801C36.7881 6.67606 36.7754 6.65484 36.7615 6.63447C36.7507 6.61343 36.7367 6.59435 36.7199 6.57798C36.7054 6.55666 36.6878 6.53762 36.6679 6.52149C36.6617 6.51053 36.6535 6.50093 36.6436 6.49325L36.6159 6.47206L36.5882 6.44735C36.2764 6.21787 36.0061 5.99898 35.7428 5.78716C35.238 5.31451 34.6503 4.9432 34.0103 4.69272C33.6086 4.58149 33.1931 4.53035 32.7769 4.54091C32.9648 4.22174 33.0575 3.85372 33.0436 3.48177C33.0325 2.99786 32.8742 2.52941 32.5905 2.14112C32.3069 1.75282 31.9119 1.46384 31.4602 1.31408C31.22 1.25394 30.9704 1.24295 30.726 1.28174C30.4815 1.32052 30.2471 1.40831 30.0361 1.54003C29.9538 1.32406 29.8367 1.12361 29.6897 0.946911C29.5066 0.741988 29.2835 0.578338 29.0346 0.466468C28.7858 0.354597 28.5168 0.296977 28.2448 0.297309C27.6827 0.26725 27.1264 0.426006 26.6614 0.749206C26.4957 0.577758 26.3066 0.431509 26.1 0.314961C25.7881 0.142439 25.4445 0.0376799 25.0909 0.00729709C24.7372 -0.0230857 24.3812 0.0215677 24.0454 0.138438C22.6179 0.576214 21.62 1.96015 21.3878 3.75362C21.1834 5.48707 21.8279 7.08636 23.0336 7.86306C22.4439 9.28626 22.0037 10.7691 21.7205 12.2867C21.6165 12.7563 21.5126 13.2188 21.4051 13.6565C21.3324 13.946 21.2873 14.1932 21.2492 14.4156C21.1245 15.1217 21.1141 15.1464 20.577 15.3617C20.1594 15.5012 19.724 15.5773 19.2846 15.5877C18.8625 15.6112 18.443 15.6702 18.0304 15.7642C16.7205 16.1502 15.5244 16.8596 14.5482 17.8295C12.1817 15.6089 8.23518 15.0793 6.53739 14.9557C4.08773 14.7722 1.68657 15.8878 0.955485 17.5012C0.868863 17.6989 0.640181 18.2073 1.67271 19.7148C1.76954 19.9694 1.90011 20.2094 2.06078 20.4279ZM30.1089 3.57357C30.4554 3.00516 30.8192 2.69448 31.0825 2.76156C31.2273 2.83 31.3505 2.93834 31.438 3.07435C31.5256 3.21035 31.5741 3.3686 31.578 3.5312C31.5932 3.62238 31.5727 3.716 31.5208 3.79192C31.469 3.86784 31.39 3.92001 31.3008 3.9372C31.2103 3.96751 31.1266 4.0159 31.0546 4.07955C30.9826 4.1432 30.9238 4.22083 30.8816 4.3079L30.5628 4.23729C30.2163 4.13491 29.8698 4.02899 29.5233 3.94779C29.6439 3.94041 29.7607 3.90227 29.863 3.83688C29.9653 3.77149 30.0499 3.68094 30.1089 3.57357ZM22.8327 3.92661C22.9401 3.02988 23.4286 1.87189 24.4612 1.55415C24.6076 1.49627 24.7643 1.47014 24.9212 1.47743C25.0781 1.48473 25.2318 1.52528 25.3724 1.59651C25.5361 1.71188 25.6756 1.85935 25.7827 2.03029C25.8898 2.20124 25.9623 2.39224 25.9961 2.5921C26.0388 2.78405 26.1546 2.95084 26.3181 3.05578C26.4815 3.16072 26.6791 3.19522 26.8675 3.15168C27.0559 3.10814 27.2196 2.99013 27.3226 2.82362C27.4256 2.6571 27.4594 2.45572 27.4167 2.26377C27.3786 2.07666 27.4167 2.01664 27.4479 1.99192C27.5483 1.90723 27.6646 1.84442 27.7898 1.80738C27.9149 1.77034 28.0462 1.75985 28.1755 1.77657C28.2519 1.76726 28.3294 1.77648 28.4017 1.80348C28.4739 1.83047 28.5389 1.87448 28.5913 1.93191C28.7899 2.29088 28.8551 2.7107 28.7749 3.11461C28.7601 3.26912 28.7933 3.42447 28.8697 3.55876C28.9462 3.69304 29.0621 3.79948 29.2011 3.86306C28.2078 3.6606 27.1764 3.80877 26.2768 4.28319C25.2494 4.80327 24.3747 5.58988 23.7405 6.56386C23.0475 6.07312 22.701 5.06342 22.8361 3.93367L22.8327 3.92661Z" fill="url(#paint0_linear)"/>
<path d="M11.3328 23.0715C11.4101 23.0083 11.4741 22.9298 11.5207 22.8406C11.5673 22.7515 11.5956 22.6536 11.604 22.5529C11.6123 22.4523 11.6005 22.351 11.5691 22.2551C11.5378 22.1593 11.4877 22.0709 11.4219 21.9954C11.356 21.9199 11.2758 21.8589 11.186 21.816C11.0963 21.7731 10.9989 21.7492 10.8998 21.7458C10.8008 21.7425 10.7021 21.7597 10.6097 21.7964C10.5174 21.8331 10.4333 21.8886 10.3626 21.9594C9.53908 22.7436 8.76705 23.5821 8.05157 24.4696C7.7432 24.8226 7.45215 25.1757 7.19228 25.4687C7.11101 25.5566 7.05214 25.6634 7.02084 25.7799C6.98953 25.8963 6.98676 26.0188 7.01276 26.1366C7.03875 26.2544 7.09273 26.3639 7.16994 26.4555C7.24715 26.5471 7.34524 26.618 7.45561 26.662C9.21032 27.3405 11.0644 27.7141 12.9405 27.767C13.1796 27.767 13.4083 27.767 13.6335 27.7388C16.9771 27.4387 21.7239 26.6514 24.3122 23.2374C24.8527 22.5313 26.2837 20.1448 25.7813 18.5984C25.7513 18.5057 25.7036 18.4199 25.6411 18.346C25.5785 18.272 25.5022 18.2113 25.4166 18.1674C25.3311 18.1235 25.2378 18.0971 25.1423 18.0899C25.0467 18.0827 24.9507 18.0947 24.8597 18.1253C24.7687 18.1559 24.6845 18.2045 24.6119 18.2683C24.5393 18.332 24.4797 18.4097 24.4366 18.4969C24.3935 18.5841 24.3677 18.6791 24.3606 18.7765C24.3535 18.8739 24.3653 18.9717 24.3954 19.0644C24.5963 19.6823 23.8826 21.3769 23.1549 22.3301C21.128 25.0062 17.3721 25.8323 14.3854 26.1677L14.5447 26.0689C15.565 25.4157 16.4387 24.5508 17.1087 23.5305C17.1629 23.45 17.201 23.3595 17.2208 23.2641C17.2406 23.1687 17.2418 23.0702 17.2242 22.9743C17.2067 22.8784 17.1708 22.787 17.1186 22.7052C17.0664 22.6235 16.9988 22.553 16.9199 22.4978C16.841 22.4426 16.7521 22.4038 16.6585 22.3837C16.5648 22.3635 16.4682 22.3623 16.3741 22.3801C16.28 22.398 16.1902 22.4346 16.11 22.4878C16.0297 22.541 15.9606 22.6098 15.9064 22.6902C15.346 23.5437 14.6137 24.2658 13.7582 24.8085C12.7188 25.4934 10.9863 26.1253 9.4098 25.737L8.98362 25.617L9.14301 25.4263C9.82157 24.5934 10.5531 23.8068 11.3328 23.0715Z" fill="url(#paint1_linear)"/>
<defs>
<linearGradient id="paint0_linear" x1="-3.56341" y1="40.5629" x2="45.3119" y2="13.3684" gradientUnits="userSpaceOnUse">
<stop stop-color="#8BB35D"/>
<stop offset="0.44" stop-color="#8BB35D"/>
<stop offset="0.75" stop-color="#418F49"/>
<stop offset="1" stop-color="#2D925A"/>
</linearGradient>
<linearGradient id="paint1_linear" x1="4.66653" y1="27.01" x2="16.8248" y2="10.863" gradientUnits="userSpaceOnUse">
<stop stop-color="#8BB35D"/>
<stop offset="0.44" stop-color="#8BB35D"/>
<stop offset="0.75" stop-color="#418F49"/>
<stop offset="1" stop-color="#2D925A"/>
</linearGradient>
</defs>
</svg>
