<svg id="Layer_1" data-name="Layer 1" xmlns="http://www.w3.org/2000/svg" viewBox="0 0 2 423.8">
  <defs>
    <style>
        #RDots
    {
        stroke-dasharray: 10;
    }
    #BLine
    {
    stroke-dasharray: 1000;
    stroke-dashoffset: 1000;
    animation: dash 4.6s linear;
    animation-fill-mode: forwards;
    }
    @keyframes dash {
    from {
        stroke-dashoffset: 1000;
    }
    to {
        stroke-dashoffset: 0;
    }
    }
      .cls-1 {
        fill: #3c8e4c;
        stroke: #3c8e4c;
        stroke-miterlimit: 10;
        stroke-width: 2px;
      }

      .cls-2 {
        fill: #fff;
      }
    </style>
  </defs>
  <line id="BLine" class="cls-1" x1="1" x2="1" y2="423.71"/>
  <g id="RDots">
    <path class="cls-2" d="M1.41,423.91H2V423A1,1,0,0,1,1.41,423.91Z" transform="translate(0 -0.21)"/>
    <path class="cls-2" d="M2,1.21v-1H1A1,1,0,0,1,2,1.21Z" transform="translate(0 -0.21)"/>
    <path class="cls-2" d="M1,2.41a1,1,0,0,1-1-1v-.2a1,1,0,0,1,1-1H0v423.7H.59A1,1,0,0,1,0,423v-.2a1,1,0,0,1,2,0v-6a1,1,0,0,1-2,0v-.2a1,1,0,0,1,2,0v-6a1,1,0,0,1-2,0v-.19a1,1,0,0,1,2,0v-6a1,1,0,0,1-2,0v-.21a1,1,0,0,1,2,0v-6a1,1,0,0,1-2,0V398a1,1,0,0,1,2,0v-6a1,1,0,0,1-2,0v-.2a1,1,0,0,1,2,0v-6a1,1,0,0,1-2,0v-.2a1,1,0,0,1,2,0v-6a1,1,0,0,1-2,0v-.19a1,1,0,0,1,2,0v-6a1,1,0,0,1-2,0v-.21a1,1,0,0,1,2,0v-6a1,1,0,0,1-2,0V367a1,1,0,0,1,2,0v-6a1,1,0,0,1-2,0v-.2a1,1,0,0,1,2,0v-6a1,1,0,0,1-2,0v-.2a1,1,0,0,1,2,0v-6a1,1,0,0,1-2,0v-.19a1,1,0,0,1,2,0v-6a1,1,0,0,1-2,0v-.21a1,1,0,0,1,2,0v-6a1,1,0,0,1-2,0V336a1,1,0,0,1,2,0v-6a1,1,0,0,1-2,0v-.2a1,1,0,0,1,2,0v-6a1,1,0,0,1-2,0v-.2a1,1,0,0,1,2,0v-6a1,1,0,0,1-2,0v-.19a1,1,0,0,1,2,0v-6a1,1,0,0,1-2,0v-.21a1,1,0,0,1,2,0v-6a1,1,0,0,1-2,0V305a1,1,0,0,1,2,0v-6a1,1,0,0,1-2,0v-.2a1,1,0,0,1,2,0v-6a1,1,0,0,1-2,0v-.2a1,1,0,0,1,2,0v-6a1,1,0,0,1-2,0v-.19a1,1,0,0,1,2,0v-6a1,1,0,0,1-2,0v-.21a1,1,0,0,1,2,0v-6a1,1,0,0,1-2,0V274a1,1,0,0,1,2,0v-6a1,1,0,0,1-2,0v-.2a1,1,0,0,1,2,0v-6a1,1,0,0,1-2,0v-.2a1,1,0,0,1,2,0v-6a1,1,0,1,1-2,0v-.19a1,1,0,0,1,2,0v-6a1,1,0,0,1-2,0v-.21a1,1,0,0,1,2,0v-6a1,1,0,0,1-2,0V243a1,1,0,0,1,2,0v-6a1,1,0,0,1-2,0v-.2a1,1,0,0,1,2,0v-6a1,1,0,0,1-2,0v-.2a1,1,0,0,1,2,0v-6a1,1,0,0,1-2,0v-.19a1,1,0,0,1,2,0v-6a1,1,0,0,1-2,0v-.21a1,1,0,0,1,2,0v-6a1,1,0,0,1-2,0V212a1,1,0,0,1,2,0v-6a1,1,0,0,1-2,0v-.2a1,1,0,0,1,2,0v-6a1,1,0,0,1-2,0v-.2a1,1,0,0,1,2,0v-6a1,1,0,0,1-2,0v-.2a1,1,0,0,1,2,0v-6a1,1,0,0,1-2,0v-.2a1,1,0,0,1,2,0v-6a1,1,0,0,1-2,0V181a1,1,0,0,1,2,0v-6a1,1,0,0,1-2,0v-.2a1,1,0,0,1,2,0v-6a1,1,0,0,1-2,0v-.2a1,1,0,0,1,2,0v-6a1,1,0,0,1-2,0v-.2a1,1,0,0,1,2,0v-6a1,1,0,0,1-2,0v-.2a1,1,0,0,1,2,0v-6a1,1,0,0,1-2,0V150a1,1,0,0,1,2,0v-6a1,1,0,0,1-2,0v-.2a1,1,0,0,1,2,0v-6a1,1,0,0,1-2,0v-.2a1,1,0,0,1,2,0v-6a1,1,0,0,1-2,0v-.19a1,1,0,0,1,2,0v-6a1,1,0,0,1-2,0v-.21a1,1,0,0,1,2,0v-6a1,1,0,0,1-2,0V119a1,1,0,0,1,2,0v-6a1,1,0,0,1-2,0v-.21a1,1,0,0,1,2,0v-6a1,1,0,0,1-2,0v-.2a1,1,0,0,1,2,0v-6a1,1,0,0,1-2,0v-.19a1,1,0,0,1,2,0v-6a1,1,0,0,1-2,0V94.2a1,1,0,0,1,2,0v-6a1,1,0,0,1-2,0V88a1,1,0,0,1,2,0V82a1,1,0,0,1-2,0V81.8a1,1,0,0,1,2,0v-6a1,1,0,0,1-2,0v-.19a1,1,0,0,1,2,0v-6a1,1,0,0,1-2,0v-.2a1,1,0,0,1,2,0v-6a1,1,0,0,1-2,0v-.2a1,1,0,0,1,2,0v-6a1,1,0,0,1-2,0V57a1,1,0,0,1,2,0V51a1,1,0,0,1-2,0V50.8a1,1,0,0,1,2,0v-6a1,1,0,0,1-2,0v-.2a1,1,0,0,1,2,0v-6a1,1,0,0,1-2,0v-.2a1,1,0,0,1,2,0v-6a1,1,0,0,1-2,0v-.2a1,1,0,0,1,2,0v-6a1,1,0,0,1-2,0V26a1,1,0,0,1,2,0V20a1,1,0,0,1-2,0v-.2a1,1,0,0,1,2,0v-6a1,1,0,0,1-2,0v-.2a1,1,0,0,1,2,0v-6a1,1,0,0,1-2,0v-.2a1,1,0,0,1,2,0v-6A1,1,0,0,1,1,2.41Z" transform="translate(0 -0.21)"/>
    <polygon class="cls-2" points="2 298.8 2 298.6 2 298.6 2 298.8 2 298.8"/>
    <polygon class="cls-2" points="2 292.6 2 292.4 2 292.4 2 292.6 2 292.6"/>
    <polygon class="cls-2" points="2 323.6 2 323.4 2 323.4 2 323.6 2 323.6"/>
    <polygon class="cls-2" points="2 305 2 304.8 2 304.8 2 305 2 305"/>
    <polygon class="cls-2" points="2 286.4 2 286.2 2 286.2 2 286.4 2 286.4"/>
    <polygon class="cls-2" points="2 311.2 2 311 2 311 2 311.2 2 311.2"/>
    <polygon class="cls-2" points="2 317.4 2 317.2 2 317.2 2 317.4 2 317.4"/>
    <polygon class="cls-2" points="2 267.8 2 267.6 2 267.6 2 267.8 2 267.8"/>
    <polygon class="cls-2" points="2 255.4 2 255.2 2 255.2 2 255.4 2 255.4"/>
    <polygon class="cls-2" points="2 243 2 242.8 2 242.8 2 243 2 243"/>
    <polygon class="cls-2" points="2 249.2 2 249 2 249 2 249.2 2 249.2"/>
    <polygon class="cls-2" points="2 236.8 2 236.6 2 236.6 2 236.8 2 236.8"/>
    <polygon class="cls-2" points="2 329.8 2 329.6 2 329.6 2 329.8 2 329.8"/>
    <polygon class="cls-2" points="2 274 2 273.8 2 273.8 2 274 2 274"/>
    <polygon class="cls-2" points="2 261.6 2 261.4 2 261.4 2 261.6 2 261.6"/>
    <polygon class="cls-2" points="2 280.2 2 280 2 280 2 280.2 2 280.2"/>
    <polygon class="cls-2" points="2 336 2 335.8 2 335.8 2 336 2 336"/>
    <polygon class="cls-2" points="2 404.2 2 404 2 404 2 404.2 2 404.2"/>
    <polygon class="cls-2" points="2 410.4 2 410.2 2 410.2 2 410.4 2 410.4"/>
    <polygon class="cls-2" points="2 416.6 2 416.4 2 416.4 2 416.6 2 416.6"/>
    <polygon class="cls-2" points="2 391.8 2 391.6 2 391.6 2 391.8 2 391.8"/>
    <polygon class="cls-2" points="2 398 2 397.8 2 397.8 2 398 2 398"/>
    <polygon class="cls-2" points="2 1.2 2 1 2 1 2 1.2 2 1.2"/>
    <path class="cls-2" d="M1,424a1,1,0,0,0,.41-.09H.59A1,1,0,0,0,1,424Z" transform="translate(0 -0.21)"/>
    <polygon class="cls-2" points="2 422.8 2 422.6 2 422.6 2 422.8 2 422.8"/>
    <polygon class="cls-2" points="2 385.6 2 385.4 2 385.4 2 385.6 2 385.6"/>
    <polygon class="cls-2" points="2 354.6 2 354.4 2 354.4 2 354.6 2 354.6"/>
    <polygon class="cls-2" points="2 348.4 2 348.2 2 348.2 2 348.4 2 348.4"/>
    <polygon class="cls-2" points="2 360.8 2 360.6 2 360.6 2 360.8 2 360.8"/>
    <polygon class="cls-2" points="2 230.6 2 230.4 2 230.4 2 230.6 2 230.6"/>
    <polygon class="cls-2" points="2 379.4 2 379.2 2 379.2 2 379.4 2 379.4"/>
    <polygon class="cls-2" points="2 373.2 2 373 2 373 2 373.2 2 373.2"/>
    <polygon class="cls-2" points="2 367 2 366.8 2 366.8 2 367 2 367"/>
    <polygon class="cls-2" points="2 342.2 2 342 2 342 2 342.2 2 342.2"/>
    <polygon class="cls-2" points="2 81.8 2 81.6 2 81.6 2 81.8 2 81.8"/>
    <polygon class="cls-2" points="2 88 2 87.8 2 87.8 2 88 2 88"/>
    <polygon class="cls-2" points="2 75.6 2 75.4 2 75.4 2 75.6 2 75.6"/>
    <polygon class="cls-2" points="2 69.4 2 69.2 2 69.2 2 69.4 2 69.4"/>
    <polygon class="cls-2" points="2 63.2 2 63 2 63 2 63.2 2 63.2"/>
    <polygon class="cls-2" points="2 106.6 2 106.4 2 106.4 2 106.6 2 106.6"/>
    <polygon class="cls-2" points="2 100.4 2 100.2 2 100.2 2 100.4 2 100.4"/>
    <polygon class="cls-2" points="2 94.2 2 94 2 94 2 94.2 2 94.2"/>
    <polygon class="cls-2" points="2 26 2 25.8 2 25.8 2 26 2 26"/>
    <polygon class="cls-2" points="2 13.6 2 13.4 2 13.4 2 13.6 2 13.6"/>
    <polygon class="cls-2" points="2 112.8 2 112.6 2 112.6 2 112.8 2 112.8"/>
    <polygon class="cls-2" points="2 7.4 2 7.2 2 7.2 2 7.4 2 7.4"/>
    <polygon class="cls-2" points="2 57 2 56.8 2 56.8 2 57 2 57"/>
    <polygon class="cls-2" points="2 32.2 2 32 2 32 2 32.2 2 32.2"/>
    <polygon class="cls-2" points="2 224.4 2 224.2 2 224.2 2 224.4 2 224.4"/>
    <polygon class="cls-2" points="2 50.8 2 50.6 2 50.6 2 50.8 2 50.8"/>
    <polygon class="cls-2" points="2 44.6 2 44.4 2 44.4 2 44.6 2 44.6"/>
    <polygon class="cls-2" points="2 38.4 2 38.2 2 38.2 2 38.4 2 38.4"/>
    <polygon class="cls-2" points="2 119 2 118.8 2 118.8 2 119 2 119"/>
    <polygon class="cls-2" points="2 187.2 2 187 2 187 2 187.2 2 187.2"/>
    <polygon class="cls-2" points="2 199.6 2 199.4 2 199.4 2 199.6 2 199.6"/>
    <polygon class="cls-2" points="2 181 2 180.8 2 180.8 2 181 2 181"/>
    <polygon class="cls-2" points="2 205.8 2 205.6 2 205.6 2 205.8 2 205.8"/>
    <polygon class="cls-2" points="2 174.8 2 174.6 2 174.6 2 174.8 2 174.8"/>
    <polygon class="cls-2" points="2 218.2 2 218 2 218 2 218.2 2 218.2"/>
    <polygon class="cls-2" points="2 212 2 211.8 2 211.8 2 212 2 212"/>
    <polygon class="cls-2" points="2 193.4 2 193.2 2 193.2 2 193.4 2 193.4"/>
    <polygon class="cls-2" points="2 131.4 2 131.2 2 131.2 2 131.4 2 131.4"/>
    <polygon class="cls-2" points="2 143.8 2 143.6 2 143.6 2 143.8 2 143.8"/>
    <polygon class="cls-2" points="2 137.6 2 137.4 2 137.4 2 137.6 2 137.6"/>
    <polygon class="cls-2" points="2 125.2 2 125 2 125 2 125.2 2 125.2"/>
    <polygon class="cls-2" points="2 150 2 149.8 2 149.8 2 150 2 150"/>
    <polygon class="cls-2" points="2 162.4 2 162.2 2 162.2 2 162.4 2 162.4"/>
    <polygon class="cls-2" points="2 156.2 2 156 2 156 2 156.2 2 156.2"/>
    <polygon class="cls-2" points="2 168.6 2 168.4 2 168.4 2 168.6 2 168.6"/>
    <polygon class="cls-2" points="2 19.8 2 19.6 2 19.6 2 19.8 2 19.8"/>
    <polygon class="cls-2" points="1 0 1 0 1 0 1 0"/>
  </g>
</svg>
