<svg width="46" height="32" viewBox="0 0 46 32" fill="none" xmlns="http://www.w3.org/2000/svg">
<path d="M0.631219 11.8804C2.90987 12.7233 3.46715 13.5538 3.75198 14.3594C2.80376 16.027 2.45415 17.969 2.76126 19.8629C2.87272 21.5858 2.89748 22.5775 2.08014 23.0609C1.91642 23.1567 1.79719 23.3134 1.74847 23.4968C1.69975 23.6803 1.7255 23.8756 1.82009 24.0401L1.99346 24.35C2.44395 25.3058 3.06509 26.1711 3.82629 26.9034C5.93156 28.1429 10.2783 25.6019 12.0245 24.4863C12.5232 25.3173 12.7507 26.2832 12.6753 27.2497C12.5998 28.2161 12.2251 29.135 11.6034 29.8783C11.531 29.9795 11.486 30.0978 11.473 30.2217C11.4599 30.3456 11.4793 30.4707 11.5291 30.5848C11.5833 30.6957 11.6633 30.7918 11.7625 30.8652C11.8616 30.9385 11.977 30.9869 12.0988 31.0062L15.8883 31.4896H15.9873C16.0887 31.489 16.1887 31.4665 16.2806 31.4237C16.3725 31.381 16.4541 31.3189 16.5199 31.2418C18.0901 29.3729 19.3184 27.2412 20.1483 24.945C20.6561 25.0441 21.1267 25.1185 21.5973 25.1805C21.017 27.096 19.9652 28.835 18.5384 30.2377C18.4532 30.3152 18.3875 30.4117 18.3466 30.5194C18.3057 30.6271 18.2908 30.7429 18.3032 30.8575C18.3185 30.9695 18.3587 31.0766 18.4208 31.171C18.483 31.2654 18.5655 31.3446 18.6623 31.4029C19.5851 31.678 20.5509 31.7788 21.5106 31.7004H22.5013C22.6584 31.6902 22.8091 31.6342 22.9347 31.5392C24.7488 30.0265 26.0473 27.9861 26.6499 25.7011C26.6622 25.6231 26.6622 25.5436 26.6499 25.4656C28.6142 25.4195 30.5418 24.9234 32.2846 24.0153L32.3589 24.0897C32.28 24.1394 32.2119 24.2046 32.1587 24.2812C32.1055 24.3579 32.0683 24.4445 32.0493 24.5359C31.5012 26.6982 30.3803 28.6723 28.8048 30.2501C28.7195 30.3276 28.6538 30.4241 28.6129 30.5318C28.572 30.6395 28.5571 30.7553 28.5695 30.8699C28.582 30.9827 28.6211 31.091 28.6836 31.1858C28.746 31.2806 28.83 31.3592 28.9286 31.4153C29.8512 31.6915 30.8172 31.7924 31.7769 31.7128H32.7552C32.9127 31.7041 33.0638 31.6479 33.1887 31.5516C34.9063 30.1291 36.1681 28.2324 36.8172 26.0977C37.1141 26.1166 37.4119 26.1166 37.7088 26.0977C37.6759 27.4964 37.3643 28.8744 36.7924 30.151C36.7497 30.2465 36.7276 30.35 36.7276 30.4546C36.7276 30.5593 36.7497 30.6628 36.7924 30.7583C36.84 30.8513 36.9083 30.932 36.9921 30.9944C37.0758 31.0567 37.1727 31.0989 37.2754 31.1178C38.1967 31.3407 39.139 31.4654 40.0865 31.4896C41.0896 31.4896 41.3249 31.2418 41.4735 31.1302C41.6268 30.9854 41.7271 30.7934 41.7584 30.5848C44.4829 24.6599 45.6469 19.2432 45.2878 14.6693C45.2305 13.9388 45 13 45 13C44.7126 10.8225 42.8741 6.68551 40.2351 4.43085C33.0648 -1.63042 20.297 -0.229753 8.47027 7.92631C8.40244 7.96368 8.34661 8.01953 8.30928 8.08742C7.41763 7.98826 1.93153 7.50485 0.0863212 10.9259C0.0373838 11.0166 0.00849533 11.1167 0.0016085 11.2196C-0.00527834 11.3224 0.0100036 11.4255 0.046412 11.5219C0.0828203 11.6183 0.139501 11.7057 0.212625 11.7783C0.285749 11.8508 0.373597 11.9068 0.470221 11.9424L0.631219 11.8804ZM22.2536 30.2377C21.6716 30.2377 21.0152 30.2377 20.557 30.2377C21.6879 28.7839 22.5288 27.1258 23.0338 25.354C23.8016 25.4284 24.5323 25.4779 25.2134 25.4779C24.71 27.3188 23.6815 28.9728 22.2536 30.2377ZM32.5076 30.2377C31.9379 30.2377 31.3311 30.2377 30.8109 30.2377C32.0652 28.6604 32.9726 26.8356 33.4735 24.883C34.0823 25.2851 34.7454 25.5981 35.4426 25.8126C34.8844 27.5274 33.8697 29.0573 32.5076 30.2377ZM6.83558 9.35176H6.94705C7.94052 9.35073 8.91135 9.64872 9.73344 10.207C9.79383 10.3271 9.88559 10.4285 9.99898 10.5005C10.1124 10.5726 10.2431 10.6125 10.3774 10.6161C10.4888 10.615 10.5987 10.5896 10.6994 10.5417C10.7846 10.4951 10.8597 10.4321 10.9203 10.3561C10.9809 10.2802 11.0257 10.193 11.0523 10.0995C11.0788 10.006 11.0864 9.9082 11.0747 9.81174C11.0631 9.71527 11.0323 9.6221 10.9842 9.53768C10.7436 9.1367 10.3844 8.82048 9.95635 8.63281C14.8939 5.16013 20.6024 2.9436 26.588 2.17491C31.7769 1.65431 36.3466 2.80706 39.4302 5.42245C45.0897 10.1946 45.4612 19.1564 40.4581 30.0022C39.777 30.012 39.0967 29.9539 38.4271 29.8287C38.8977 28.49 39.5664 26.1101 38.7986 24.8706C38.7244 24.7515 38.6165 24.6573 38.4885 24.5999C38.3606 24.5425 38.2185 24.5246 38.0804 24.5483C37.1706 24.627 36.2547 24.5034 35.3983 24.1862C34.5419 23.8691 33.7662 23.3663 33.1268 22.7138C33.0347 22.6171 32.9179 22.5475 32.7891 22.5125C32.6603 22.4776 32.5244 22.4786 32.3961 22.5155C32.3011 22.488 32.2015 22.4804 32.1035 22.4932C32.0055 22.506 31.9112 22.5389 31.8264 22.5899C30.0184 23.6559 26.5261 24.6723 20.0864 23.408H19.8387C19.6636 23.3735 19.4818 23.4068 19.3302 23.5011C19.1785 23.5954 19.0682 23.7437 19.0214 23.9162C18.3006 26.1277 17.1844 28.1899 15.7273 30.0022L13.4115 29.7047C13.9415 28.7453 14.1933 27.6568 14.1386 26.5618C14.0839 25.4668 13.7249 24.4088 13.1019 23.5071C13.6354 22.984 14.0311 22.3367 14.2536 21.623C14.2813 21.5285 14.2893 21.4293 14.2772 21.3315C14.265 21.2337 14.2329 21.1395 14.1828 21.0547C14.1327 20.9699 14.0658 20.8963 13.9861 20.8385C13.9064 20.7806 13.8157 20.7398 13.7196 20.7185C13.6235 20.6972 13.524 20.6959 13.4274 20.7147C13.3308 20.7335 13.239 20.772 13.1579 20.8278C13.0767 20.8835 13.0079 20.9554 12.9557 21.0389C12.9034 21.1224 12.8689 21.2157 12.8542 21.3132C12.4244 22.1898 11.7814 22.9442 10.9842 23.5071C8.73034 24.8954 5.69626 26.2713 4.61886 25.7011C4.13452 25.1411 3.71878 24.5253 3.38046 23.8666C4.39595 22.8502 4.30926 21.2884 4.21019 19.7637C4.11111 18.2391 3.99966 16.3551 5.12661 14.9296C5.19992 14.8365 5.2495 14.7268 5.27107 14.6102C5.29264 14.4936 5.28556 14.3735 5.25043 14.2603C5.01303 13.4851 4.59508 12.7775 4.03099 12.1956C3.4669 11.6138 2.7728 11.1744 2.00584 10.9135C3.36194 9.80298 5.08664 9.24528 6.83558 9.35176Z" fill="url(#paint0_linear)"/>
<defs>
<linearGradient id="paint0_linear" x1="-6.45432" y1="29.3109" x2="33.7475" y2="-16.8214" gradientUnits="userSpaceOnUse">
<stop stop-color="#8BB35D"/>
<stop offset="0.44" stop-color="#8BB35D"/>
<stop offset="0.75" stop-color="#418F49"/>
<stop offset="1" stop-color="#2D925A"/>
</linearGradient>
</defs>
</svg>
