<svg xmlns="http://www.w3.org/2000/svg" viewBox="0 0 109.3 67.36">
  <g id="Layer_2" data-name="Layer 2">
    <g id="Layer_1-2" data-name="Layer 1">
      <g>
        <path d="M14.16,62.2a2.17,2.17,0,0,1-.91.42,2.12,2.12,0,0,1-1,0,20.16,20.16,0,0,1,2.46,4.27l0,0a20.7,20.7,0,0,0,7.68-2.25v-.17c-.4-.21-.81-.4-1.23-.59A20.76,20.76,0,0,0,14.16,62.2Z" style="fill: #0a6836"/>
        <path d="M12.25,62.59a2.22,2.22,0,0,1-1.65-1.94A20.79,20.79,0,0,0,0,54.75a12.72,12.72,0,0,0,3.91,8.7A12.87,12.87,0,0,0,12.81,67h.55c.46,0,.93,0,1.37-.08l0,0A20.6,20.6,0,0,0,12.25,62.59Z" style="fill: #41ad49"/>
        <path d="M13.18,41.58h-.37A12.74,12.74,0,0,0,0,54.29c0,.15,0,.31,0,.46a20.79,20.79,0,0,1,10.59,5.9c0-.06,0-.13,0-.2v-12a2.21,2.21,0,0,1,2.21-2,2.23,2.23,0,0,1,1.52.59,2.2,2.2,0,0,1,.7,1.46v2h7.39V43.91A20.73,20.73,0,0,0,13.18,41.58Z" style="fill: #004125"/>
        <path d="M15,53.61H13.29v7H15a2.27,2.27,0,0,1-.26.86,2.3,2.3,0,0,1-.59.69,20.76,20.76,0,0,1,7,1.7c.42.18.83.37,1.23.59V53.61Z" style="fill: #004125"/>
        <path d="M34.81,64.93H32l-2.89-3.68H27.31v3.68H24.8V53.7h5.35a4.76,4.76,0,0,1,1.79.31,3.84,3.84,0,0,1,1.32.85,3.41,3.41,0,0,1,.8,1.21,4,4,0,0,1,.26,1.41,5.36,5.36,0,0,1-.1,1.06,2.85,2.85,0,0,1-.4,1,3.28,3.28,0,0,1-.79.83,4.83,4.83,0,0,1-1.32.67l3.1,3.72Zm-7.5-9.08v3.28h2.87a1.93,1.93,0,0,0,.75-.15,1.27,1.27,0,0,0,.51-.38,1.22,1.22,0,0,0,.3-.5,1.49,1.49,0,0,0,.1-.55,2.09,2.09,0,0,0-.1-.6,1.94,1.94,0,0,0-.31-.54,1.65,1.65,0,0,0-1.28-.56Z" style="fill: #004125"/>
        <path d="M44.12,64.93H35.94V53.71h8.18V56H38.41v2.18h5.71v2.18H38.41v2.26h5.71Z" style="fill: #004125"/>
        <path d="M54.16,64.93H46V53.71h8.18V56H48.44v2.18h5.72v2.18H48.44v2.26h5.72Z" style="fill: #004125"/>
        <path d="M63.85,61l-.16-3.52V53.7h2.53V64.93H64.06l-5.61-7.18.1,3.69v3.49H56V53.7h2.16Z" style="fill: #004125"/>
        <path d="M68.15,64.93V53.72h8.22V56h-5.7v2.12H76v2.23H70.67v4.56Z" style="fill: #004125"/>
        <path d="M86.29,64.93H77.7V53.71h8.37V56h-5.9v2.18h5.56v2.18H80.17v2.26h6.12Z" style="fill: #004125"/>
        <path d="M96.32,64.93H87.73V53.71H96.1V56H90.2v2.18h5.56v2.18H90.2v2.26h6.12Z" style="fill: #004125"/>
        <path d="M102.39,53.71a6.31,6.31,0,0,1,2.51.45,4.63,4.63,0,0,1,1.75,1.21,4.87,4.87,0,0,1,1,1.76,6.84,6.84,0,0,1,.33,2.11,7.33,7.33,0,0,1-.32,2.13,5.23,5.23,0,0,1-1,1.82,4.76,4.76,0,0,1-1.75,1.26,6,6,0,0,1-2.54.47H97.76V53.69Zm-2.14,8.91h2.14a3.35,3.35,0,0,0,1.53-.3,2.79,2.79,0,0,0,1-.79,3,3,0,0,0,.5-1.11,5,5,0,0,0,.15-1.22,4.66,4.66,0,0,0-.16-1.18,3.1,3.1,0,0,0-.53-1,2.56,2.56,0,0,0-1-.73,3.4,3.4,0,0,0-1.48-.29h-2.14Z" style="fill: #004125"/>
        <path d="M108,41.58l-4.75,0-1.43-4.49-1.44,4.49-4.74,0,3.78,3-1.53,4.8,3.93-2.91,3.93,2.91-1.53-4.8Z" style="fill: #004125"/>
        <path d="M85.54,41.6l-1.43-4.48L82.67,41.6l-4.74,0,3.78,3-1.54,4.8,3.94-2.91L88,49.41l-1.54-4.8,3.79-3Z" style="fill: #004125"/>
        <path d="M67.83,41.6,66.4,37.12,65,41.6l-4.74,0,3.78,3-1.53,4.8L66.4,46.5l3.93,2.91-1.53-4.8,3.78-3Z" style="fill: #004125"/>
        <path d="M50.13,41.6l-1.44-4.48L47.25,41.6l-4.75,0,3.8,3-1.54,4.8,3.93-2.91,3.93,2.91-1.53-4.8,3.78-3Z" style="fill: #004125"/>
        <path d="M32.42,41.6,31,37.12,29.54,41.6l-4.74,0,3.78,3L27,49.41,31,46.5l3.93,2.91-1.54-4.8,3.79-3Z" style="fill: #004125"/>
        <path d="M2.94,35.16H43.07V32.5H.25Z" style="fill: #b8292f"/>
        <path d="M105.17,35.16H63.5L54,5.39,55.38,0,65.46,32.5h42.39Z" style="fill: #b8292f"/>
        <line x1="108.79" y1="0.72" x2="109.3" y2="67.36" style="fill: none"/>
      </g>
    </g>
  </g>
</svg>
