<svg xmlns="http://www.w3.org/2000/svg" viewBox="0 0 19.27 20.48"><g id="Layer_2" data-name="Layer 2"><g id="Layer_1-2" data-name="Layer 1"><path d="M2.56,12.61a7,7,0,0,0,3.9,1.64,7,7,0,0,0,3.77-.67.11.11,0,0,1,.16,0q3.15,3.18,6.29,6.35a1.75,1.75,0,0,0,.92.53H18a1.64,1.64,0,0,0,.75-.36,1.45,1.45,0,0,0,.47-.83.36.36,0,0,0,0-.1v-.35a1.33,1.33,0,0,0-.05-.19,1.47,1.47,0,0,0-.4-.68l-6.11-6.16-.08-.07c.21-.32.43-.6.61-.91a7,7,0,0,0,1-4.1A7.16,7.16,0,0,0,8.49.13C8.21.08,7.92.05,7.64,0l-.1,0H6.76L6.09.08A7,7,0,0,0,2,2.18a7,7,0,0,0-1.95,4c0,.2,0,.4-.07.6v.78L.06,8A7,7,0,0,0,2.56,12.61ZM7.16,1.94A5.2,5.2,0,1,1,1.94,7.12,5.19,5.19,0,0,1,7.16,1.94Z"/></g></g></svg>