<svg xmlns="http://www.w3.org/2000/svg" viewBox="0 0 34.2 15.09"><defs><style>.cls-1{fill:#fff;}</style></defs><g id="Layer_2" data-name="Layer 2"><g id="Layer_1-2" data-name="Layer 1"><path class="cls-1" d="M22.91.4a2.68,2.68,0,0,0-.54-.3,1,1,0,0,0-.43-.1,1.21,1.21,0,0,0-1,.42,1.18,1.18,0,0,0-.43,1V13.7a.91.91,0,0,0,.11.53c.11.17.11.32.32.45a.88.88,0,0,0,.43.3,1.12,1.12,0,0,0,.54.11,2.12,2.12,0,0,0,.54-.11,2.11,2.11,0,0,0,.43-.3c.1-.13.21-.28.32-.45V1.39a.93.93,0,0,0-.11-.54A.81.81,0,0,0,22.91.4Z"/><path class="cls-1" d="M9.25,12.72a2.38,2.38,0,0,0-.54-.29.75.75,0,0,0-.43-.09H3.87L9.36,3.47a1.59,1.59,0,0,0,.21-.68,1.44,1.44,0,0,0-.11-.69,1.27,1.27,0,0,0-.53-.52,1.25,1.25,0,0,0-.65-.19H1.4a1.7,1.7,0,0,0-.54.09.85.85,0,0,0-.43.31,3.35,3.35,0,0,0-.32.44A.88.88,0,0,0,0,2.75a.88.88,0,0,0,.11.53,4.38,4.38,0,0,0,.32.45A.77.77,0,0,0,.86,4a1.29,1.29,0,0,0,.54.1H5.81L.22,13a1.6,1.6,0,0,0-.22.7,1.56,1.56,0,0,0,.22.69,1,1,0,0,0,.42.51,1.66,1.66,0,0,0,.76.2H8.28a1.12,1.12,0,0,0,.43-.1,2.09,2.09,0,0,0,.54-.3.7.7,0,0,0,.21-.44.91.91,0,0,0,.11-.53.91.91,0,0,0-.11-.53A.73.73,0,0,0,9.25,12.72Z"/><path class="cls-1" d="M18.82,5.87a2.43,2.43,0,0,0-.54-.3,1.23,1.23,0,0,0-.54-.1,1.41,1.41,0,0,0-.64.18,1.87,1.87,0,0,0-.43.45,4.71,4.71,0,0,0-2.26-.6,4.79,4.79,0,1,0,2.26,9,1.39,1.39,0,0,0,.64.54,1.37,1.37,0,0,0,.87,0,1.45,1.45,0,0,0,.75-.49,2.12,2.12,0,0,0,.21-.83V6.86a1,1,0,0,0-.1-.54A.74.74,0,0,0,18.82,5.87Zm-4.41,6.44a2,2,0,1,1,2.05-2.05A2.05,2.05,0,0,1,14.41,12.31Z"/><path class="cls-1" d="M29.47,5.5a4.79,4.79,0,1,0,4.73,4.78A4.81,4.81,0,0,0,29.47,5.5Zm-.11,6.81a2,2,0,1,1,2.05-2.05A2.05,2.05,0,0,1,29.36,12.31Z"/></g></g></svg>