<svg xmlns="http://www.w3.org/2000/svg" xmlns:xlink="http://www.w3.org/1999/xlink" viewBox="0 0 355.72 206.27"><defs><style>.cls-1{fill:#0b4028;opacity:0.6;}.cls-2{fill:url(#linear-gradient);}</style><linearGradient id="linear-gradient" x1="79.3" y1="166.17" x2="246.91" y2="166.17" gradientUnits="userSpaceOnUse"><stop offset="0" stop-color="#93b85c"/><stop offset="0.67" stop-color="#489a55"/><stop offset="1" stop-color="#4b9c58"/></linearGradient></defs><g id="Layer_2" data-name="Layer 2"><g id="Layer_1-2" data-name="Layer 1"><path class="cls-1" d="M200.47,126.07A351.47,351.47,0,0,1,246.91,204a215.05,215.05,0,0,0,108.81-49.38,324.27,324.27,0,0,0-134.88-29.19C214,125.42,207.21,125.66,200.47,126.07Z"/><path class="cls-1" d="M79.3,157.73a323.56,323.56,0,0,1,121.17-31.66A351.79,351.79,0,0,0,0,0,215.45,215.45,0,0,0,79.3,157.73Z"/><path class="cls-2" d="M79.3,157.73a215,215,0,0,0,136.36,48.54A217.48,217.48,0,0,0,246.91,204a351.47,351.47,0,0,0-46.44-77.92A323.56,323.56,0,0,0,79.3,157.73Z"/></g></g></svg>