<svg id="Line1" xmlns="http://www.w3.org/2000/svg" xmlns:xlink="http://www.w3.org/1999/xlink" viewBox="0 0 2 516.5">
    <defs>
    <style>
    #RDots
    {
        stroke-dasharray: 10;
    }
    #BLine
    {
    stroke-dasharray: 1000;
    stroke-dashoffset: 1000;
    animation: dash 4.6s linear;
    animation-fill-mode: forwards;
    }
    @keyframes dash {
    from {
        stroke-dashoffset: 1000;
    }
    to {
        stroke-dashoffset: 0;
    }
    }
    </style>
        <linearGradient id="linear-gradient" y1="258.25" x2="2" y2="258.25" gradientUnits="userSpaceOnUse">
        <stop offset="0" stop-color="#8ab25d"/>
        <stop offset="0.01" stop-color="#8ab25d"/>
        <stop offset="0.67" stop-color="#418e49"/>
        <stop offset="1" stop-color="#2d915a"/>
        </linearGradient>
    </defs>
    <line id="BLine" x1="1" x2="1" y2="516.5" style="fill: none;stroke-miterlimit: 10;stroke-width: 2px;stroke: url(#linear-gradient)"/>
    <path id="RDots" d="M1,513.61a1,1,0,0,1-1-1v-.2a1,1,0,0,1,2,0v-6a1,1,0,0,1-2,0v-.2a1,1,0,0,1,2,0v-6a1,1,0,0,1-2,0V500a1,1,0,0,1,2,0v-6a1,1,0,0,1-2,0v-.2a1,1,0,0,1,2,0v-6a1,1,0,0,1-2,0v-.2a1,1,0,0,1,2,0v-6a1,1,0,0,1-2,0v-.2a1,1,0,0,1,2,0v-6a1,1,0,0,1-2,0v-.2a1,1,0,0,1,2,0v-6a1,1,0,0,1-2,0V469a1,1,0,0,1,2,0v-6a1,1,0,0,1-2,0v-.2a1,1,0,0,1,2,0v-6a1,1,0,0,1-2,0v-.2a1,1,0,0,1,2,0v-6a1,1,0,0,1-2,0v-.2a1,1,0,0,1,2,0v-6a1,1,0,0,1-2,0v-.2a1,1,0,0,1,2,0v-6a1,1,0,0,1-2,0V438a1,1,0,0,1,2,0v-6a1,1,0,0,1-2,0v-.2a1,1,0,0,1,2,0v-6a1,1,0,0,1-2,0v-.2a1,1,0,0,1,2,0v-6a1,1,0,0,1-2,0v-.2a1,1,0,0,1,2,0v-6a1,1,0,0,1-2,0v-.2a1,1,0,0,1,2,0v-6a1,1,0,0,1-2,0V407a1,1,0,0,1,2,0v-6a1,1,0,0,1-2,0v-.2a1,1,0,0,1,2,0v-6a1,1,0,0,1-2,0v-.2a1,1,0,0,1,2,0v-6a1,1,0,0,1-2,0v-.2a1,1,0,0,1,2,0v-6a1,1,0,0,1-2,0v-.2a1,1,0,0,1,2,0v-6a1,1,0,0,1-2,0V376a1,1,0,0,1,2,0v-6a1,1,0,0,1-2,0v-.2a1,1,0,0,1,2,0v-6a1,1,0,0,1-2,0v-.2a1,1,0,0,1,2,0v-6a1,1,0,0,1-2,0v-.2a1,1,0,0,1,2,0v-6a1,1,0,0,1-2,0v-.2a1,1,0,0,1,2,0v-6a1,1,0,0,1-2,0V345a1,1,0,0,1,2,0v-6a1,1,0,0,1-2,0v-.2a1,1,0,0,1,2,0v-6a1,1,0,0,1-2,0v-.2a1,1,0,0,1,2,0v-6a1,1,0,0,1-2,0v-.2a1,1,0,0,1,2,0v-6a1,1,0,0,1-2,0v-.2a1,1,0,0,1,2,0v-6a1,1,0,0,1-2,0V314a1,1,0,0,1,2,0v-6a1,1,0,0,1-2,0v-.2a1,1,0,0,1,2,0v-6a1,1,0,0,1-2,0v-.2a1,1,0,0,1,2,0v-6a1,1,0,0,1-2,0v-.2a1,1,0,0,1,2,0v-6a1,1,0,0,1-2,0v-.2a1,1,0,0,1,2,0v-6a1,1,0,0,1-2,0V283a1,1,0,0,1,2,0v-6a1,1,0,0,1-2,0v-.2a1,1,0,0,1,2,0v-6a1,1,0,0,1-2,0v-.2a1,1,0,0,1,2,0v-6a1,1,0,0,1-2,0v-.2a1,1,0,0,1,2,0v-6a1,1,0,0,1-2,0v-.2a1,1,0,0,1,2,0v-6a1,1,0,0,1-2,0V252a1,1,0,0,1,2,0v-6a1,1,0,0,1-2,0v-.2a1,1,0,0,1,2,0v-6a1,1,0,0,1-2,0v-.2a1,1,0,0,1,2,0v-6a1,1,0,0,1-2,0v-.2a1,1,0,0,1,2,0v-6a1,1,0,0,1-2,0v-.2a1,1,0,0,1,2,0v-6a1,1,0,0,1-2,0V221a1,1,0,0,1,2,0v-6a1,1,0,0,1-2,0v-.2a1,1,0,0,1,2,0v-6a1,1,0,0,1-2,0v-.2a1,1,0,0,1,2,0v-6a1,1,0,0,1-2,0v-.2a1,1,0,0,1,2,0v-6a1,1,0,0,1-2,0v-.2a1,1,0,0,1,2,0v-6a1,1,0,0,1-2,0V190a1,1,0,0,1,2,0v-6a1,1,0,0,1-2,0v-.2a1,1,0,0,1,2,0v-6a1,1,0,0,1-2,0v-.2a1,1,0,0,1,2,0v-6a1,1,0,0,1-2,0v-.2a1,1,0,0,1,2,0v-6a1,1,0,0,1-2,0v-.2a1,1,0,0,1,2,0v-6a1,1,0,0,1-2,0V159a1,1,0,0,1,2,0v-6a1,1,0,0,1-2,0v-.2a1,1,0,0,1,2,0v-6a1,1,0,0,1-2,0v-.2a1,1,0,0,1,2,0v-6a1,1,0,0,1-2,0v-.2a1,1,0,0,1,2,0v-6a1,1,0,0,1-2,0v-.2a1,1,0,0,1,2,0v-6a1,1,0,0,1-2,0V128a1,1,0,0,1,2,0v-6a1,1,0,0,1-2,0v-.2a1,1,0,0,1,2,0v-6a1,1,0,0,1-2,0v-.2a1,1,0,0,1,2,0v-6a1,1,0,0,1-2,0v-.2a1,1,0,0,1,2,0v-6a1,1,0,0,1-2,0v-.2a1,1,0,0,1,2,0v-6a1,1,0,0,1-2,0V97a1,1,0,0,1,2,0V91a1,1,0,0,1-2,0v-.2a1,1,0,0,1,2,0v-6a1,1,0,0,1-2,0v-.2a1,1,0,0,1,2,0v-6a1,1,0,0,1-2,0v-.2a1,1,0,0,1,2,0v-6a1,1,0,0,1-2,0v-.2a1,1,0,0,1,2,0v-6a1,1,0,0,1-2,0V66a1,1,0,0,1,2,0V60a1,1,0,0,1-2,0v-.2a1,1,0,0,1,2,0v-6a1,1,0,0,1-2,0v-.2a1,1,0,0,1,2,0v-6a1,1,0,0,1-2,0v-.2a1,1,0,0,1,2,0v-6a1,1,0,0,1-2,0v-.2a1,1,0,0,1,2,0v-6a1,1,0,0,1-2,0V35a1,1,0,0,1,2,0V29a1,1,0,0,1-2,0v-.2a1,1,0,0,1,2,0v-6a1,1,0,0,1-2,0v-.2a1,1,0,0,1,2,0v-6a1,1,0,0,1-2,0v-.2a1,1,0,0,1,2,0v-6a1,1,0,0,1-2,0v-.2a1,1,0,0,1,2,0v-6a1,1,0,0,1-2,0V4A1,1,0,0,1,2,4V.06H0v516.5H2v-3.95A1,1,0,0,1,1,513.61Z" transform="translate(0 -0.06)" style="fill: #fcfcfc"/>
</svg>