<svg xmlns="http://www.w3.org/2000/svg" viewBox="0 0 23.38 16.81"><defs><style>.cls-1{fill:#fff;fill-rule:evenodd;}</style></defs><g id="Layer_2" data-name="Layer 2"><g id="Layer_1-2" data-name="Layer 1"><path class="cls-1" d="M20.82.49a3,3,0,0,1,2.07,2.14,31.82,31.82,0,0,1,.49,5.77,32,32,0,0,1-.49,5.78,3,3,0,0,1-2.07,2.13c-1.82.5-9.13.5-9.13.5s-7.31,0-9.13-.5A3,3,0,0,1,.49,14.18,32,32,0,0,1,0,8.4,31.82,31.82,0,0,1,.49,2.63,3,3,0,0,1,2.56.49C4.38,0,11.69,0,11.69,0S19,0,20.82.49ZM9.5,5.11v7.31l5.84-3.65Z"/></g></g></svg>