<svg width="34" height="31" viewBox="0 0 34 31" fill="none" xmlns="http://www.w3.org/2000/svg">
<path d="M10.3279 13.1022C10.3279 11.6547 11.021 10.2666 12.2547 9.24303C13.4884 8.21951 15.1616 7.6445 16.9063 7.6445C18.651 7.6445 20.3243 8.21951 21.558 9.24303C22.7917 10.2666 23.4847 11.6547 23.4847 13.1022V16.5884H24.6408V13.1022C24.6408 10.1777 22.2691 7.70944 19.0385 6.94126C19.9078 6.54814 20.5945 5.92599 20.9901 5.17304C21.3858 4.42009 21.4678 3.57925 21.2233 2.7833C20.9788 1.98735 20.4217 1.28165 19.64 0.777628C18.8582 0.273611 17.8964 0 16.9063 0C15.9163 0 14.9544 0.273611 14.1727 0.777628C13.3909 1.28165 12.8339 1.98735 12.5894 2.7833C12.3449 3.57925 12.4269 4.42009 12.8226 5.17304C13.2182 5.92599 13.9049 6.54814 14.7742 6.94126C11.5435 7.71166 9.17188 10.1799 9.17188 13.1022V16.5884H10.3279V13.1022ZM13.6061 3.69537C13.6059 3.15399 13.7994 2.62474 14.1618 2.17456C14.5243 1.72438 15.0396 1.3735 15.6424 1.16629C16.2453 0.95909 16.9086 0.904874 17.5487 1.01051C18.1887 1.11614 18.7765 1.37687 19.2379 1.75972C19.6993 2.14258 20.0134 2.63035 20.1406 3.16135C20.2678 3.69235 20.2023 4.24271 19.9525 4.74283C19.7026 5.24295 19.2796 5.67035 18.7369 5.97098C18.1942 6.2716 17.5562 6.43195 16.9036 6.43173C16.0295 6.43041 15.1917 6.14154 14.5739 5.62848C13.9561 5.11542 13.6088 4.42003 13.6081 3.69482L13.6061 3.69537Z" fill="#333333"/>
<path d="M14.145 11.6719H12.9883V17.2606H14.145V11.6719Z" fill="#333333"/>
<path d="M20.8228 11.6719H19.666V16.8937H20.8228V11.6719Z" fill="#333333"/>
<path d="M7.83147 25.6654L4.52787 27.1063L5.15876 24.0541L2.48539 21.8917L6.18034 21.4465L7.83147 18.6686L8.7333 20.1849L9.77027 19.7598L7.83147 16.5L5.41232 20.5696L0 21.2223L3.91641 24.3888L2.99117 28.8603L7.83147 26.7489L10.2794 27.8168L10.8179 26.967L7.83147 25.6654Z" fill="#333333"/>
<path d="M27.0804 20.7844L20.0511 19.9374L16.9068 14.6523L13.7624 19.9374L6.73242 20.7844L11.8169 24.8979L10.6167 30.7075L16.9054 27.9645L23.1941 30.7075L21.9939 24.8973L27.0804 20.7844ZM16.9068 26.881L12.1568 28.9535L13.064 24.5632L9.21982 21.4549L14.5325 20.815L16.9088 16.8187L19.2851 20.815L24.5977 21.4549L20.7529 24.5632L21.6608 28.9535L16.9068 26.881Z" fill="#333333"/>
<path d="M33.8114 21.2217L28.3997 20.569L25.9792 16.5L24.0405 19.7592L25.0781 20.1844L25.9792 18.668L27.6317 21.446L31.3267 21.8911L28.6533 24.0536L29.2842 27.1057L25.9792 25.6648L22.9941 26.9664L23.5327 27.8162L25.9792 26.7483L30.8202 28.8597L29.8956 24.3882L33.8114 21.2217Z" fill="#333333"/>
</svg>
