<svg width="34" height="31" viewBox="0 0 34 31" fill="none" xmlns="http://www.w3.org/2000/svg">
<path d="M18.8305 7.58509C19.6137 7.14872 20.2298 6.46476 20.5823 5.64048C20.9349 4.81619 21.0038 3.89821 20.7784 3.03052C20.553 2.16282 20.0459 1.39449 19.3368 0.846027C18.6276 0.297567 17.7564 0 16.8599 0C15.9634 0 15.0923 0.297567 14.3831 0.846027C13.674 1.39449 13.1669 2.16282 12.9415 3.03052C12.7161 3.89821 12.785 4.81619 13.1375 5.64048C13.4901 6.46476 14.1062 7.14872 14.8894 7.58509C13.4344 8.01222 12.1566 8.89854 11.2469 10.1117C10.3371 11.3249 9.84422 12.7998 9.8418 14.3162V19.7487H10.9201V14.3162C10.9361 12.7515 11.569 11.2563 12.6811 10.1555C13.7932 9.05467 15.2948 8.43721 16.8596 8.43721C18.4244 8.43721 19.926 9.05467 21.0382 10.1555C22.1503 11.2563 22.7832 12.7515 22.7992 14.3162V19.7487H23.8781V14.3162C23.8757 12.7998 23.3828 11.3249 22.473 10.1117C21.5633 8.89854 20.2855 8.01222 18.8305 7.58509ZM13.8897 4.05138C13.8897 3.46392 14.0639 2.88964 14.3903 2.40119C14.7166 1.91273 15.1805 1.53204 15.7233 1.30723C16.266 1.08242 16.8632 1.02358 17.4394 1.13819C18.0156 1.2528 18.5448 1.5357 18.9602 1.9511C19.3756 2.3665 19.6585 2.89572 19.7731 3.47189C19.8877 4.04806 19.8289 4.6453 19.6041 5.18804C19.3793 5.73079 18.9986 6.19465 18.5101 6.52102C18.0217 6.8474 17.4474 7.02163 16.8599 7.02163C16.0721 7.0208 15.3168 6.70732 14.7599 6.15007C14.203 5.59281 13.89 4.83732 13.8897 4.04949V4.05138Z" fill="#333333"/>
<path d="M14.3752 12.7559H13.2969V30.7071H14.3752V12.7559Z" fill="#333333"/>
<path d="M20.424 12.7559H19.3457V30.7071H20.424V12.7559Z" fill="#333333"/>
<path d="M17.3992 19.748H16.3203V30.708H17.3992V19.748Z" fill="#333333"/>
<path d="M29.6361 11.0265C30.2834 10.6203 30.781 10.0146 31.0538 9.30075C31.3266 8.58693 31.3599 7.80372 31.1486 7.06934C30.9372 6.33496 30.4928 5.68925 29.8822 5.22964C29.2717 4.77003 28.5282 4.52148 27.7641 4.52148C26.9999 4.52148 26.2564 4.77003 25.6459 5.22964C25.0354 5.68925 24.5909 6.33496 24.3795 7.06934C24.1682 7.80372 24.2015 8.58693 24.4743 9.30075C24.7471 10.0146 25.2447 10.6203 25.892 11.0265C25.4711 11.1624 25.0664 11.3443 24.6852 11.5687L25.235 12.4966C25.9896 12.0508 26.8487 11.8124 27.7251 11.8058C28.6016 11.7992 29.4642 12.0244 30.2255 12.4588C30.9868 12.8931 31.6197 13.5211 32.0599 14.2789C32.5002 15.0368 32.7322 15.8977 32.7324 16.7741V21.3917H33.8107V16.7741C33.8088 15.4985 33.4043 14.256 32.6546 13.2239C31.905 12.1918 30.8486 11.4228 29.6361 11.0265ZM27.7641 5.60453C28.2473 5.60453 28.7198 5.74784 29.1217 6.01634C29.5235 6.28485 29.8367 6.6665 30.0216 7.113C30.2066 7.55951 30.255 8.05082 30.1607 8.52483C30.0664 8.99884 29.8337 9.43423 29.4919 9.77597C29.1502 10.1177 28.7148 10.3504 28.2408 10.4447C27.7668 10.539 27.2754 10.4906 26.8289 10.3057C26.3824 10.1207 26.0008 9.80753 25.7323 9.40569C25.4638 9.00384 25.3205 8.53141 25.3205 8.04812C25.3211 7.40014 25.5789 6.77889 26.0371 6.32076C26.4954 5.86262 27.1167 5.60502 27.7647 5.60453H27.7641Z" fill="#333333"/>
<path d="M25.7365 15.4473H24.6582V30.706H25.7365V15.4473Z" fill="#333333"/>
<path d="M30.8758 15.4473H29.7969V30.706H30.8758V15.4473Z" fill="#333333"/>
<path d="M28.3048 21.3926H27.2266V30.7077H28.3048V21.3926Z" fill="#333333"/>
<path d="M9.1564 15.4473H8.07812V30.706H9.1564V15.4473Z" fill="#333333"/>
<path d="M4.01775 15.4473H2.93945V30.706H4.01775V15.4473Z" fill="#333333"/>
<path d="M6.58606 21.3926H5.50781V30.7077H6.58606V21.3926Z" fill="#333333"/>
<path d="M6.04719 4.52735C5.28306 4.52643 4.5394 4.77427 3.92861 5.23343C3.31781 5.69258 2.87307 6.33807 2.66163 7.07236C2.45018 7.80665 2.4835 8.58981 2.75657 9.30348C3.02963 10.0172 3.5276 10.6226 4.17519 11.0282C2.96241 11.4239 1.90567 12.1927 1.15586 13.2248C0.406053 14.2569 0.00151171 15.4994 0 16.7752V21.3927H1.08077V16.7752C1.0809 15.8988 1.31281 15.0381 1.75296 14.2803C2.19311 13.5225 2.82585 12.8945 3.58701 12.4602C4.34816 12.0258 5.21064 11.8005 6.08698 11.8071C6.96332 11.8137 7.82232 12.0519 8.57687 12.4977L9.12724 11.5698C8.74599 11.3455 8.34131 11.1636 7.92043 11.0275C8.56773 10.6218 9.0654 10.0165 9.33827 9.30291C9.61113 8.58936 9.64438 7.8064 9.43296 7.0723C9.22155 6.3382 8.77696 5.69282 8.16638 5.2337C7.55579 4.77458 6.81238 4.52665 6.04844 4.52735H6.04719ZM6.04719 10.4934C5.56389 10.4934 5.09145 10.3501 4.68961 10.0816C4.28776 9.81306 3.97456 9.43144 3.78961 8.98494C3.60466 8.53843 3.55626 8.04709 3.65055 7.57308C3.74483 7.09907 3.97757 6.66369 4.31931 6.32195C4.66105 5.98021 5.09645 5.74748 5.57046 5.65319C6.04447 5.55891 6.5358 5.6073 6.9823 5.79225C7.42881 5.9772 7.81044 6.29039 8.07895 6.69223C8.34745 7.09408 8.49076 7.56653 8.49076 8.04982C8.48977 8.69748 8.23196 9.3183 7.77388 9.77614C7.3158 10.234 6.69485 10.4915 6.04719 10.4921V10.4934Z" fill="#333333"/>
</svg>
