<svg width="21" height="9" viewBox="0 0 21 9" fill="none" xmlns="http://www.w3.org/2000/svg">
<path d="M13.6365 0.23967C13.5375 0.166733 13.4296 0.106747 13.3154 0.0611516C13.2357 0.0225 13.1484 0.00214659 13.0598 0.00162115C12.9481 -0.00589309 12.8362 0.0127859 12.7329 0.0561756C12.6297 0.0995652 12.5381 0.166494 12.4653 0.251583C12.3781 0.322944 12.3093 0.414273 12.2648 0.517854C12.2203 0.621435 12.2013 0.734221 12.2096 0.84667V8.17218C12.1989 8.28152 12.2217 8.3915 12.275 8.48756C12.3404 8.58872 12.3404 8.67799 12.4653 8.75535C12.5331 8.83656 12.6213 8.89818 12.7209 8.93387C12.8219 8.97876 12.9315 9.00109 13.042 8.99932C13.151 8.9886 13.2585 8.96667 13.363 8.93387C13.4549 8.88458 13.5407 8.82467 13.6187 8.75535C13.6876 8.67018 13.7512 8.58074 13.8089 8.48756V0.8288C13.82 0.717531 13.7972 0.605508 13.7435 0.507466C13.7384 0.408809 13.7008 0.314618 13.6365 0.23967Z" fill="black"/>
<path d="M5.51433 7.57046C5.41596 7.49809 5.30785 7.43997 5.19325 7.39786C5.11496 7.35529 5.02666 7.33474 4.93763 7.33837H2.31567L5.57972 2.06591C5.65476 1.94155 5.69764 1.80043 5.70455 1.6553C5.71544 1.51766 5.69513 1.37933 5.64511 1.25065C5.56942 1.11923 5.45816 1.01194 5.3241 0.941193C5.20813 0.868631 5.07439 0.829505 4.93763 0.828125H0.835257C0.726051 0.8285 0.617604 0.846603 0.51418 0.881699C0.414615 0.91739 0.326404 0.979009 0.258566 1.06022C0.188201 1.14433 0.124544 1.23387 0.0682707 1.32801C0.0151262 1.42195 -0.00770727 1.53 0.00287944 1.63743C-0.00856537 1.74681 0.0142834 1.85706 0.0682707 1.95285C0.125999 2.04603 0.189584 2.13547 0.258566 2.22064C0.322583 2.30466 0.412367 2.36528 0.51418 2.3932C0.61569 2.43588 0.725212 2.45616 0.835257 2.4527H3.45722L0.133662 7.71923C0.0575924 7.8457 0.0127696 7.98851 0.00287944 8.1358C0.0145514 8.28088 0.0592801 8.42131 0.133662 8.54638C0.181663 8.67385 0.271937 8.78098 0.389348 8.84988C0.525879 8.92581 0.67908 8.96671 0.835257 8.9689H4.92573C5.01413 8.9669 5.1012 8.94665 5.18142 8.90941C5.29619 8.86509 5.4042 8.80502 5.50242 8.73089C5.57538 8.66169 5.62167 8.56899 5.63321 8.46905C5.68151 8.37135 5.70213 8.26223 5.69272 8.15364C5.70213 8.04504 5.68151 7.93596 5.63321 7.83826C5.62528 7.73803 5.58334 7.64352 5.51433 7.57046Z" fill="black"/>
<path d="M11.2032 3.50708C11.1064 3.43079 10.998 3.37053 10.8822 3.32857C10.7829 3.28545 10.6752 3.26509 10.567 3.26904C10.4324 3.27445 10.3006 3.30899 10.1806 3.37023C10.0824 3.44842 9.99629 3.54063 9.92496 3.64394C9.51522 3.41048 9.05273 3.28555 8.58128 3.28095C8.14701 3.27871 7.71799 3.37592 7.32702 3.56513C6.93604 3.75433 6.59349 4.03052 6.32553 4.37258C6.05758 4.71464 5.8713 5.11351 5.78099 5.53867C5.69069 5.96384 5.69874 6.40403 5.80451 6.82561C5.91028 7.24718 6.11095 7.63897 6.39122 7.97099C6.67148 8.30302 7.02389 8.56648 7.42151 8.74126C7.81913 8.91603 8.25146 8.9975 8.68535 8.97938C9.11925 8.96126 9.54327 8.84404 9.92496 8.63672C10.0167 8.78192 10.1519 8.89438 10.3114 8.95806C10.4772 9.01429 10.6569 9.01429 10.8227 8.95806C10.9979 8.9093 11.1537 8.80744 11.2686 8.66647C11.3434 8.51204 11.3858 8.344 11.3935 8.17258V4.10217C11.404 3.9916 11.3834 3.8803 11.334 3.78084C11.3242 3.67696 11.2778 3.57994 11.2032 3.50708ZM8.58128 7.33944C8.33923 7.33819 8.103 7.26483 7.90276 7.12871C7.70253 6.99258 7.54732 6.79985 7.45693 6.5751C7.36653 6.35035 7.34508 6.10374 7.39524 5.86673C7.44539 5.62971 7.56493 5.41302 7.7386 5.24425C7.91227 5.07549 8.13219 4.96232 8.37037 4.91914C8.60855 4.87597 8.85419 4.90473 9.07596 5.00181C9.29773 5.09889 9.48561 5.25986 9.61564 5.46421C9.74566 5.66857 9.81191 5.90706 9.80601 6.14927C9.79513 6.4697 9.65868 6.77298 9.42614 6.99348C9.1936 7.21398 8.88369 7.33397 8.56343 7.32753L8.58128 7.33944Z" fill="black"/>
<path d="M17.5359 3.26878C16.9712 3.2617 16.4171 3.42285 15.9441 3.73173C15.4711 4.04061 15.1005 4.48329 14.8795 5.00348C14.6585 5.52367 14.597 6.09788 14.7028 6.65315C14.8086 7.20842 15.077 7.71964 15.4738 8.12187C15.8707 8.52409 16.378 8.79913 16.9314 8.91204C17.4848 9.02495 18.0592 8.97066 18.5816 8.756C19.1041 8.54134 19.551 8.17603 19.8656 7.70654C20.1801 7.23704 20.348 6.68454 20.3481 6.11926C20.3451 5.37036 20.049 4.65245 19.5232 4.11957C18.9975 3.58668 18.284 3.28123 17.5359 3.26878ZM17.4705 7.32727C17.2353 7.32727 17.0054 7.25748 16.8099 7.1267C16.6143 6.99593 16.4619 6.81004 16.3719 6.59257C16.2819 6.37509 16.2584 6.1358 16.3043 5.90493C16.3501 5.67406 16.4634 5.46198 16.6297 5.29554C16.796 5.12909 17.0079 5.01573 17.2385 4.96981C17.4692 4.92388 17.7083 4.94747 17.9255 5.03755C18.1428 5.12763 18.3285 5.28015 18.4592 5.47587C18.5898 5.67159 18.6596 5.9017 18.6596 6.1371C18.6522 6.44838 18.5262 6.74504 18.3073 6.96631C18.0884 7.18758 17.7933 7.31673 17.4824 7.32727H17.4705Z" fill="black"/>
</svg>
