<svg width="50" height="32" viewBox="0 0 50 32" fill="none" xmlns="http://www.w3.org/2000/svg">
<g clip-path="url(#clip0)">
<path d="M38.6476 26.8277C37.0981 26.8277 36.3105 25.8343 35.6767 25.0364C35.0604 24.2592 34.6724 23.8144 33.8743 23.8144C33.0762 23.8144 32.6883 24.2543 32.072 25.0364C31.4382 25.8343 30.6506 26.8277 29.1022 26.8277C27.5538 26.8277 26.7651 25.8343 26.1324 25.0364C25.515 24.2592 25.1282 23.8144 24.3301 23.8144C23.532 23.8144 23.1464 24.2543 22.5312 25.0364C21.8986 25.8343 21.111 26.8277 19.5638 26.8277C18.0166 26.8277 17.2267 25.8343 16.594 25.0364C15.9777 24.2592 15.5898 23.8144 14.7917 23.8144C13.9936 23.8144 13.6056 24.2543 12.9893 25.0364C12.3567 25.8343 11.5691 26.8277 10.0196 26.8277C8.43508 26.8277 7.5473 25.7903 6.83428 24.9545C6.23078 24.2494 5.88009 23.8205 5.25212 23.8193C4.08705 23.8193 3.24238 24.594 1.95848 25.761C1.6474 26.0432 1.32002 26.3402 0.964675 26.6469L0 25.4164C0.34952 25.1195 0.662923 24.8311 0.96351 24.561C2.33712 23.3134 3.52666 22.2394 5.24746 22.2308H5.25795C6.53952 22.2308 7.29798 23.1143 7.96556 23.8963C8.58072 24.616 9.11315 25.2404 10.0196 25.2404C10.8176 25.2404 11.2056 24.8005 11.8219 24.0185C12.4546 23.2169 13.2421 22.2271 14.7963 22.2271C16.3505 22.2271 17.1265 23.2169 17.7614 24.0173C18.3778 24.7956 18.7657 25.2392 19.5638 25.2392C20.3619 25.2392 20.7475 24.7993 21.3627 24.0173C21.9953 23.2194 22.7817 22.2259 24.3301 22.2259C25.8785 22.2259 26.6672 23.2194 27.2998 24.0161C27.9162 24.7944 28.3041 25.238 29.1022 25.238C29.9003 25.238 30.2871 24.7981 30.9034 24.0161C31.5372 23.2194 32.3248 22.2259 33.8743 22.2259C35.4239 22.2259 36.2114 23.2194 36.8452 24.0161C37.4616 24.7944 37.8495 25.238 38.6476 25.238C39.4457 25.238 39.8523 24.8018 40.4744 24.0319C41.0966 23.2621 41.8818 22.2907 43.3999 22.2296C44.65 22.1379 45.6357 23.2071 47.1351 24.7749C47.4019 25.0535 47.6897 25.3541 48.0019 25.673L46.9429 26.8143C46.626 26.4917 46.3347 26.1874 46.0632 25.9039C44.89 24.6832 44.0477 23.8279 43.457 23.8181C42.6473 23.8511 42.2558 24.2885 41.6337 25.0584C40.9964 25.8465 40.2053 26.8277 38.6476 26.8277Z" fill="url(#paint0_linear)"/>
<path d="M39.7189 32C38.1693 32 37.3818 31.0066 36.748 30.2086C36.1316 29.4303 35.7437 28.9867 34.9456 28.9867C34.1475 28.9867 33.7596 29.4254 33.1432 30.2086C32.5094 31.0066 31.7219 32 30.1735 32C28.6251 32 27.8364 31.0066 27.2037 30.2086C26.5863 29.4303 26.1994 28.9867 25.4014 28.9867C24.6033 28.9867 24.2177 29.4254 23.6025 30.2086C22.9699 31.0078 22.1823 32.0012 20.6351 32.0012C19.0879 32.0012 18.298 31.0078 17.6653 30.2099C17.049 29.4315 16.661 28.9879 15.863 28.9879C15.0649 28.9879 14.6769 29.4266 14.0606 30.2099C13.428 31.0078 12.6404 32.0012 11.0909 32.0012C9.50637 32.0012 8.61859 30.9626 7.90557 30.128C7.3044 29.4242 6.90594 28.9928 6.32807 28.9928C5.163 28.9928 4.31833 29.7663 3.03326 30.932C2.72335 31.2155 2.3948 31.5137 2.04062 31.8192L1.07129 30.5887C1.42081 30.2917 1.73421 30.0021 2.03596 29.7272C3.40958 28.4808 4.59911 27.4055 6.31991 27.3982H6.32924C7.61081 27.3982 8.36927 28.2829 9.03685 29.0637C9.65201 29.7846 10.1844 30.4078 11.0909 30.4078C11.8889 30.4078 12.2769 29.9679 12.8932 29.1859C13.5259 28.388 14.3134 27.3945 15.863 27.3945C17.4125 27.3945 18.2001 28.388 18.8327 29.1859C19.4491 29.963 19.837 30.4078 20.6351 30.4078C21.4332 30.4078 21.8188 29.9679 22.434 29.1859C23.0666 28.388 23.853 27.3945 25.4014 27.3945C26.9498 27.3945 27.7385 28.388 28.3711 29.1859C28.9875 29.963 29.3754 30.4078 30.1735 30.4078C30.9716 30.4078 31.3584 29.9679 31.9747 29.1859C32.6085 28.388 33.3961 27.3945 34.9456 27.3945C36.4951 27.3945 37.2827 28.388 37.9165 29.1859C38.5328 29.963 38.9208 30.4078 39.7189 30.4078C40.517 30.4078 40.9236 29.9728 41.5457 29.203C42.1679 28.4332 42.9519 27.4605 44.4712 27.4006C45.7376 27.3175 46.707 28.3782 48.1994 29.9447C48.4674 30.2233 48.7563 30.5239 49.0685 30.8428L48.0095 31.9841C47.6926 31.6615 47.4002 31.3573 47.1287 31.0738C45.9566 29.8518 45.1143 29.016 44.5248 28.9965C43.7092 29.0295 43.3224 29.4669 42.6991 30.238C42.0758 31.009 41.2766 32 39.7189 32Z" fill="url(#paint1_linear)"/>
<path d="M6.68522 24.3737C6.48496 24.3734 6.29292 24.2902 6.15088 24.1421C6.00884 23.9941 5.92829 23.7932 5.92676 23.5832V16.1575C5.92676 15.9464 6.00663 15.7439 6.14883 15.5945C6.29104 15.4452 6.48395 15.3611 6.68522 15.3608H26.7558L30.717 11.5263C30.8578 11.3906 31.042 11.3152 31.2332 11.3149H49.2404C49.3423 11.3147 49.4432 11.336 49.5371 11.3776C49.631 11.4192 49.7159 11.4802 49.7868 11.5569C49.8577 11.6337 49.9131 11.7246 49.9498 11.8243C49.9864 11.9241 50.0035 12.0305 50.0001 12.1373C49.9896 12.4733 49.6692 20.4171 43.2147 23.6235C43.0337 23.7069 42.8288 23.713 42.6435 23.6405C42.4583 23.568 42.3073 23.4226 42.2226 23.2351C42.138 23.0477 42.1264 22.8331 42.1902 22.6368C42.2541 22.4405 42.3884 22.2781 42.5646 22.184C47.0559 19.9516 48.1453 14.894 48.4039 12.9071H31.5291L27.5679 16.7428C27.4277 16.8787 27.2438 16.9542 27.0529 16.9542H7.44484V23.5832C7.4433 23.7934 7.36259 23.9945 7.2203 24.1426C7.07801 24.2907 6.88568 24.3737 6.68522 24.3737Z" fill="url(#paint2_linear)"/>
<path d="M36.5921 15.5308H33.1621V17.1242H36.5921V15.5308Z" fill="url(#paint3_linear)"/>
<path d="M42.1663 15.5308H38.7363V17.1242H42.1663V15.5308Z" fill="url(#paint4_linear)"/>
<path d="M13.663 15.8202H12.1484V7.78352C12.1484 7.57222 12.2285 7.36957 12.3709 7.22016C12.5134 7.07075 12.7066 6.98682 12.9081 6.98682H21.1719V8.57533H13.663V15.8202Z" fill="url(#paint5_linear)"/>
<path d="M22.2119 15.8202H20.6973V7.78352C20.6973 7.57222 20.7773 7.36957 20.9198 7.22016C21.0622 7.07075 21.2554 6.98682 21.4569 6.98682H31.3961C31.5975 6.98682 31.7908 7.07075 31.9332 7.22016C32.0757 7.36957 32.1557 7.57222 32.1557 7.78352V12.2191H30.6411V8.58022H22.2119V15.8202Z" fill="url(#paint6_linear)"/>
<path d="M27.5304 7.36215H26.0158V1.58851H19.665V7.36215H18.1504V0.796701C18.1504 0.586247 18.2298 0.38434 18.3712 0.235069C18.5127 0.0857986 18.7047 0.00129113 18.9054 0L26.7719 0C26.8716 -1.23367e-07 26.9703 0.020616 27.0624 0.0606689C27.1545 0.100722 27.2382 0.159426 27.3086 0.233422C27.3791 0.307419 27.4349 0.395256 27.473 0.491909C27.511 0.588562 27.5305 0.692134 27.5304 0.796701V7.36215Z" fill="url(#paint7_linear)"/>
<path d="M35.226 7.36215H33.7114V1.58851H26.6045V0H34.471C34.6723 0.000323753 34.8652 0.0844045 35.0074 0.23378C35.1496 0.383155 35.2295 0.585614 35.2295 0.796701L35.226 7.36215Z" fill="url(#paint8_linear)"/>
<path d="M41.2177 12.1959H39.7032V8.58021H31.3857V6.9917H40.4593C40.6605 6.99202 40.8535 7.0761 40.9957 7.22548C41.1379 7.37485 41.2177 7.57731 41.2177 7.7884V12.1959Z" fill="url(#paint9_linear)"/>
</g>
<defs>
<linearGradient id="paint0_linear" x1="-5.9168" y1="26.4677" x2="-4.25371" y2="14.668" gradientUnits="userSpaceOnUse">
<stop stop-color="#8BB35D"/>
<stop offset="0.44" stop-color="#8BB35D"/>
<stop offset="0.75" stop-color="#418F49"/>
<stop offset="1" stop-color="#2D925A"/>
</linearGradient>
<linearGradient id="paint1_linear" x1="-4.84494" y1="31.641" x2="-3.1795" y2="19.8337" gradientUnits="userSpaceOnUse">
<stop stop-color="#8BB35D"/>
<stop offset="0.44" stop-color="#8BB35D"/>
<stop offset="0.75" stop-color="#418F49"/>
<stop offset="1" stop-color="#2D925A"/>
</linearGradient>
<linearGradient id="paint2_linear" x1="0.494152" y1="23.3525" x2="12.9894" y2="-5.34316" gradientUnits="userSpaceOnUse">
<stop stop-color="#8BB35D"/>
<stop offset="0.44" stop-color="#8BB35D"/>
<stop offset="0.75" stop-color="#418F49"/>
<stop offset="1" stop-color="#2D925A"/>
</linearGradient>
<linearGradient id="paint3_linear" x1="32.7393" y1="16.9995" x2="34.6789" y2="14.1585" gradientUnits="userSpaceOnUse">
<stop stop-color="#8BB35D"/>
<stop offset="0.44" stop-color="#8BB35D"/>
<stop offset="0.75" stop-color="#418F49"/>
<stop offset="1" stop-color="#2D925A"/>
</linearGradient>
<linearGradient id="paint4_linear" x1="38.3135" y1="16.9995" x2="40.2532" y2="14.1585" gradientUnits="userSpaceOnUse">
<stop stop-color="#8BB35D"/>
<stop offset="0.44" stop-color="#8BB35D"/>
<stop offset="0.75" stop-color="#418F49"/>
<stop offset="1" stop-color="#2D925A"/>
</linearGradient>
<linearGradient id="paint5_linear" x1="11.0362" y1="15.1294" x2="21.858" y2="7.60724" gradientUnits="userSpaceOnUse">
<stop stop-color="#8BB35D"/>
<stop offset="0.44" stop-color="#8BB35D"/>
<stop offset="0.75" stop-color="#418F49"/>
<stop offset="1" stop-color="#2D925A"/>
</linearGradient>
<linearGradient id="paint6_linear" x1="19.2849" y1="15.1294" x2="30.741" y2="5.01745" gradientUnits="userSpaceOnUse">
<stop stop-color="#8BB35D"/>
<stop offset="0.44" stop-color="#8BB35D"/>
<stop offset="0.75" stop-color="#418F49"/>
<stop offset="1" stop-color="#2D925A"/>
</linearGradient>
<linearGradient id="paint7_linear" x1="16.9942" y1="6.78639" x2="26.5195" y2="-1.47153" gradientUnits="userSpaceOnUse">
<stop stop-color="#8BB35D"/>
<stop offset="0.44" stop-color="#8BB35D"/>
<stop offset="0.75" stop-color="#418F49"/>
<stop offset="1" stop-color="#2D925A"/>
</linearGradient>
<linearGradient id="paint8_linear" x1="25.5414" y1="6.78639" x2="34.9219" y2="-0.691429" gradientUnits="userSpaceOnUse">
<stop stop-color="#8BB35D"/>
<stop offset="0.44" stop-color="#8BB35D"/>
<stop offset="0.75" stop-color="#418F49"/>
<stop offset="1" stop-color="#2D925A"/>
</linearGradient>
<linearGradient id="paint9_linear" x1="30.1738" y1="11.7889" x2="36.7668" y2="3.31341" gradientUnits="userSpaceOnUse">
<stop stop-color="#8BB35D"/>
<stop offset="0.44" stop-color="#8BB35D"/>
<stop offset="0.75" stop-color="#418F49"/>
<stop offset="1" stop-color="#2D925A"/>
</linearGradient>
<clipPath id="clip0">
<rect width="50" height="32" fill="white"/>
</clipPath>
</defs>
</svg>
