<svg width="53" height="32" viewBox="0 0 53 32" fill="none" xmlns="http://www.w3.org/2000/svg">
<g clip-path="url(#clip0)">
<path fill-rule="evenodd" clip-rule="evenodd" d="M36.2802 12.8906H40.8402V21.2706H36.2802V12.8906ZM37.4202 14.0306V20.1306H39.7002V14.0306H37.4202ZM31.7402 22.4306H45.9602V31.3406H31.7402V22.4306ZM32.8802 23.5706V30.2006H44.8202V23.5706H32.8802Z" fill="url(#paint0_linear)"/>
<path fill-rule="evenodd" clip-rule="evenodd" d="M6.70157 10.6551C6.29901 10.3307 5.87261 10.2751 5.18446 10.28C4.71892 10.2832 4.31639 10.527 3.82854 11.0933C3.50875 11.4645 3.20845 11.9026 2.86034 12.4105C2.65267 12.7134 2.42798 13.0412 2.17199 13.3945L2.16462 13.4046L2.16451 13.4046C1.22119 14.6476 0.937155 16.1813 1.27401 18.4446C1.35247 18.9537 1.35815 19.516 1.36343 20.0379C1.36563 20.2554 1.36776 20.4659 1.37506 20.6626C1.40149 21.3751 1.48949 22.0257 1.79757 22.6297C2.43857 23.8714 2.99989 24.9365 3.58256 25.6954C4.17109 26.4619 4.67859 26.78 5.18045 26.78C5.74972 26.78 6.33599 26.4958 6.89993 25.8875C7.46497 25.278 7.97291 24.376 8.36069 23.2468C8.55564 22.6649 8.59823 21.9977 8.64953 21.1938C8.65228 21.1507 8.65505 21.1072 8.65788 21.0634C8.71151 20.2302 8.78377 19.2839 9.11224 18.3423C9.47647 17.2979 9.37302 16.4008 9.11826 15.5957C8.98878 15.1865 8.82088 14.8034 8.64964 14.4285C8.62635 14.3776 8.60275 14.3262 8.57904 14.2747C8.43465 13.9606 8.28636 13.6381 8.18209 13.3372C7.62476 11.7394 7.13775 11.0065 6.70157 10.6551ZM9.65045 18.53L10.1887 18.7177C10.6544 17.3821 10.5129 16.2242 10.2051 15.2518C10.0534 14.7722 9.86064 14.3359 9.68657 13.9549C9.6609 13.8987 9.63586 13.8441 9.61151 13.7911C9.46505 13.472 9.34359 13.2074 9.25904 12.9634L9.25865 12.9623C8.68605 11.3205 8.11311 10.3284 7.41683 9.76738C6.68689 9.17925 5.90829 9.13485 5.17643 9.14C4.22197 9.14672 3.53451 9.68797 2.96485 10.3492C2.60795 10.7635 2.24374 11.2935 1.86564 11.8438C1.66547 12.1351 1.46141 12.4321 1.25248 12.7206C0.059307 14.2962 -0.215742 16.1806 0.146667 18.614L0.146659 18.614L0.147125 18.617C0.213053 19.0439 0.216972 19.47 0.221375 19.9488C0.223553 20.1858 0.225851 20.4356 0.23584 20.7049C0.264391 21.4744 0.361298 22.3235 0.782773 23.1491L0.782768 23.1491L0.783962 23.1515C1.41269 24.3693 2.0212 25.5337 2.67834 26.3896C3.3298 27.2381 4.1323 27.92 5.18045 27.92C6.16117 27.92 7.0299 27.4241 7.73597 26.6625C8.44062 25.9023 9.01744 24.845 9.43958 23.615L9.44081 23.6114C9.6859 22.8813 9.73687 22.0694 9.78444 21.3116C9.78813 21.2529 9.79179 21.1946 9.79552 21.1366C9.84939 20.2998 9.91713 19.4961 10.1886 18.7177L9.65045 18.53Z" fill="url(#paint1_linear)"/>
<path fill-rule="evenodd" clip-rule="evenodd" d="M5.661 20.2846C6.76192 19.3954 7.08362 18.4879 7.11469 18.1934L8.2484 18.313C8.16959 19.06 7.50094 20.5196 5.661 21.6829V29.4237L27.5386 29.3305L27.5434 30.4705L4.06342 30.5705L4.05857 29.4305L4.521 29.4285V24.3222C2.68105 23.1588 2.0124 21.6993 1.93359 20.9522L3.0673 20.8326C3.09837 21.1272 3.42007 22.0346 4.521 22.9238V18.7205H5.661V20.2846Z" fill="url(#paint2_linear)"/>
<path fill-rule="evenodd" clip-rule="evenodd" d="M13.6835 2.70169C13.7653 2.66808 13.8379 2.63781 13.9087 2.60449L14.3941 3.63599C14.2949 3.68266 14.199 3.72239 14.1163 3.75633C14.1079 3.75978 14.0996 3.76315 14.0916 3.76646C14.0163 3.79732 13.9546 3.8226 13.8956 3.84941C13.7678 3.90742 13.6964 3.95383 13.6457 4.00454C13.5645 4.08568 13.4167 4.2993 13.4214 5.0467L13.4214 5.05024L13.4214 22H12.2814L12.2814 5.05197C12.2762 4.19035 12.4385 3.59952 12.8396 3.19844C13.0301 3.00789 13.243 2.89368 13.4243 2.81138C13.504 2.77523 13.5859 2.74164 13.658 2.71211C13.6667 2.70857 13.6751 2.7051 13.6835 2.70169Z" fill="url(#paint3_linear)"/>
<path fill-rule="evenodd" clip-rule="evenodd" d="M40.1437 26.729L45.8889 29.9429L45.3324 30.9378L38.9792 27.3839L32.5901 30.9772L32.0312 29.9836L37.8133 26.7317L32.0324 23.4978L32.5889 22.5029L38.9777 26.0768L45.3312 22.5036L45.8901 23.4972L40.1437 26.729Z" fill="url(#paint4_linear)"/>
<path fill-rule="evenodd" clip-rule="evenodd" d="M20.3755 16.2295L25.9558 19.1428L28.0507 21.8661V30.3482L13.615 30.3917L13.5748 25.092L11.5977 24.9916L11.6119 22.4147L14.7129 19.0768L20.3755 16.2295ZM15.4084 20.0031L12.7494 22.8652L12.7437 23.9083L14.7066 24.0079L14.7463 29.2482L26.9107 29.2117V22.2538L25.2055 20.0371L20.3658 17.5104L15.4084 20.0031Z" fill="url(#paint5_linear)"/>
<path fill-rule="evenodd" clip-rule="evenodd" d="M17.7402 25H23.5402V30.14H17.7402V25ZM18.7402 26V29.14H22.5402V26H18.7402Z" fill="url(#paint6_linear)"/>
<path fill-rule="evenodd" clip-rule="evenodd" d="M18.9004 19.7998H22.0004V23.3798H18.9004V19.7998ZM19.9004 20.7998V22.3798H21.0004V20.7998H19.9004Z" fill="url(#paint7_linear)"/>
<path fill-rule="evenodd" clip-rule="evenodd" d="M38.178 6.83203L48.9707 11.3412L52.3798 20.7524L50.1885 20.7748L50.1584 31.4517L26.9506 31.4096L26.9405 20.6291L24.252 20.4761L27.5792 11.3431L38.178 6.83203ZM38.1821 8.06924L28.4809 12.1982L25.8481 19.4251L28.0795 19.5521L28.0895 30.2717L49.0216 30.3096L49.0516 19.6464L50.7603 19.6289L48.0694 12.2001L38.1821 8.06924Z" fill="url(#paint8_linear)"/>
<path fill-rule="evenodd" clip-rule="evenodd" d="M11.0619 29.33V3.3181C11.0787 2.8001 11.5397 2.25633 12.6277 1.8145C13.6761 1.38878 15.1031 1.15262 16.5536 1.1387C18.0055 1.12477 19.4176 1.33409 20.4402 1.74974C21.4918 2.17718 21.931 2.72479 21.9219 3.3009V17.3687L23.0619 17.8247V3.31426C23.0801 2.00812 22.0468 1.17219 20.8695 0.693648C19.6617 0.202732 18.087 -0.0160682 16.5427 -0.00124936C14.9969 0.0135824 13.4183 0.263049 12.1988 0.758265C11.0235 1.23556 9.95384 2.04539 9.92206 3.29549L9.92188 3.30273V30.47H21V29.33H11.0619Z" fill="url(#paint9_linear)"/>
<path fill-rule="evenodd" clip-rule="evenodd" d="M17.6699 24.9307H23.6099V30.2107H17.6699V24.9307ZM18.8099 26.0707V29.0707H22.4699V26.0707H18.8099Z" fill="url(#paint10_linear)"/>
</g>
<defs>
<linearGradient id="paint0_linear" x1="29.9875" y1="29.8977" x2="49.825" y2="19.4941" gradientUnits="userSpaceOnUse">
<stop stop-color="#8BB35D"/>
<stop offset="0.44" stop-color="#8BB35D"/>
<stop offset="0.75" stop-color="#418F49"/>
<stop offset="1" stop-color="#2D925A"/>
</linearGradient>
<linearGradient id="paint1_linear" x1="-1.29506" y1="26.4513" x2="15.0096" y2="20.2538" gradientUnits="userSpaceOnUse">
<stop stop-color="#8BB35D"/>
<stop offset="0.44" stop-color="#8BB35D"/>
<stop offset="0.75" stop-color="#418F49"/>
<stop offset="1" stop-color="#2D925A"/>
</linearGradient>
<linearGradient id="paint2_linear" x1="-1.22312" y1="29.6025" x2="14.0515" y2="8.09689" gradientUnits="userSpaceOnUse">
<stop stop-color="#8BB35D"/>
<stop offset="0.44" stop-color="#8BB35D"/>
<stop offset="0.75" stop-color="#418F49"/>
<stop offset="1" stop-color="#2D925A"/>
</linearGradient>
<linearGradient id="paint3_linear" x1="12.0208" y1="22.9354" x2="15.7631" y2="22.6914" gradientUnits="userSpaceOnUse">
<stop stop-color="#8BB35D"/>
<stop offset="0.44" stop-color="#8BB35D"/>
<stop offset="0.75" stop-color="#418F49"/>
<stop offset="1" stop-color="#2D925A"/>
</linearGradient>
<linearGradient id="paint4_linear" x1="30.323" y1="30.3145" x2="41.3362" y2="18.0589" gradientUnits="userSpaceOnUse">
<stop stop-color="#8BB35D"/>
<stop offset="0.44" stop-color="#8BB35D"/>
<stop offset="0.75" stop-color="#418F49"/>
<stop offset="1" stop-color="#2D925A"/>
</linearGradient>
<linearGradient id="paint5_linear" x1="9.56963" y1="29.2841" x2="27.5801" y2="15.0465" gradientUnits="userSpaceOnUse">
<stop stop-color="#8BB35D"/>
<stop offset="0.44" stop-color="#8BB35D"/>
<stop offset="0.75" stop-color="#418F49"/>
<stop offset="1" stop-color="#2D925A"/>
</linearGradient>
<linearGradient id="paint6_linear" x1="17.0253" y1="29.738" x2="23.5156" y2="24.7546" gradientUnits="userSpaceOnUse">
<stop stop-color="#8BB35D"/>
<stop offset="0.44" stop-color="#8BB35D"/>
<stop offset="0.75" stop-color="#418F49"/>
<stop offset="1" stop-color="#2D925A"/>
</linearGradient>
<linearGradient id="paint7_linear" x1="18.5183" y1="23.0998" x2="22.6114" y2="20.6881" gradientUnits="userSpaceOnUse">
<stop stop-color="#8BB35D"/>
<stop offset="0.44" stop-color="#8BB35D"/>
<stop offset="0.75" stop-color="#418F49"/>
<stop offset="1" stop-color="#2D925A"/>
</linearGradient>
<linearGradient id="paint8_linear" x1="20.7849" y1="29.5263" x2="51.9698" y2="5.28286" gradientUnits="userSpaceOnUse">
<stop stop-color="#8BB35D"/>
<stop offset="0.44" stop-color="#8BB35D"/>
<stop offset="0.75" stop-color="#418F49"/>
<stop offset="1" stop-color="#2D925A"/>
</linearGradient>
<linearGradient id="paint9_linear" x1="8.30219" y1="28.0869" x2="29.8223" y2="21.7723" gradientUnits="userSpaceOnUse">
<stop stop-color="#8BB35D"/>
<stop offset="0.44" stop-color="#8BB35D"/>
<stop offset="0.75" stop-color="#418F49"/>
<stop offset="1" stop-color="#2D925A"/>
</linearGradient>
<linearGradient id="paint10_linear" x1="16.9377" y1="29.7977" x2="23.5996" y2="24.6981" gradientUnits="userSpaceOnUse">
<stop stop-color="#8BB35D"/>
<stop offset="0.44" stop-color="#8BB35D"/>
<stop offset="0.75" stop-color="#418F49"/>
<stop offset="1" stop-color="#2D925A"/>
</linearGradient>
<clipPath id="clip0">
<rect width="52.37" height="31.45" fill="white"/>
</clipPath>
</defs>
</svg>
