<svg width="39" height="42" viewBox="0 0 39 42" fill="none" xmlns="http://www.w3.org/2000/svg">
<path d="M30.1946 19.8057C30.1946 19.4412 30.1035 18.9856 30.1035 18.9856C30.0124 17.9832 29.1011 15.9785 27.8254 14.885C26.4585 13.7004 24.636 13.0625 22.449 13.0625C19.4419 13.0625 16.0703 14.2471 12.8809 16.4341C12.8809 16.4341 12.8809 16.4341 12.7898 16.4341C12.6075 16.4341 12.4253 16.4341 12.1519 16.4341C11.2406 16.4341 9.6004 16.6164 8.8714 17.8921C8.8714 17.9832 8.78027 18.0744 8.78027 18.0744C8.78027 18.1655 8.78027 18.2566 8.78027 18.2566C8.78027 18.3477 8.8714 18.3477 8.8714 18.4389C8.96252 18.53 8.96252 18.53 9.05364 18.53H9.14477C10.056 18.8945 10.2383 19.1679 10.4205 19.4412C9.96489 20.2614 9.87377 21.1726 9.96489 21.9927C10.056 22.8129 10.056 23.1774 9.78265 23.2685C9.69152 23.3596 9.60039 23.4507 9.50927 23.5419C9.50927 23.633 9.50927 23.8152 9.6004 23.9064L9.69152 23.9975C9.87377 24.4531 10.2383 24.9087 10.6028 25.2732C10.785 25.3644 11.0584 25.4555 11.3318 25.4555C12.243 25.4555 13.5188 24.8176 14.43 24.2709C14.6123 24.5442 14.6123 24.9087 14.6123 25.2732C14.6123 25.7289 14.43 26.0934 14.1566 26.3667C14.0655 26.4579 14.0655 26.549 14.0655 26.6401C14.0655 26.7312 14.0655 26.8224 14.0655 26.9135C14.0655 27.0046 14.1566 27.0957 14.2478 27.0957C14.3389 27.1869 14.43 27.1869 14.5211 27.1869L16.3436 27.3691C16.4348 27.3691 16.5259 27.3691 16.5259 27.278C16.617 27.278 16.617 27.1869 16.7081 27.1869C17.4371 26.3667 17.9839 25.3644 18.3484 24.362C18.4395 24.362 18.5306 24.362 18.6218 24.4531C18.3484 25.2732 17.8928 25.9111 17.346 26.549C17.2549 26.6401 17.2549 26.6401 17.2549 26.7312C17.2549 26.8224 17.2549 26.9135 17.2549 27.0046C17.2549 27.0957 17.2549 27.1869 17.346 27.1869C17.346 27.278 17.4371 27.278 17.5283 27.3691C17.8928 27.4602 18.2573 27.5514 18.6218 27.5514C18.7129 27.5514 18.804 27.5514 18.8951 27.5514H19.3508C19.4419 27.5514 19.533 27.5514 19.6241 27.4602C20.4443 26.7312 21.0821 25.82 21.3555 24.6354C22.0845 24.6354 22.8135 24.4531 23.4514 24.1797C23.178 25.091 22.7224 25.9111 22.0845 26.549C21.9934 26.6401 21.9934 26.6401 21.9023 26.7312C21.9023 26.8224 21.9023 26.9135 21.9023 27.0046C21.9023 27.0957 21.9023 27.1869 21.9934 27.1869C21.9934 27.278 22.0845 27.278 22.1756 27.3691C22.5401 27.4602 22.9046 27.5514 23.2691 27.5514C23.3603 27.5514 23.4514 27.5514 23.5425 27.5514H23.9981C24.0893 27.5514 24.1804 27.5514 24.2715 27.4602C25.0916 26.8224 25.6384 25.9111 26.0029 24.9999H26.094C26.094 25.5466 25.9118 26.0934 25.7295 26.6401C25.7295 26.7312 25.7295 26.8224 25.7295 26.8224C25.7295 26.9135 25.7295 27.0046 25.8206 27.0046C25.8206 27.0957 25.9118 27.0957 26.0029 27.1869C26.094 27.278 26.094 27.278 26.1851 27.278C26.6408 27.3691 27.0964 27.4602 27.552 27.4602C28.0076 27.4602 28.1899 27.3691 28.281 27.278C28.3721 27.1869 28.4633 27.0957 28.4633 27.0046C29.8301 24.5442 30.3769 21.9927 30.1946 19.8057ZM27.1875 24.4531C27.0964 24.362 27.0964 24.2709 27.0053 24.2709C26.9141 24.2709 26.9141 24.2709 26.823 24.2709H26.7319C26.6408 24.2709 26.5496 24.2709 26.4585 24.2709C26.094 24.2709 25.8206 24.1797 25.5473 24.0886C25.1828 23.9064 24.8183 23.7241 24.5449 23.4507C24.4538 23.3596 24.3626 23.3596 24.2715 23.2685H24.1804H24.0893C24.0893 23.2685 23.9981 23.2685 23.907 23.2685C23.8159 23.2685 23.7248 23.2685 23.7248 23.3596C22.9958 23.8152 22.0845 23.9975 20.8999 23.9975C20.1709 23.9975 19.3508 23.9064 18.3484 23.7241H18.2573H18.1661C18.075 23.7241 17.9839 23.7241 17.8928 23.8152C17.8016 23.9064 17.7105 23.9975 17.7105 24.0886C17.4371 25.091 16.8904 26.0022 16.2525 26.7312L15.5235 26.6401C15.7058 26.1845 15.7969 25.82 15.7969 25.3644C15.7969 24.9087 15.6146 24.362 15.3413 23.9975C15.5235 23.7241 15.7058 23.4507 15.7969 23.1774C15.7969 23.0862 15.7969 22.9951 15.7969 22.9951C15.7969 22.904 15.7969 22.8129 15.7058 22.8129C15.7058 22.7217 15.6146 22.7217 15.5235 22.6306C15.4324 22.6306 15.4324 22.5395 15.3413 22.5395H15.2501H15.159C15.0679 22.5395 14.9768 22.5395 14.9768 22.6306C14.8856 22.6306 14.8856 22.7217 14.7945 22.8129C14.7945 22.904 14.7034 22.904 14.7034 22.9951C14.5211 23.3596 14.2478 23.7241 13.8833 23.9064C13.0631 24.4531 11.8785 24.9999 11.3318 24.9999C11.2406 24.9999 11.2406 24.9999 11.1495 24.9999C10.9673 24.8176 10.785 24.5442 10.6939 24.2709C11.1495 23.7241 11.0584 22.9951 11.0584 22.3572C11.0584 21.7194 10.9673 20.8081 11.4229 20.2614C11.514 20.1702 11.514 20.0791 11.514 20.0791C11.514 19.988 11.514 19.8969 11.514 19.8057C11.4229 19.4412 11.1495 19.0767 10.8761 18.8034C10.6939 18.6211 10.4205 18.4389 10.1471 18.2566C10.6028 17.8921 11.2406 17.7099 11.7874 17.7099C11.8785 17.7099 11.8785 17.7099 12.0608 17.7099C12.4253 17.7099 12.8809 17.801 13.2454 18.0744C13.2454 18.1655 13.3365 18.1655 13.4276 18.2566C13.6099 18.0744 13.7921 18.0744 13.8833 18.0744C13.9744 18.0744 14.0655 18.0744 14.1566 17.9832C14.2478 17.9832 14.2478 17.8921 14.3389 17.8921C14.3389 17.801 14.43 17.801 14.43 17.7099C14.43 17.6187 14.43 17.6187 14.43 17.5276C14.43 17.4365 14.43 17.4365 14.3389 17.3454C14.2478 17.2542 14.1566 17.072 14.0655 16.9809C16.2525 15.5229 18.804 14.5205 21.4466 14.156C21.8111 14.156 22.1756 14.0649 22.5401 14.0649C24.4538 14.0649 26.094 14.6116 27.2786 15.614C29.8301 17.801 30.0124 21.8105 27.7343 26.7312C27.552 26.7312 27.3698 26.7312 27.1875 26.7312C27.3698 25.9111 27.552 24.9999 27.1875 24.4531ZM25.2739 25.091C25.0005 25.7289 24.636 26.3667 24.0893 26.8224H23.7248C24.1804 26.1845 24.4538 25.5466 24.7271 24.8176C24.8183 24.9087 25.0005 24.9999 25.2739 25.091ZM20.4443 24.9999C20.1709 25.7289 19.8064 26.3667 19.2596 26.8224H18.8951C19.2596 26.2756 19.6241 25.6377 19.8064 24.9087C20.0798 24.9999 20.262 24.9999 20.4443 24.9999Z" fill="url(#paint0_linear)"/>
<path d="M38.1223 38.031L36.3909 32.7457C36.2998 32.4724 36.2998 32.199 36.2998 31.9256C36.7554 27.825 37.0288 24.18 36.9377 20.535C36.9377 16.7078 36.7554 12.9716 36.2087 8.77989C36.2087 8.50651 36.2087 8.23314 36.2998 7.95976L37.94 2.94789C38.2134 2.12777 38.0312 1.30764 37.3933 0.669768C36.8465 0.123019 35.9353 -0.150356 35.1152 0.123019L31.4702 1.30764C30.6501 1.58102 29.8299 1.67214 29.0098 1.48989C25.4559 0.852018 22.4488 0.487518 19.5328 0.487518C16.6168 0.487518 13.5186 0.852018 10.0558 1.48989C9.2357 1.67214 8.32445 1.58102 7.59545 1.30764L3.95045 0.123019C3.13033 -0.150356 2.3102 0.0318939 1.67233 0.669768C1.03445 1.30764 0.852204 2.12777 1.12558 2.94789L2.76583 7.95976C2.85695 8.23314 2.85695 8.50651 2.85695 8.77989C2.40133 12.9716 2.12795 16.7078 2.12795 20.535C2.12795 24.2711 2.31021 27.9161 2.76583 32.0167C2.76583 32.2901 2.76582 32.5635 2.6747 32.8369L0.943331 38.1221C0.669957 38.9422 0.852205 39.7624 1.49008 40.4002C1.9457 40.8559 2.49245 41.0381 3.0392 41.0381C3.31258 41.0381 3.49483 41.0381 3.7682 40.947L8.32445 39.3979C8.5067 39.3067 8.68895 39.3067 8.8712 39.3979C12.8807 40.218 16.2523 40.5825 19.5328 40.5825C22.8133 40.5825 26.1849 40.218 30.1944 39.3979C30.3767 39.3979 30.5589 39.3979 30.7412 39.3979L35.2974 40.947C36.1175 41.2204 36.9377 41.0381 37.5755 40.4002C38.1223 39.6712 38.3045 38.8511 38.1223 38.031ZM36.7554 39.489C36.5732 39.6712 36.2998 39.8535 35.9353 39.8535C35.8442 39.8535 35.6619 39.8535 35.5708 39.7624L31.0146 38.2132C30.8323 38.1221 30.5589 38.1221 30.3767 38.1221C30.2856 38.1221 30.1033 38.1221 30.0122 38.1221C26.0938 38.9422 22.7222 39.3067 19.5328 39.3067C16.3434 39.3067 13.0629 38.9422 9.05344 38.1221C8.87119 38.1221 8.78007 38.1221 8.59782 38.1221C8.41557 38.1221 8.1422 38.1221 7.95995 38.2132L3.4037 39.7624C3.31258 39.7624 3.13033 39.8535 3.0392 39.8535C2.76583 39.8535 2.49245 39.7624 2.21907 39.489C1.9457 39.2156 1.85458 38.76 1.9457 38.3955L3.67708 33.1102C3.7682 32.7457 3.85933 32.2901 3.7682 31.8345C3.31258 27.825 3.13032 24.18 3.13032 20.535C3.13032 16.7989 3.31258 13.0628 3.85933 8.96214C3.95045 8.50651 3.85933 8.14201 3.7682 7.68639L2.12795 2.67452C2.03683 2.31002 2.12795 1.85439 2.40133 1.58102C2.58358 1.39877 2.85695 1.21652 3.22145 1.21652C3.31258 1.21652 3.49482 1.21652 3.58595 1.30764L7.23095 2.49227C7.86882 2.67452 8.5067 2.76564 9.14457 2.76564C9.50907 2.76564 9.87357 2.76564 10.2381 2.67452C13.7008 2.03664 16.6168 1.76327 19.5328 1.76327C22.4488 1.76327 25.3648 2.03664 28.8276 2.67452C29.1921 2.76564 29.5566 2.76564 29.9211 2.76564C30.5589 2.76564 31.1968 2.67452 31.8347 2.49227L35.4797 1.30764C35.5708 1.30764 35.753 1.21652 35.8442 1.21652C36.1175 1.21652 36.3909 1.30764 36.6643 1.58102C36.9377 1.85439 37.0288 2.31002 36.9377 2.67452L35.2974 7.68639C35.1152 8.14201 35.1152 8.50651 35.2063 8.96214C35.6619 13.0628 35.9353 16.7989 35.9353 20.535C35.9353 24.18 35.753 27.825 35.2974 31.8345C35.2063 32.2901 35.2974 32.6546 35.3885 33.1102L37.1199 38.3955C37.211 38.76 37.0288 39.2156 36.7554 39.489Z" fill="url(#paint1_linear)"/>
<defs>
<linearGradient id="paint0_linear" x1="6.13651" y1="26.4183" x2="25.0734" y2="7.34328" gradientUnits="userSpaceOnUse">
<stop stop-color="#8BB35D"/>
<stop offset="0.44" stop-color="#8BB35D"/>
<stop offset="0.75" stop-color="#418F49"/>
<stop offset="1" stop-color="#2D925A"/>
</linearGradient>
<linearGradient id="paint1_linear" x1="-3.78602" y1="37.8581" x2="44.2654" y2="8.10694" gradientUnits="userSpaceOnUse">
<stop stop-color="#8BB35D"/>
<stop offset="0.44" stop-color="#8BB35D"/>
<stop offset="0.75" stop-color="#418F49"/>
<stop offset="1" stop-color="#2D925A"/>
</linearGradient>
</defs>
</svg>
