<svg width="48" height="41" viewBox="0 0 48 41" fill="none" xmlns="http://www.w3.org/2000/svg">
<path d="M47.9904 4.67881C47.9736 4.56512 47.9349 4.45593 47.8765 4.35754C47.8181 4.25914 47.7411 4.17348 47.65 4.10549C47.5589 4.03751 47.4555 3.98854 47.3457 3.96141C47.2359 3.93428 47.1219 3.92953 47.0103 3.94742L42.8218 4.60533L43.8053 1.43129C43.846 1.3202 43.8641 1.20185 43.8585 1.08342C43.8529 0.964991 43.8237 0.848954 43.7727 0.742359C43.7217 0.635763 43.6499 0.540833 43.5617 0.463334C43.4736 0.385835 43.3708 0.327384 43.2598 0.291532C43.1487 0.25568 43.0316 0.243175 42.9157 0.254776C42.7997 0.266377 42.6873 0.301842 42.5852 0.359017C42.4832 0.416192 42.3936 0.493884 42.3219 0.587374C42.2503 0.680865 42.198 0.788202 42.1684 0.902868L41.1023 4.33587C40.2371 3.87977 39.2775 3.63986 38.3031 3.63597C37.4376 3.63347 36.5816 3.81956 35.7927 4.18173C35.0038 4.5439 34.3003 5.07375 33.7293 5.73566C32.2747 7.42941 28.3647 9.25615 23.2132 9.25615C18.0618 9.25615 14.1518 7.42591 12.6971 5.73216C12.1265 5.06989 11.423 4.5398 10.634 4.1776C9.84502 3.8154 8.98892 3.62951 8.12338 3.63247C6.97348 3.63416 5.84727 3.96524 4.87363 4.58783V0.874872C4.87363 0.642841 4.78306 0.420314 4.62183 0.256244C4.4606 0.0921737 4.24192 0 4.01391 0C3.7859 0 3.56723 0.0921737 3.406 0.256244C3.24477 0.420314 3.15419 0.642841 3.15419 0.874872V3.94742L1.32126 2.7611C1.12892 2.642 0.89833 2.60444 0.679061 2.65649C0.459792 2.70854 0.26934 2.84605 0.148635 3.03947C0.0279286 3.23288 -0.0133972 3.46677 0.0335383 3.69086C0.0804737 3.91495 0.211924 4.11136 0.39964 4.23788L3.27111 6.09961C2.49708 7.14951 2.10277 8.43906 2.15477 9.75053C2.20677 11.062 2.70189 12.315 3.55654 13.2981C6.71 16.9725 11.7377 19.5166 17.5734 20.5175C17.5374 20.6148 17.5188 20.7179 17.5184 20.822V28.0624C17.5222 28.8888 17.7432 29.6992 18.1587 30.4093C18.5741 31.1195 19.1688 31.7035 19.8809 32.1008V40.1251C19.8809 40.3572 19.9715 40.5797 20.1327 40.7438C20.294 40.9078 20.5127 41 20.7407 41C20.9687 41 21.1874 40.9078 21.3486 40.7438C21.5098 40.5797 21.6004 40.3572 21.6004 40.1251V30.939L21.0467 30.7255C20.5163 30.5192 20.0597 30.1545 19.7368 29.6791C19.414 29.2038 19.24 28.6402 19.2379 28.0624V20.8255C19.2379 20.801 19.2379 20.78 19.2379 20.7555C19.7365 20.815 20.2386 20.8639 20.7475 20.8989V25.1683C20.7475 25.4003 20.8381 25.6229 20.9993 25.7869C21.1606 25.951 21.3793 26.0432 21.6073 26.0432C21.8353 26.0432 22.054 25.951 22.2152 25.7869C22.3764 25.6229 22.467 25.4003 22.467 25.1683V20.9969C22.718 20.9969 22.9691 20.9969 23.2201 20.9969C23.4711 20.9969 23.7222 20.9969 23.9732 20.9969V25.1963C23.9732 25.4283 24.0638 25.6509 24.225 25.8149C24.3863 25.979 24.6049 26.0712 24.8329 26.0712C25.061 26.0712 25.2796 25.979 25.4409 25.8149C25.6021 25.6509 25.6927 25.4283 25.6927 25.1963V20.8989C26.2016 20.8639 26.7037 20.815 27.2058 20.7555C27.2041 20.7788 27.2041 20.8022 27.2058 20.8255V28.0624C27.2018 28.6421 27.0252 29.207 26.6991 29.6825C26.3731 30.158 25.9131 30.5216 25.3797 30.7255L24.8261 30.939V40.1251C24.8261 40.3572 24.9166 40.5797 25.0779 40.7438C25.2391 40.9078 25.4578 41 25.6858 41C25.9138 41 26.1325 40.9078 26.2937 40.7438C26.4549 40.5797 26.5455 40.3572 26.5455 40.1251V32.1008C27.2583 31.704 27.8537 31.1201 28.2697 30.41C28.6858 29.6998 28.9074 28.8892 28.9115 28.0624V20.8255C28.91 20.7212 28.8902 20.6181 28.853 20.521C34.6991 19.5201 39.7164 16.9795 42.8699 13.3016C43.6955 12.3495 44.1862 11.1448 44.2647 9.87759C44.3431 8.61034 44.0049 7.35256 43.3032 6.30258L47.2717 5.67967C47.3836 5.66218 47.4909 5.62239 47.5876 5.56258C47.6844 5.50277 47.7685 5.42411 47.8353 5.33113C47.9021 5.23814 47.9501 5.13265 47.9768 5.02071C48.0034 4.90877 48.008 4.79258 47.9904 4.67881ZM41.5734 12.1502C37.7632 16.5946 30.8991 19.2472 23.2132 19.2472C15.5273 19.2472 8.66329 16.5946 4.853 12.1502C4.5007 11.7472 4.23321 11.2751 4.06702 10.7629C3.90083 10.2508 3.83945 9.70939 3.88667 9.17216C3.93615 8.62697 4.09395 8.0977 4.35051 7.61646C4.60706 7.13521 4.95702 6.71202 5.37915 6.37257C6.16141 5.7405 7.1314 5.39748 8.13026 5.39971C8.74959 5.39478 9.36273 5.52533 9.92815 5.78254C10.4936 6.03974 10.9981 6.41759 11.4075 6.89049C12.194 7.74458 13.1261 8.4465 14.1586 8.96219C13.3092 9.41012 12.3051 10.327 12.0403 12.1922C12.0245 12.3072 12.054 12.4239 12.1222 12.5169C12.1904 12.6099 12.292 12.6718 12.4048 12.6891H12.4667C12.57 12.6887 12.6697 12.6507 12.7479 12.582C12.826 12.5134 12.8776 12.4186 12.8931 12.3147C13.1889 10.215 14.5919 9.62359 15.2144 9.46262C16.1941 9.88079 17.2078 10.211 18.244 10.4495C17.5334 11.5097 17.1788 12.7753 17.233 14.0574C17.2374 14.1695 17.2843 14.2754 17.3638 14.353C17.4433 14.4307 17.5492 14.474 17.6594 14.4739H17.6801C17.7364 14.4716 17.7917 14.4581 17.8428 14.4339C17.8939 14.4098 17.9399 14.3756 17.9779 14.3333C18.016 14.291 18.0454 14.2414 18.0645 14.1875C18.0836 14.1335 18.0921 14.0762 18.0893 14.0189C18.0504 12.7995 18.4325 11.6046 19.1691 10.6419C20.3628 10.8563 21.5714 10.9733 22.7834 10.9919V14.0329C22.7834 14.149 22.8287 14.2602 22.9093 14.3423C22.9899 14.4243 23.0992 14.4704 23.2132 14.4704C23.3272 14.4704 23.4366 14.4243 23.5172 14.3423C23.5978 14.2602 23.6431 14.149 23.6431 14.0329V10.9919C24.8562 10.9733 26.066 10.8563 27.2608 10.6419C28.0001 11.603 28.3814 12.7993 28.3372 14.0189C28.3344 14.0762 28.3428 14.1335 28.3619 14.1875C28.381 14.2414 28.4105 14.291 28.4485 14.3333C28.4866 14.3756 28.5325 14.4098 28.5836 14.4339C28.6348 14.4581 28.6901 14.4716 28.7464 14.4739H28.767C28.8776 14.474 28.9839 14.4308 29.0639 14.3533C29.144 14.2757 29.1916 14.1698 29.1969 14.0574C29.2517 12.7762 28.9023 11.5106 28.1996 10.446C29.2292 10.2033 30.2361 9.8696 31.2086 9.44862C31.8276 9.60959 33.241 10.201 33.5333 12.2972C33.5489 12.4011 33.6004 12.4959 33.6786 12.5645C33.7568 12.6332 33.8565 12.6712 33.9598 12.6716H34.0217C34.1335 12.656 34.2347 12.5961 34.3036 12.5051C34.3724 12.4141 34.4033 12.2992 34.3896 12.1852C34.1283 10.32 33.1241 9.40312 32.2713 8.95519C33.3048 8.43959 34.2371 7.73633 35.0224 6.87999C35.4328 6.40862 35.9376 6.03204 36.5029 5.77552C37.0681 5.519 37.6807 5.38848 38.2996 5.39271C39.2986 5.38965 40.2689 5.73276 41.0507 6.36557C41.4734 6.70484 41.8239 7.12792 42.081 7.60916C42.3381 8.09039 42.4966 8.61976 42.5467 9.16516C42.5929 9.70395 42.5304 10.2467 42.363 10.76C42.1957 11.2733 41.927 11.7464 41.5734 12.1502Z" fill="url(#paint0_linear)"/>
<defs>
<linearGradient id="paint0_linear" x1="-5.90022" y1="37.7936" x2="46.3287" y2="-3.80126" gradientUnits="userSpaceOnUse">
<stop stop-color="#8BB35D"/>
<stop offset="0.44" stop-color="#8BB35D"/>
<stop offset="0.75" stop-color="#418F49"/>
<stop offset="1" stop-color="#2D925A"/>
</linearGradient>
</defs>
</svg>
