<?xml version="1.0" encoding="utf-8"?>
<!-- Generator: Adobe Illustrator 24.3.0, SVG Export Plug-In . SVG Version: 6.00 Build 0)  -->
<svg version="1.1" id="Layer_1" xmlns="http://www.w3.org/2000/svg" xmlns:xlink="http://www.w3.org/1999/xlink" x="0px" y="0px"
	 viewBox="0 0 49 56" style="enable-background:new 0 0 49 56;" xml:space="preserve">
<style type="text/css">
	.st0{fill:url(#SVGID_1_);}
	.st1{fill:#FFFFFF;filter:url(#Adobe_OpacityMaskFilter);}
	.st2{mask:url(#path-1-inside-1_788_459_1_);fill:#FFFFFF;}
	.st3{fill:url(#SVGID_2_);stroke:#FFFFFF;}
	.st4{fill:url(#SVGID_3_);stroke:#FFFFFF;}
	.st5{fill:url(#SVGID_4_);stroke:#FFFFFF;}
	.st6{fill:url(#SVGID_5_);stroke:#FFFFFF;}
	.st7{fill:none;stroke:#FFFFFF;stroke-linecap:round;}
</style>
<g>
	
		<linearGradient id="SVGID_1_" gradientUnits="userSpaceOnUse" x1="-6.2094" y1="29.5647" x2="47.3824" y2="26.1528" gradientTransform="matrix(1 0 0 -1 0 58)">
		<stop  offset="0" style="stop-color:#8BB35D"/>
		<stop  offset="0.44" style="stop-color:#8BB35D"/>
		<stop  offset="0.75" style="stop-color:#418F49"/>
		<stop  offset="1" style="stop-color:#2D925A"/>
	</linearGradient>
	<path class="st0" d="M19.5,7c-7.8-0.6-14.6,3.7-14.6,3.7l2.9,2.5l-2.9-0.6c1.3,4,2.6,7.3,6.7,10.4c3,2.3,7,3.5,11.5,4.5
		c3.9,0.9,8,2.5,10,4.5c5.6,5.6-0.7,9.2-0.7,9.2c-2.2-0.9-10.4-7-10.4-7c-0.9,5.2,5.4,9.2,5.4,9.2c-5.8,3.7-5.1,10-5.1,10
		c0.8-2.9,12.8-7.5,12.8-7.5C57.8,31.3,33.1,8,19.5,7z"/>
	<defs>
		<filter id="Adobe_OpacityMaskFilter" filterUnits="userSpaceOnUse" x="3.2" y="5.9" width="42.1" height="47.6">
			<feColorMatrix  type="matrix" values="1 0 0 0 0  0 1 0 0 0  0 0 1 0 0  0 0 0 1 0"/>
		</filter>
	</defs>
	<mask maskUnits="userSpaceOnUse" x="3.2" y="5.9" width="42.1" height="47.6" id="path-1-inside-1_788_459_1_">
		<path class="st1" d="M19.5,7c-7.8-0.6-14.6,3.7-14.6,3.7l2.9,2.5l-2.9-0.6c1.3,4,2.6,7.3,6.7,10.4c3,2.3,7,3.5,11.5,4.5
			c3.9,0.9,8,2.5,10,4.5c5.6,5.6-0.7,9.2-0.7,9.2c-2.2-0.9-10.4-7-10.4-7c-0.9,5.2,5.4,9.2,5.4,9.2c-5.8,3.7-5.1,10-5.1,10
			c0.8-2.9,12.8-7.5,12.8-7.5C57.8,31.3,33.1,8,19.5,7z"/>
	</mask>
	<path class="st2" d="M23,15.5c0-0.3-0.2-0.5-0.5-0.5S22,15.2,22,15.5H23z M13.9,24.5c3.8,0.5,9.1-2.7,9.1-9h-1c0,5.7-4.7,8.5-7.9,8
		L13.9,24.5z M19.5,7l-0.1,1L19.5,7z M4.9,10.7L4.3,9.9l-1.1,0.7l1,0.9L4.9,10.7z M7.8,13.2l-0.2,1C8,14.2,8.5,14,8.7,13.6
		c0.2-0.4,0.1-0.9-0.2-1.2L7.8,13.2z M4.8,12.6l0.2-1l-1.7-0.4l0.5,1.6L4.8,12.6z M11.5,23l0.6-0.8L11.5,23z M33,32l0.7-0.7L33,32z
		 M32.3,41.2l-0.4,0.9l0.5,0.2l0.4-0.3L32.3,41.2z M21.9,34.2l0.6-0.8l-1.3-1L20.9,34L21.9,34.2z M27.2,43.4l0.5,0.8l1.3-0.8
		l-1.3-0.8L27.2,43.4z M22.1,53.3l-1,0.1l2,0.2L22.1,53.3z M34.9,45.8l0.4,0.9l0.1,0l0.1-0.1L34.9,45.8z M23,27.5l-0.2,1L23,27.5z
		 M19.6,6c-4.1-0.3-7.9,0.7-10.7,1.7C7.5,8.2,6.4,8.7,5.6,9.1C5.2,9.4,4.9,9.5,4.7,9.6C4.6,9.7,4.5,9.8,4.4,9.8c0,0-0.1,0-0.1,0
		c0,0,0,0,0,0c0,0,0,0,0,0c0,0,0,0,0,0c0,0,0,0,0,0c0,0,0,0,0.5,0.8c0.5,0.8,0.5,0.8,0.5,0.8c0,0,0,0,0,0c0,0,0,0,0,0c0,0,0,0,0,0
		c0,0,0,0,0,0c0,0,0,0,0.1,0c0,0,0.1-0.1,0.2-0.1c0.2-0.1,0.5-0.3,0.8-0.5c0.7-0.4,1.8-0.9,3.1-1.4c2.6-1,6.1-1.8,9.8-1.6L19.6,6z
		 M4.2,11.5l2.9,2.5l1.3-1.5L5.5,9.9L4.2,11.5z M8,12.2l-2.9-0.6l-0.4,2l2.9,0.6L8,12.2z M3.9,12.9c1.3,4.1,2.7,7.6,7,10.9l1.2-1.6
		c-3.8-3-5.1-6-6.3-10L3.9,12.9z M32.3,32.7c1.3,1.3,1.8,2.4,2,3.2c0.1,0.9,0,1.6-0.4,2.3c-0.4,0.7-0.9,1.2-1.3,1.6
		c-0.2,0.2-0.4,0.3-0.5,0.4c-0.1,0-0.1,0.1-0.2,0.1c0,0,0,0,0,0c0,0,0,0,0,0c0,0,0,0,0,0c0,0,0,0,0,0c0,0,0,0,0,0c0,0,0,0,0.5,0.9
		c0.5,0.9,0.5,0.9,0.5,0.9c0,0,0,0,0,0c0,0,0,0,0,0c0,0,0,0,0,0c0,0,0,0,0,0c0,0,0,0,0.1,0c0.1,0,0.1-0.1,0.2-0.1
		c0.2-0.1,0.4-0.3,0.7-0.6c0.6-0.5,1.3-1.2,1.8-2.1c0.5-1,0.8-2.2,0.6-3.5c-0.2-1.4-1-2.8-2.5-4.3L32.3,32.7z M32.7,40.3
		c-0.5-0.2-1.3-0.7-2.4-1.4c-1.1-0.7-2.3-1.5-3.5-2.4c-1.2-0.8-2.3-1.6-3.1-2.2c-0.4-0.3-0.7-0.5-1-0.7c-0.1-0.1-0.2-0.1-0.3-0.2
		c0,0-0.1,0-0.1-0.1c0,0,0,0,0,0c0,0,0,0,0,0c0,0,0,0,0,0c0,0,0,0,0,0c0,0,0,0-0.6,0.8C21.3,35,21.3,35,21.3,35c0,0,0,0,0,0
		c0,0,0,0,0,0c0,0,0,0,0,0c0,0,0,0,0,0c0,0,0,0,0.1,0.1c0.1,0,0.2,0.1,0.3,0.2c0.2,0.2,0.6,0.4,1,0.7c0.8,0.6,1.9,1.4,3.1,2.2
		c1.2,0.8,2.4,1.7,3.5,2.4c1.1,0.7,2.1,1.3,2.7,1.6L32.7,40.3z M20.9,34c-0.6,3.1,1,5.7,2.6,7.4c0.8,0.9,1.6,1.6,2.2,2.1
		c0.3,0.2,0.6,0.4,0.7,0.6c0.1,0.1,0.2,0.1,0.2,0.1c0,0,0,0,0.1,0c0,0,0,0,0,0c0,0,0,0,0,0c0,0,0,0,0,0c0,0,0,0,0,0c0,0,0,0,0.5-0.8
		c0.5-0.8,0.5-0.8,0.5-0.8c0,0,0,0,0,0c0,0,0,0,0,0c0,0,0,0,0,0c0,0,0,0,0,0c0,0,0,0,0,0c0,0-0.1-0.1-0.2-0.1
		c-0.2-0.1-0.4-0.3-0.7-0.5c-0.5-0.4-1.3-1-1.9-1.8c-1.4-1.6-2.5-3.6-2.1-5.7L20.9,34z M26.7,42.5c-3.2,2-4.6,4.7-5.2,6.9
		c-0.3,1.1-0.4,2.1-0.4,2.8c0,0.4,0,0.6,0,0.8c0,0.1,0,0.2,0,0.2c0,0,0,0.1,0,0.1c0,0,0,0,0,0c0,0,0,0,0,0c0,0,0,0,0,0c0,0,0,0,0,0
		c0,0,0,0,1-0.1c1-0.1,1-0.1,1-0.1c0,0,0,0,0,0c0,0,0,0,0,0c0,0,0,0,0,0c0,0,0,0,0,0c0,0,0,0,0,0c0,0,0-0.1,0-0.2c0-0.2,0-0.4,0-0.7
		c0-0.6,0.1-1.4,0.4-2.3c0.5-1.8,1.7-4.1,4.3-5.8L26.7,42.5z M23.1,53.6c0-0.1,0.2-0.4,0.5-0.7c0.3-0.3,0.8-0.7,1.4-1.1
		c1.2-0.8,2.7-1.6,4.2-2.4c1.5-0.7,3-1.4,4.2-1.9c0.6-0.2,1-0.4,1.4-0.6c0.2-0.1,0.3-0.1,0.4-0.1c0,0,0.1,0,0.1,0c0,0,0,0,0,0
		c0,0,0,0,0,0c0,0,0,0,0,0c0,0,0,0,0,0s0,0-0.4-0.9c-0.4-0.9-0.4-0.9-0.4-0.9c0,0,0,0,0,0c0,0,0,0,0,0c0,0,0,0,0,0c0,0,0,0,0,0
		c0,0-0.1,0-0.1,0c-0.1,0-0.2,0.1-0.4,0.2c-0.3,0.1-0.8,0.3-1.4,0.6c-1.1,0.5-2.7,1.1-4.3,1.9c-1.6,0.8-3.2,1.6-4.5,2.5
		c-0.6,0.4-1.2,0.9-1.7,1.4c-0.5,0.5-0.9,1-1,1.6L23.1,53.6z M35.4,46.7c5.9-3.7,8.9-8.1,9.6-12.7c0.7-4.6-0.7-9.1-3.3-13.1
		c-2.6-4-6.3-7.6-10.3-10.2C27.5,8,23.2,6.3,19.6,6l-0.2,2c3.2,0.2,7.1,1.8,10.9,4.3c3.8,2.5,7.3,5.9,9.7,9.6
		c2.4,3.8,3.7,7.8,3,11.7c-0.6,3.9-3.2,7.8-8.7,11.3L35.4,46.7z M10.9,23.8c3.2,2.5,7.4,3.7,11.9,4.7l0.4-2c-4.5-1-8.3-2.2-11.1-4.3
		L10.9,23.8z M22.8,28.5c1.9,0.4,3.9,1,5.5,1.8c1.7,0.7,3.1,1.6,4,2.5l1.4-1.4c-1.1-1.1-2.8-2.1-4.6-2.9c-1.8-0.8-3.9-1.4-5.9-1.9
		L22.8,28.5z"/>
	
		<linearGradient id="SVGID_2_" gradientUnits="userSpaceOnUse" x1="14.5814" y1="26.981" x2="21.9646" y2="30.5445" gradientTransform="matrix(1 0 0 -1 0 58)">
		<stop  offset="0" style="stop-color:#8BB35D"/>
		<stop  offset="0.44" style="stop-color:#8BB35D"/>
		<stop  offset="0.75" style="stop-color:#418F49"/>
		<stop  offset="1" style="stop-color:#2D925A"/>
	</linearGradient>
	<path class="st3" d="M20.4,31.5c0,0.1-0.1,0.2-0.1,0.3c-0.3-0.7-0.9-1.6-2-2.4c-1.1-0.8-1.5-1.6-1.7-2.2c0-0.2-0.1-0.4-0.1-0.5
		c0.3,0.1,0.6,0.2,0.9,0.3c0.9,0.3,1.9,0.9,2.6,1.9C20.8,29.7,20.7,30.6,20.4,31.5z"/>
	
		<linearGradient id="SVGID_3_" gradientUnits="userSpaceOnUse" x1="17.0751" y1="27.4556" x2="23.6629" y2="31.4704" gradientTransform="matrix(1 0 0 -1 0 58)">
		<stop  offset="0" style="stop-color:#8BB35D"/>
		<stop  offset="0.44" style="stop-color:#8BB35D"/>
		<stop  offset="0.75" style="stop-color:#418F49"/>
		<stop  offset="1" style="stop-color:#2D925A"/>
	</linearGradient>
	<path class="st4" d="M22.6,30.1c0,0,0,0.1,0,0.1c-0.4-0.6-1-1.2-2.1-1.7c-1.1-0.5-1.5-1.2-1.8-1.7c-0.1-0.1-0.1-0.2-0.1-0.3
		c0.2,0,0.5,0.1,0.8,0.1c0.8,0.2,1.7,0.5,2.5,1.2C22.7,28.5,22.8,29.3,22.6,30.1z"/>
	
		<linearGradient id="SVGID_4_" gradientUnits="userSpaceOnUse" x1="30.2836" y1="22.108" x2="33.9473" y2="23.1236" gradientTransform="matrix(1 0 0 -1 0 58)">
		<stop  offset="0" style="stop-color:#8BB35D"/>
		<stop  offset="0.44" style="stop-color:#8BB35D"/>
		<stop  offset="0.75" style="stop-color:#418F49"/>
		<stop  offset="1" style="stop-color:#2D925A"/>
	</linearGradient>
	<path class="st5" d="M31.1,33l0.3-0.4l-0.5-0.3l-0.2,0.5L31.1,33z M31.1,33c0.3-0.4,0.3-0.4,0.3-0.4l0,0l0,0l0,0l0,0l0,0
		c0,0,0,0,0.1,0c0.1,0,0.1,0.1,0.2,0.2c0.2,0.1,0.5,0.4,0.7,0.6c0.5,0.5,1.2,1.3,1.3,2.4c0.2,0.8-0.2,1.5-0.6,1.9
		c-0.2,0.2-0.4,0.4-0.5,0.5c-0.1,0.1-0.1,0.1-0.2,0.1c0,0,0,0-0.1,0l0,0l0,0l0,0l0,0l0,0c0,0,0,0-0.3-0.4l0.3,0.4l-0.8,0.5V38
		c0,0,0,0,0,0c0-0.1,0-0.2-0.1-0.3c-0.1-0.3-0.2-0.8-0.6-1.7c-0.4-1-0.5-1.7-0.5-2.3c0-0.3,0.1-0.5,0.1-0.7c0-0.1,0-0.1,0.1-0.2
		c0,0,0,0,0-0.1l0,0l0,0l0,0l0,0l0,0C30.7,32.8,30.7,32.8,31.1,33z M30.9,33.4L30.9,33.4L30.9,33.4L30.9,33.4z M30.9,33.4
		C30.9,33.4,30.9,33.4,30.9,33.4L30.9,33.4z"/>
	
		<linearGradient id="SVGID_5_" gradientUnits="userSpaceOnUse" x1="23.239" y1="33.5701" x2="43.0116" y2="50.3158" gradientTransform="matrix(1 0 0 -1 0 58)">
		<stop  offset="0" style="stop-color:#8BB35D"/>
		<stop  offset="0.44" style="stop-color:#8BB35D"/>
		<stop  offset="0.75" style="stop-color:#418F49"/>
		<stop  offset="1" style="stop-color:#2D925A"/>
	</linearGradient>
	<path class="st6" d="M40.4,24c-0.1-0.1-0.2-0.2-0.3-0.3c-1-1.3-2.3-3-4.1-4.8c-3.2-3.3-7.6-7.1-12.6-8.8l4.8-2.6
		c0.1,0,0.2,0.1,0.2,0.1c0.3,0.2,0.8,0.4,1.3,0.8c1.1,0.7,2.5,1.8,4.1,3.3C36.5,14.4,39.4,18.4,40.4,24z"/>
	<path class="st7" d="M13.1,13.4c-0.3,1.1,1.5,2.3,2.2,0.6"/>
</g>
</svg>
