<svg width="24" height="24" viewBox="0 0 24 24" fill="none" xmlns="http://www.w3.org/2000/svg">
<g clip-path="url(#clip0_1097_8830)">
<path d="M12.0007 10.5191C13.5519 10.5191 14.8145 8.83311 14.8145 6.76007C14.8145 4.68703 13.5519 3.00012 12.0007 3.00012C10.4495 3.00012 9.18604 4.68703 9.18604 6.76007C9.18604 8.83311 10.4486 10.5191 12.0007 10.5191Z" fill="white"/>
<path d="M12.0005 11.7664C7.98636 11.7664 6.16373 14.108 5.34178 16.0721C5.15749 16.5162 5.07629 16.9964 5.10427 17.4765C5.13224 17.9565 5.26867 18.424 5.5033 18.8438C5.99265 19.7097 6.82702 20.2267 7.73595 20.2267H16.2642C17.1731 20.2267 18.0075 19.7097 18.4959 18.8447C18.7315 18.4243 18.8686 17.9559 18.8969 17.4748C18.9253 16.9937 18.844 16.5124 18.6593 16.0673C17.8354 14.108 16.0128 11.7664 12.0005 11.7664Z" fill="white"/>
<path d="M18.902 11.7702C20.049 11.7702 20.9808 10.5277 20.9808 8.9985C20.9808 7.46929 20.048 6.22681 18.902 6.22681C17.7561 6.22681 16.8242 7.46929 16.8242 9.00328C16.8242 10.5373 17.7561 11.7702 18.902 11.7702Z" fill="white"/>
<path d="M23.8205 15.8713C23.2127 14.4205 21.866 12.6915 18.9022 12.6915C18.7264 12.6915 18.5572 12.6982 18.3918 12.7097C19.1354 13.5095 19.7277 14.4376 20.1399 15.4489C20.6004 16.5642 20.6246 17.8118 20.2078 18.9441H22.0514C22.7205 18.9441 23.3388 18.5618 23.6992 17.9233C23.8735 17.6129 23.9751 17.2668 23.9961 16.9113C24.0171 16.5558 23.9571 16.2002 23.8205 15.8713Z" fill="white"/>
<path d="M5.09806 11.7702C3.95115 11.7702 3.01929 10.5277 3.01929 8.9985C3.01929 7.46929 3.95211 6.22681 5.09806 6.22681C6.24401 6.22681 7.17588 7.46929 7.17588 9.00328C7.17588 10.5373 6.24401 11.7702 5.09806 11.7702Z" fill="white"/>
<path d="M0.179815 15.8713C0.787676 14.4205 2.13434 12.6915 5.09814 12.6915C5.274 12.6915 5.44317 12.6982 5.60852 12.7097C4.86355 13.5092 4.26995 14.4373 3.85661 15.4489C3.39618 16.5642 3.37196 17.8118 3.78875 18.9441H1.94797C1.27894 18.9441 0.660561 18.5618 0.30024 17.9233C0.126023 17.6128 0.0246549 17.2667 0.0037929 16.9112C-0.0170691 16.5557 0.0431202 16.2001 0.179815 15.8713Z" fill="white"/>
</g>
<defs>
<clipPath id="clip0_1097_8830">
<rect width="24" height="24" fill="white"/>
</clipPath>
</defs>
</svg>
