<svg xmlns="http://www.w3.org/2000/svg" xmlns:xlink="http://www.w3.org/1999/xlink" viewBox="0 0 37.37 41.07">
  <defs>
    <linearGradient id="linear-gradient" x1="-5.87" y1="7.57" x2="42.18" y2="37.32" gradientTransform="matrix(1, 0, 0, -1, 0, 43.38)" gradientUnits="userSpaceOnUse">
      <stop offset="0" stop-color="#8bb35d"/>
      <stop offset="0.44" stop-color="#8bb35d"/>
      <stop offset="0.75" stop-color="#418f49"/>
      <stop offset="1" stop-color="#2d925a"/>
    </linearGradient>
    <linearGradient id="linear-gradient-2" x1="12.46" y1="28.08" x2="14.41" y2="28.29" xlink:href="#linear-gradient"/>
    <linearGradient id="linear-gradient-3" x1="12.56" y1="26.89" x2="16.42" y2="24.89" xlink:href="#linear-gradient"/>
  </defs>
  <g id="Layer_2" data-name="Layer 2">
    <g id="Layer_1-2" data-name="Layer 1">
      <g>
        <path d="M2.54,8.76c0-.12,0-.26,0-.41.21,0,.51-.11.87-.17.86-.17,2.12-.39,3.67-.61a87.73,87.73,0,0,1,12.11-.88,81.83,81.83,0,0,1,10.89.88c1.56.22,2.89.44,3.83.61l1,.18c0,.14,0,.28,0,.4v.09a86.8,86.8,0,0,1,.73,11.69h0A82.09,82.09,0,0,1,35,31.87V32a2.84,2.84,0,0,0,.12.95h0l1.72,5.26a2.33,2.33,0,0,1-.44,1.91,1.65,1.65,0,0,1-1.74.4h0l-4.56-1.54-.08,0h-.73a52,52,0,0,1-10.56,1.17,51.35,51.35,0,0,1-10.5-1.16,1.1,1.1,0,0,0-.89,0L2.79,40.47h0a1.39,1.39,0,0,1-.57.07A1.66,1.66,0,0,1,1,40.05,1.65,1.65,0,0,1,.6,38.28h0L2.33,33h0a2.84,2.84,0,0,0,.12-1V32a101.67,101.67,0,0,1-.63-11.42,107.42,107.42,0,0,1,.72-11.7V8.76Zm34.1-6-1.5,4.6-1.07-.2c-.94-.16-2.28-.39-3.86-.61a83.25,83.25,0,0,0-11-.89,89.41,89.41,0,0,0-12.25.89c-1.57.22-2.84.45-3.72.61l-.93.19L.78,2.79h0A1.65,1.65,0,0,1,1.21,1,1.63,1.63,0,0,1,3,.6H3L6.61,1.78A5,5,0,0,0,9.33,2a52.4,52.4,0,0,1,9.38-1,53.15,53.15,0,0,1,9.38,1,5,5,0,0,0,2.72-.2h0L34.45.6h0A1.79,1.79,0,0,1,36.22,1a1.67,1.67,0,0,1,.43,1.77Z" stroke="#fff" fill="url(#linear-gradient)"/>
        <path d="M25.42,27c.21-.25,1.52-.16,2.08-.12.73.05,1,.07,1.13-.1a.26.26,0,0,0,.08-.13.41.41,0,0,0,0-.16.33.33,0,0,0-.12-.21,15.3,15.3,0,0,0-4.35-2.17.43.43,0,0,0,0-.16,16.32,16.32,0,0,1-.49-2.69.38.38,0,0,0,0-.21,4.77,4.77,0,0,1,.41-2.81.21.21,0,0,0,.05-.13.26.26,0,0,0,0-.15.24.24,0,0,0-.07-.12.47.47,0,0,0-.12-.09,16.37,16.37,0,0,0-3.27-.84.34.34,0,0,0-.14,0,.41.41,0,0,0-.11.07,10.94,10.94,0,0,0-5.61-3.8,10,10,0,0,0-3.22-.43.3.3,0,0,0-.18.06.42.42,0,0,0-.11.16.28.28,0,0,0-.14.1.3.3,0,0,0-.08.16c-.46,2.69.41,5.1,2.68,7.37l.18.18,0,0-.36,2a.29.29,0,0,0,0,.16.41.41,0,0,0,.08.13l0,0a3,3,0,0,0,3.33.05,16.74,16.74,0,0,0,2,1l-.1,1a.25.25,0,0,0,0,.12.24.24,0,0,0,.06.11l0,0a.4.4,0,0,0,.2.09l2.86.29c.11.35.34,1.08.66,1.85.63,1.49,1.25,2.31,1.88,2.49a.33.33,0,0,0,.17,0,.29.29,0,0,0,.14-.08.3.3,0,0,0,.09-.13.47.47,0,0,0,0-.17,5.67,5.67,0,0,1,.06-2.48h0A1.08,1.08,0,0,1,25.42,27Zm.41-.82h0L25.64,26l.05,0,.28.16h-.14Zm-1.35,1.41a4,4,0,0,1-.49-1s0,0,0-.05a7.94,7.94,0,0,0,.58.72A2.21,2.21,0,0,0,24.48,27.59Zm2.67-1.39a7.61,7.61,0,0,0-.75-.51,9.44,9.44,0,0,1,1,.53Zm-4.81-6.3a1.75,1.75,0,0,1,.61.27.27.27,0,0,0,.12.06v.29a1.51,1.51,0,0,0-.48-.08Zm.77-.4a4.7,4.7,0,0,0-.82-.29l-.33-.1h0l-.23-.4a8.62,8.62,0,0,1,.95.39l.49.23,0,.19Zm0,1.79c0,.15,0,.3,0,.44-.07-.18-.16-.37-.24-.57a.86.86,0,0,1,.2.13Zm.15-2.63-.35-.16a5.17,5.17,0,0,0-1.7-.57c-.08-.11-.15-.22-.23-.32a16.67,16.67,0,0,1,2.43.63A3.52,3.52,0,0,0,23.27,18.66Z" fill="#fff"/>
        <path d="M14.27,15.52a.34.34,0,0,0-.14-.21.31.31,0,0,0-.25-.05.52.52,0,0,1-.17,0,.4.4,0,0,1-.15-.1A.23.23,0,0,1,13.5,15a.2.2,0,0,1,0-.13.57.57,0,0,0,0-.13.28.28,0,0,0,0-.12.27.27,0,0,0-.08-.1.41.41,0,0,0-.11-.07h-.13a.25.25,0,0,0-.12,0,.2.2,0,0,0-.1.08.24.24,0,0,0-.06.11.83.83,0,0,0,0,.47.82.82,0,0,0,.22.41l0,0a1.09,1.09,0,0,0,.42.26,1,1,0,0,0,.49,0,.32.32,0,0,0,.2-.14A.3.3,0,0,0,14.27,15.52Z" fill="url(#linear-gradient-2)"/>
        <path d="M16.81,16a.18.18,0,0,1,.15.21,3,3,0,0,1-1.48,2,5.11,5.11,0,0,1-3.6.52.19.19,0,0,1-.15-.21.19.19,0,0,1,.22-.15A4.78,4.78,0,0,0,15.28,18a2.63,2.63,0,0,0,1.32-1.77A.18.18,0,0,1,16.81,16Z" fill-rule="evenodd" fill="url(#linear-gradient-3)"/>
      </g>
      <path d="M17.18,3.69h2.5m12.5,7.5a30,30,0,0,1,.5,6.5m-11-14a32.14,32.14,0,0,1,6,.5" fill="none" stroke="#fff" stroke-linecap="round"/>
      <path d="M5.18,26.19a13.08,13.08,0,0,0,.5,6" fill="none" stroke="#fff" stroke-linecap="round"/>
      <path d="M9.18,34.69c2,1.5,6,2.5,11.5,1.5" fill="none" stroke="#fff" stroke-linecap="round"/>
    </g>
  </g>
</svg>
