<svg xmlns="http://www.w3.org/2000/svg" xmlns:xlink="http://www.w3.org/1999/xlink" viewBox="0 0 361.29 243.57">
  <defs>
    <linearGradient id="linear-gradient" x1="130.54" y1="99.59" x2="132.26" y2="99.59" gradientUnits="userSpaceOnUse">
      <stop offset="0" stop-color="#a3c85d"/>
      <stop offset="0.67" stop-color="#40a849"/>
      <stop offset="1" stop-color="#2bac59"/>
    </linearGradient>
    <linearGradient id="linear-gradient-2" x1="132.26" y1="123.08" x2="211.74" y2="123.08" xlink:href="#linear-gradient"/>
    <linearGradient id="linear-gradient-3" x1="201.79" y1="79.88" x2="273.59" y2="79.88" xlink:href="#linear-gradient"/>
    <linearGradient id="linear-gradient-4" x1="231.86" y1="146.41" x2="273.44" y2="146.41" xlink:href="#linear-gradient"/>
    <linearGradient id="linear-gradient-5" x1="181.43" y1="149.31" x2="208.4" y2="149.31" xlink:href="#linear-gradient"/>
    <linearGradient id="linear-gradient-6" x1="133.18" y1="121.46" x2="160.16" y2="121.46" xlink:href="#linear-gradient"/>
    <linearGradient id="linear-gradient-7" x1="222.4" y1="158.19" x2="223.18" y2="158.19" xlink:href="#linear-gradient"/>
    <linearGradient id="linear-gradient-8" x1="-341.79" y1="141.04" x2="-344.86" y2="139.54" gradientTransform="matrix(-1, 0, 0, 1, -214.56, 0)" gradientUnits="userSpaceOnUse">
      <stop offset="0" stop-color="#adb566"/>
      <stop offset="0.26" stop-color="#a9b367"/>
      <stop offset="0.55" stop-color="#9cae68"/>
      <stop offset="0.84" stop-color="#87a56b"/>
      <stop offset="1" stop-color="#779e6d"/>
    </linearGradient>
    <linearGradient id="linear-gradient-9" x1="-398.02" y1="173.69" x2="-401.1" y2="172.19" xlink:href="#linear-gradient-8"/>
    <linearGradient id="linear-gradient-10" x1="23.04" y1="59.13" x2="27.39" y2="59.13" xlink:href="#linear-gradient"/>
    <linearGradient id="linear-gradient-11" x1="19.06" y1="77.27" x2="23.44" y2="77.27" xlink:href="#linear-gradient"/>
  </defs>
  <g style="isolation: isolate">
    <g id="Layer_2" data-name="Layer 2">
      <g id="Layer_1-2" data-name="Layer 1">
        <g id="FOOD">
          <g>
            <polygon points="232.33 185.68 230.74 189.15 229.16 192.62 226.87 191.3 215.13 198.12 210.91 195.68 222.65 188.86 220.36 187.54 226.34 186.61 232.33 185.68" fill="#efefef"/>
            <polygon points="123.93 125.97 133.91 131.81 133.91 120.28 123.93 125.97" fill="#404041" opacity="0.1" style="mix-blend-mode: multiply"/>
            <g>
              <polygon points="322.83 125.18 322.83 134.47 200.14 63.66 200.14 54.36 322.83 125.18" fill="#901d0d"/>
              <polygon points="200.14 54.36 322.83 125.18 324.54 124.17 201.79 53.41 200.14 54.36" fill="#109648"/>
              <polygon points="322.83 125.18 322.83 134.47 324.54 133.47 324.54 124.17 322.83 125.18" fill="#096a37"/>
            </g>
            <g>
              <polygon points="132.26 95.44 132.26 104.73 201.79 64.61 201.79 55.32 132.26 95.44" fill="#a11d0d"/>
              <polygon points="201.79 55.32 132.26 95.44 130.54 94.44 200.14 54.36 201.79 55.32" fill="#109648"/>
              <polygon points="132.26 95.44 132.26 104.73 130.54 103.73 130.54 94.44 132.26 95.44" fill="url(#linear-gradient)"/>
            </g>
            <g>
              <polygon points="211.75 139.41 279.6 100.23 279.6 139.42 211.74 178.59 211.75 139.41" fill="#dee2e2"/>
              <polygon points="201.79 55.32 279.6 100.23 211.75 139.41 133.91 94.49 201.79 55.32" fill="#109648"/>
              <polygon points="133.91 94.49 211.75 139.41 211.74 178.59 133.91 133.69 133.91 94.49" fill="#d1d1d1"/>
              <g>
                <polygon points="234.89 158.82 264.37 141.78 266.15 142.81 234.89 160.9 234.89 158.82" fill="#eff0f1"/>
                <polygon points="264.37 141.78 264.37 120.25 234.89 137.21 234.89 158.82 264.37 141.78" fill="#f9ae02"/>
                <polygon points="266.15 117.6 266.15 142.81 264.37 141.78 264.37 118.63 266.15 117.6" fill="#dee2e2"/>
                <path d="M234.89,137.2v21.62l29.48-17V120.25Zm28.32,3.91L236,156.82V137.87l27.17-15.62Z" fill="#3b4358"/>
                <polygon points="262.71 140.84 236.04 156.26 236.04 156.82 263.21 141.11 263.21 122.25 262.71 122.53 262.71 140.84" fill="#5e6777"/>
              </g>
              <polygon points="241.22 146.98 237.81 148.93 237.81 153.22 241.22 151.25 241.22 146.98" fill="#dee2e2" fill-rule="evenodd"/>
              <polygon points="241.22 140.67 237.81 142.62 237.81 146.91 241.22 144.95 241.22 140.67" fill="#dee2e2" fill-rule="evenodd"/>
            </g>
            <g>
              <polygon points="225.03 122.83 202.99 110.1 202.99 112.49 225.03 125.21 225.03 122.83" fill="#dee2e2"/>
              <polygon points="211.84 104.99 202.99 110.1 225.03 122.83 233.88 117.71 211.84 104.99" fill="#eff0f1"/>
              <polygon points="233.88 117.71 225.03 122.83 225.03 125.21 233.88 120.11 233.88 117.71" fill="#d1d1d1"/>
            </g>
            <g>
              <polygon points="293.63 127.77 271.58 115.04 271.58 117.43 293.63 130.16 293.63 127.77" fill="#dee2e2"/>
              <polygon points="280.44 109.93 271.58 115.04 293.63 127.77 302.48 122.65 280.44 109.93" fill="#eff0f1"/>
              <polygon points="302.48 122.65 293.63 127.77 293.63 130.16 302.48 125.05 302.48 122.65" fill="#d1d1d1"/>
            </g>
            <g>
              <g>
                <polygon points="218.44 238.08 218.44 240.8 361.29 158.22 361.29 155.49 218.44 238.08" fill="#d1d1d1"/>
                <polygon points="361.29 155.49 218.44 238.08 198.81 226.73 341.92 144.33 361.29 155.49" fill="#a2b129"/>
                <polygon points="218.44 238.08 218.44 240.8 198.81 229.45 198.81 226.73 218.44 238.08" fill="#c2c0c0"/>
              </g>
              <path d="M341.92,144.33l-143.11,82.4,19.62,11.35,142.86-82.59ZM204,226.74l138-79.43,14.21,8.19-137.7,79.6Z" fill="#dee2e2"/>
            </g>
            <g>
              <g>
                <polygon points="44.95 137.93 44.95 140.65 187.8 58.07 187.8 55.35 44.95 137.93" fill="#d1d1d1"/>
                <polygon points="187.8 55.35 44.95 137.93 25.32 126.59 168.43 44.19 187.8 55.35" fill="#a2b129"/>
                <polygon points="44.95 137.93 44.95 140.65 25.32 129.31 25.32 126.58 44.95 137.93" fill="#c2c0c0"/>
              </g>
              <path d="M168.43,44.19,25.32,126.59,45,137.93,187.8,55.35Zm-138,82.4,138-79.43,14.21,8.19L45,135Z" fill="#dee2e2"/>
            </g>
            <g>
              <polygon points="213.46 140.42 213.46 149.71 281.26 110.47 281.26 101.18 213.46 140.42" fill="#096a37"/>
              <polygon points="281.26 101.18 213.46 140.42 211.75 139.41 279.6 100.23 281.26 101.18" fill="#109648"/>
              <polygon points="213.46 140.42 213.46 149.71 211.75 148.71 211.75 139.41 213.46 140.42" fill="#901d0d"/>
            </g>
            <g>
              <polygon points="211.74 141.42 211.74 150.71 132.26 104.74 132.26 95.45 211.74 141.42" fill="url(#linear-gradient-2)"/>
              <polygon points="132.26 95.44 211.74 141.42 213.46 140.42 133.91 94.49 132.26 95.44" fill="#109648"/>
              <polygon points="211.74 141.42 211.74 150.71 213.46 149.71 213.46 140.42 211.74 141.42" fill="#096a37"/>
            </g>
            <path d="M201.79,55.32,133.91,94.49l77.83,44.92,67.86-39.18Zm10,80.62L139.93,94.49l61.86-35.7,71.8,41.44Z" fill="#109648"/>
            <polygon points="139.93 94.49 141.2 95.23 201.79 60.36 201.79 58.79 139.93 94.49" fill="#096a37"/>
            <polygon points="273.59 100.23 272.32 100.96 201.79 60.36 201.79 58.79 273.59 100.23" fill="url(#linear-gradient-3)"/>
            <g>
              <polygon points="274.44 160.16 274.44 189.47 271.58 187.8 271.58 158.5 274.44 160.16" fill="#d1d1d1"/>
              <polygon points="271.58 158.5 274.44 160.16 291.74 150.1 288.84 148.46 271.58 158.5" fill="#df3c02"/>
              <polygon points="274.44 160.16 274.44 189.47 291.74 179.4 291.74 150.1 274.44 160.16" fill="#dee2e2"/>
            </g>
            <g>
              <polygon points="296.22 147.49 296.22 176.79 293.37 175.13 293.37 145.83 296.22 147.49" fill="#d1d1d1"/>
              <polygon points="293.37 145.83 296.22 147.49 299.2 145.76 296.31 144.12 293.37 145.83" fill="#df3c02"/>
              <polygon points="296.22 147.49 296.22 176.79 299.2 175.06 299.2 145.76 296.22 147.49" fill="#dee2e2"/>
            </g>
            <g>
              <polygon points="303.38 143.31 303.38 172.61 300.52 170.95 300.52 141.65 303.38 143.31" fill="#d1d1d1"/>
              <polygon points="300.52 141.65 303.38 143.31 306.35 141.58 303.46 139.94 300.52 141.65" fill="#df3c02"/>
              <polygon points="303.38 143.31 303.38 172.61 306.35 170.88 306.35 141.58 303.38 143.31" fill="#dee2e2"/>
            </g>
            <g>
              <polygon points="310.54 139.13 310.54 168.44 307.68 166.77 307.68 137.47 310.54 139.13" fill="#d1d1d1"/>
              <polygon points="307.68 137.47 310.54 139.13 313.51 137.4 310.62 135.76 307.68 137.47" fill="#df3c02"/>
              <polygon points="310.54 139.13 310.54 168.44 313.51 166.7 313.51 137.4 310.54 139.13" fill="#dee2e2"/>
            </g>
            <g>
              <polygon points="317.69 134.95 317.69 164.26 314.84 162.59 314.84 133.29 317.69 134.95" fill="#d1d1d1"/>
              <polygon points="314.84 133.29 317.69 134.95 320.67 133.22 317.78 131.58 314.84 133.29" fill="#df3c02"/>
              <polygon points="317.69 134.95 317.69 164.26 320.67 162.53 320.67 133.22 317.69 134.95" fill="#dee2e2"/>
            </g>
            <g>
              <polygon points="273.44 153.77 322.83 125.17 322.83 134.47 273.44 163.05 273.44 153.77" fill="#096a37"/>
              <polygon points="281.26 101.18 322.83 125.17 273.44 153.77 231.86 129.77 281.26 101.18" fill="#109648"/>
              <polygon points="231.86 129.77 273.44 153.77 273.44 163.05 231.86 139.06 231.86 129.77" fill="url(#linear-gradient-4)"/>
            </g>
            <g>
              <g>
                <polygon points="193.45 77.43 210.36 67.59 210.36 69.99 193.45 79.83 193.45 77.43" fill="#dee2e2"/>
                <polygon points="201.47 62.46 210.36 67.59 193.45 77.43 184.56 72.3 201.47 62.46" fill="#eff0f1"/>
                <polygon points="184.56 72.3 193.45 77.43 193.45 79.83 184.56 74.7 184.56 72.3" fill="#d1d1d1"/>
              </g>
              <path d="M194,70.07c-2.49,0-4.52.92-4.52,2.07s2,2.07,4.52,2.07,4.51-.93,4.51-2.07S196.47,70.07,194,70.07Z" fill="#4f3952"/>
              <path d="M194,71.22c-1.1,0-2,.41-2,.92s.9.92,2,.92,2-.41,2-.92S195.08,71.22,194,71.22Z" fill="#eff0f1"/>
              <path d="M201.39,65.75c-2.49,0-4.52.93-4.52,2.08s2,2.07,4.52,2.07,4.51-.93,4.51-2.07S203.88,65.75,201.39,65.75Z" fill="#4f3952"/>
              <path d="M201.39,66.91c-1.1,0-2,.41-2,.92s.9.91,2,.91,2-.41,2-.91S202.49,66.91,201.39,66.91Z" fill="#eff0f1"/>
            </g>
            <g>
              <g>
                <polygon points="206.26 84.82 223.16 74.98 223.16 77.38 206.26 87.22 206.26 84.82" fill="#dee2e2"/>
                <polygon points="214.28 69.85 223.16 74.98 206.26 84.82 197.36 79.69 214.28 69.85" fill="#eff0f1"/>
                <polygon points="197.36 79.69 206.26 84.82 206.26 87.22 197.36 82.09 197.36 79.69" fill="#d1d1d1"/>
              </g>
              <path d="M206.78,77.46c-2.49,0-4.51.92-4.51,2.07s2,2.07,4.51,2.07,4.52-.93,4.52-2.07S209.28,77.46,206.78,77.46Z" fill="#4f3952"/>
              <path d="M206.78,78.61c-1.1,0-2,.41-2,.92s.9.92,2,.92,2-.42,2-.92S207.89,78.61,206.78,78.61Z" fill="#eff0f1"/>
              <path d="M214.19,73.14c-2.49,0-4.51.93-4.51,2.07s2,2.08,4.51,2.08,4.52-.93,4.52-2.08S216.68,73.14,214.19,73.14Z" fill="#4f3952"/>
              <path d="M214.19,74.3c-1.1,0-2,.41-2,.91s.9.92,2,.92,2-.41,2-.92S215.29,74.3,214.19,74.3Z" fill="#eff0f1"/>
            </g>
            <g>
              <polygon points="181.25 194.84 103.43 149.56 103.43 151.04 181.25 196.32 181.25 194.84" fill="#d1d1d1"/>
              <polygon points="133.91 131.81 103.43 149.56 181.25 194.84 211.74 177.1 133.91 131.81" fill="#eff0f1"/>
              <polygon points="211.74 177.1 181.25 194.84 181.25 196.32 211.74 178.59 211.74 177.1" fill="#dee2e2"/>
            </g>
            <g>
              <g>
                <polygon points="161.63 205.02 161.63 207.74 81.33 161.02 81.33 158.3 161.63 205.02" fill="#d1d1d1"/>
                <polygon points="81.33 158.3 161.63 205.02 181.25 193.68 100.7 147.14 81.33 158.3" fill="#a2b129"/>
                <polygon points="161.63 205.02 161.63 207.74 181.25 196.4 181.25 193.67 161.63 205.02" fill="#c2c0c0"/>
              </g>
              <path d="M81.33,158.3,161.63,205l19.62-11.34L100.7,147.14Zm80.3,43.75L86.49,158.3l14.21-8.19,75.4,43.57Z" fill="#dee2e2"/>
            </g>
            <polygon points="211.74 144.97 211.74 147.33 130.54 100.36 130.54 98 211.74 144.97" fill="#404041" opacity="0.2" style="mix-blend-mode: multiply"/>
            <polygon points="231.86 133.34 211.74 144.97 211.74 147.33 231.86 135.69 231.86 133.34" fill="#f9dc40"/>
            <polygon points="273.44 157.39 231.86 133.34 231.86 135.69 273.44 159.75 273.44 157.39" fill="#404041" opacity="0.2" style="mix-blend-mode: multiply"/>
            <polygon points="324.54 127.83 273.44 157.39 273.44 159.75 324.54 130.18 324.54 127.83" fill="#404041" opacity="0.2" style="mix-blend-mode: multiply"/>
            <g>
              <g>
                <polygon points="181.54 157.62 164.26 147.58 162.63 148.52 181.55 159.53 181.54 157.62" fill="#efeff0"/>
                <polygon points="164.26 147.58 164.26 123.25 181.54 133.24 181.54 157.62 164.26 147.58" fill="#536276"/>
                <polygon points="162.63 122.31 162.63 148.52 164.26 147.58 164.26 123.25 162.63 122.31" fill="#dee2e2"/>
              </g>
              <path d="M164.27,123.25v24.33l17.28,10V133.24Zm1.38,2.41,6.07,3.5V150.3l-6.07-3.52Zm14.51,29.55-6.36-3.69V130.37l6.36,3.67Z" fill="#3b4358"/>
              <g>
                <polygon points="174.29 151.25 174.29 130.65 173.8 130.37 173.8 151.51 180.16 155.21 180.16 154.66 174.29 151.25" fill="#4d5568"/>
                <polygon points="166.14 125.94 165.65 125.66 165.65 146.78 171.72 150.31 171.72 149.75 166.14 146.51 166.14 125.94" fill="#4d5568"/>
              </g>
            </g>
            <g>
              <path d="M206.82,155v-.4l-.35-.2-19.55-11.24-1-.6v14.76l.34.2,19.55,11.3,1,.6V155Zm-20.24,1.92h0V143.71L206.13,155v13.22Z" fill="#3b4358"/>
              <g>
                <polygon points="206.13 166.91 187.66 156.24 186.58 156.87 206.13 168.17 206.13 166.91" fill="#5e6777"/>
                <polygon points="187.66 156.24 187.66 144.34 206.13 154.95 206.13 166.91 187.66 156.24" fill="#536276"/>
                <polygon points="186.58 143.71 186.58 156.87 187.66 156.24 187.66 144.34 186.58 143.71" fill="#4d5568"/>
              </g>
              <g>
                <polygon points="208.4 151.4 187.76 139.4 181.43 147.21 202.07 159.21 202.07 159.21 202.07 159.21 208.4 151.4" fill="url(#linear-gradient-5)"/>
                <polygon points="202.07 159.21 208.4 155.52 208.4 151.4 202.07 159.21" fill="#096a37"/>
              </g>
            </g>
            <g>
              <path d="M158.58,127.1v-.4l-.35-.2-19.55-11.24-1-.59v14.75l.35.2,19.55,11.31,1,.6V127.1ZM138.33,129h0V115.87l19.56,11.23v13.23Z" fill="#3b4358"/>
              <g>
                <polygon points="157.88 139.06 139.42 128.4 138.33 129.03 157.88 140.33 157.88 139.06" fill="#5e6777"/>
                <polygon points="139.42 128.4 139.42 116.49 157.88 127.1 157.88 139.06 139.42 128.4" fill="#536276"/>
                <polygon points="138.33 115.87 138.33 129.03 139.42 128.4 139.42 116.49 138.33 115.87" fill="#4d5568"/>
              </g>
              <g>
                <polygon points="160.16 123.55 139.52 111.56 133.19 119.37 153.82 131.36 153.82 131.36 153.82 131.36 160.16 123.55" fill="url(#linear-gradient-6)"/>
                <polygon points="153.82 131.36 160.16 127.68 160.16 123.55 153.82 131.36" fill="#096a37"/>
              </g>
            </g>
            <g>
              <g>
                <polygon points="231.86 141.53 223.18 146.5 223.18 170.33 231.86 165.32 231.86 141.53" fill="#096a37" fill-rule="evenodd"/>
                <polygon points="222.4 146.05 223.18 146.5 223.18 170.33 222.4 169.88 222.4 146.05" fill-rule="evenodd" fill="url(#linear-gradient-7)"/>
                <polygon points="222.4 146.05 223.18 146.5 231.86 141.53 231.08 141.09 222.4 146.05" fill="#109648" fill-rule="evenodd"/>
              </g>
              <polygon points="231.01 143.14 224.68 146.75 224.68 149.49 231.01 145.84 231.01 143.14" fill="#dee2e2" fill-rule="evenodd"/>
              <polygon points="228.09 156.41 224.68 158.36 224.68 162.65 228.09 160.69 228.09 156.41" fill="#dee2e2" fill-rule="evenodd"/>
              <polygon points="231.01 146.64 224.68 150.25 224.68 151.6 231.01 147.95 231.01 146.64" fill="#dee2e2" fill-rule="evenodd"/>
              <polygon points="231.01 148.66 224.68 152.28 224.68 153.62 231.01 149.97 231.01 148.66" fill="#f9dc40" fill-rule="evenodd"/>
              <polygon points="231.01 159.92 224.68 163.54 224.68 164.88 231.01 161.23 231.01 159.92" fill="#dee2e2" fill-rule="evenodd"/>
              <polygon points="231.01 161.95 224.68 165.56 224.68 166.91 231.01 163.25 231.01 161.95" fill="#f9dc40" fill-rule="evenodd"/>
              <polygon points="231.01 150.69 224.68 154.3 224.68 155.65 231.01 152 231.01 150.69" fill="#f9dc40" fill-rule="evenodd"/>
              <polygon points="231.01 152.71 224.68 156.33 224.68 157.67 231.01 154.02 231.01 152.71" fill="#dee2e2" fill-rule="evenodd"/>
            </g>
            <g>
              <polygon points="149.85 47.84 147.36 51.03 148.66 54.91 164.57 57.64 166.16 55.61 169.14 56.13 170.06 54.95 170.06 54.95 169.58 53.53 166.59 53.01 165.77 50.57 149.85 47.84 149.85 47.84" fill="#404041" opacity="0.2" style="mix-blend-mode: multiply"/>
              <g>
                <polygon points="169.14 47.69 169.14 56.13 171.2 54.95 171.2 46.5 169.14 47.69" fill="#88553a"/>
                <polygon points="169.14 47.69 169.14 56.13 167.06 54.94 167.06 46.49 169.14 47.69" fill="#74462e"/>
                <polygon points="169.15 23.84 169.15 51.03 174.76 47.8 174.76 20.61 169.15 23.84" fill="#80c375"/>
                <polygon points="174.76 20.61 169.15 23.84 163.51 20.58 169.12 17.35 174.76 20.61" fill="#92ca82"/>
                <polygon points="169.15 23.83 169.15 51.02 163.51 47.77 163.51 20.58 169.15 23.83" fill="#4fa56a"/>
              </g>
            </g>
            <g>
              <polygon points="134.05 57.03 131.56 60.23 132.86 64.1 148.77 66.83 150.35 64.81 153.34 65.32 154.26 64.14 154.26 64.14 153.78 62.72 150.79 62.21 149.97 59.77 134.05 57.03 134.05 57.03" fill="#404041" opacity="0.2" style="mix-blend-mode: multiply"/>
              <g>
                <polygon points="153.34 56.88 153.34 65.33 155.4 64.14 155.4 55.7 153.34 56.88" fill="#88553a"/>
                <polygon points="153.34 56.88 153.34 65.33 151.26 64.13 151.26 55.69 153.34 56.88" fill="#74462e"/>
                <polygon points="153.35 33.03 153.35 60.22 158.96 56.99 158.96 29.8 153.35 33.03" fill="#80c375"/>
                <polygon points="158.96 29.8 153.35 33.03 147.7 29.77 153.32 26.55 158.96 29.8" fill="#92ca82"/>
                <polygon points="153.35 33.03 153.35 60.22 147.7 56.96 147.7 29.77 153.35 33.03" fill="#4fa56a"/>
              </g>
            </g>
            <g>
              <polygon points="118.25 66.23 115.76 69.42 117.05 73.29 132.97 76.03 134.55 74 137.54 74.51 138.46 73.34 138.46 73.34 137.98 71.92 134.99 71.4 134.17 68.96 118.25 66.22 118.25 66.23" fill="#404041" opacity="0.2" style="mix-blend-mode: multiply"/>
              <g>
                <polygon points="137.53 66.08 137.53 74.52 139.6 73.33 139.6 64.89 137.53 66.08" fill="#88553a"/>
                <polygon points="137.53 66.08 137.53 74.52 135.46 73.32 135.46 64.88 137.53 66.08" fill="#74462e"/>
                <polygon points="137.54 42.22 137.54 69.42 143.16 66.19 143.16 38.99 137.54 42.22" fill="#80c375"/>
                <polygon points="143.16 38.99 137.54 42.22 131.9 38.97 137.51 35.74 143.16 38.99" fill="#92ca82"/>
                <polygon points="137.54 42.22 137.54 69.41 131.9 66.16 131.9 38.97 137.54 42.22" fill="#4fa56a"/>
              </g>
            </g>
            <g>
              <polygon points="102.45 75.42 99.96 78.62 101.25 82.49 117.17 85.22 118.75 83.19 121.74 83.71 122.65 82.53 122.65 82.53 122.18 81.11 119.18 80.6 118.37 78.15 102.45 75.42 102.45 75.42" fill="#404041" opacity="0.2" style="mix-blend-mode: multiply"/>
              <g>
                <polygon points="121.73 75.27 121.73 83.72 123.8 82.53 123.8 74.08 121.73 75.27" fill="#88553a"/>
                <polygon points="121.73 75.27 121.73 83.71 119.66 82.52 119.66 74.07 121.73 75.27" fill="#74462e"/>
                <polygon points="121.74 51.42 121.74 78.61 127.35 75.38 127.35 48.19 121.74 51.42" fill="#80c375"/>
                <polygon points="127.35 48.19 121.74 51.42 116.1 48.16 121.71 44.93 127.35 48.19" fill="#92ca82"/>
                <polygon points="121.74 51.41 121.74 78.61 116.1 75.35 116.1 48.16 121.74 51.41" fill="#4fa56a"/>
              </g>
            </g>
            <g>
              <polygon points="86.65 84.61 84.15 87.81 85.45 91.68 101.37 94.42 102.95 92.39 105.94 92.9 106.85 91.73 106.85 91.73 106.38 90.3 103.38 89.79 102.56 87.35 86.65 84.61 86.65 84.61" fill="#404041" opacity="0.2" style="mix-blend-mode: multiply"/>
              <g>
                <polygon points="105.93 84.47 105.93 92.91 107.99 91.72 107.99 83.28 105.93 84.47" fill="#88553a"/>
                <polygon points="105.93 84.46 105.93 92.91 103.86 91.71 103.86 83.27 105.93 84.46" fill="#74462e"/>
                <polygon points="105.94 60.61 105.94 87.8 111.55 84.57 111.55 57.38 105.94 60.61" fill="#80c375"/>
                <polygon points="111.55 57.38 105.94 60.61 100.3 57.36 105.91 54.13 111.55 57.38" fill="#92ca82"/>
                <polygon points="105.94 60.61 105.94 87.8 100.3 84.54 100.3 57.35 105.94 60.61" fill="#4fa56a"/>
              </g>
            </g>
            <g>
              <polygon points="70.85 93.81 68.35 97 69.65 100.87 85.56 103.61 87.15 101.58 90.13 102.09 91.05 100.92 91.05 100.92 90.57 99.5 87.58 98.98 86.76 96.54 70.85 93.81 70.85 93.81" fill="#404041" opacity="0.2" style="mix-blend-mode: multiply"/>
              <g>
                <polygon points="90.13 93.66 90.13 102.1 92.19 100.92 92.19 92.47 90.13 93.66" fill="#88553a"/>
                <polygon points="90.13 93.66 90.13 102.1 88.06 100.91 88.06 92.46 90.13 93.66" fill="#74462e"/>
                <polygon points="90.14 69.81 90.14 97 95.75 93.77 95.75 66.58 90.14 69.81" fill="#80c375"/>
                <polygon points="95.75 66.58 90.14 69.81 84.5 66.55 90.11 63.32 95.75 66.58" fill="#92ca82"/>
                <polygon points="90.14 69.8 90.14 96.99 84.5 93.74 84.5 66.55 90.14 69.8" fill="#4fa56a"/>
              </g>
            </g>
            <g>
              <polygon points="324.65 148.53 322.15 151.73 323.45 155.6 339.37 158.34 340.95 156.31 343.94 156.82 344.85 155.65 344.85 155.65 344.38 154.22 341.38 153.71 340.56 151.27 324.65 148.53 324.65 148.53" fill="#404041" opacity="0.2" style="mix-blend-mode: multiply"/>
              <g>
                <polygon points="343.93 148.38 343.93 156.83 346 155.64 346 147.2 343.93 148.38" fill="#88553a"/>
                <polygon points="343.93 148.38 343.93 156.83 341.86 155.63 341.86 147.19 343.93 148.38" fill="#74462e"/>
                <polygon points="343.94 124.53 343.94 151.72 349.55 148.49 349.55 121.3 343.94 124.53" fill="#80c375"/>
                <polygon points="349.55 121.3 343.94 124.53 338.3 121.28 343.91 118.05 349.55 121.3" fill="#92ca82"/>
                <polygon points="343.94 124.53 343.94 151.72 338.3 148.46 338.3 121.27 343.94 124.53" fill="#4fa56a"/>
              </g>
            </g>
            <g>
              <polygon points="75.25 110.11 74.77 108.69 71.78 108.18 70.96 105.74 63.7 104.49 53.98 110.09 69.76 112.81 71.35 110.78 74.33 111.29 75.25 110.11 75.25 110.11" fill="#404041" opacity="0.2" style="mix-blend-mode: multiply"/>
              <g>
                <polygon points="74.33 102.85 74.33 111.3 76.39 110.11 76.39 101.67 74.33 102.85" fill="#88553a"/>
                <polygon points="74.33 102.85 74.33 111.3 72.26 110.1 72.26 101.66 74.33 102.85" fill="#74462e"/>
                <polygon points="74.34 79 74.34 106.19 79.95 102.96 79.95 75.77 74.34 79" fill="#80c375"/>
                <polygon points="79.95 75.77 74.34 79 68.7 75.74 74.31 72.51 79.95 75.77" fill="#92ca82"/>
                <polygon points="74.34 79 74.34 106.19 68.7 102.93 68.7 75.74 74.34 79" fill="#4fa56a"/>
              </g>
            </g>
            <g>
              <g>
                <polygon points="153.36 194.41 160.2 198.34 167.07 194.37 160.24 190.44 153.36 194.41" fill="#404041" opacity="0.2" style="mix-blend-mode: multiply"/>
                <polygon points="162.49 186.23 162.49 197.04 157.32 194.07 157.32 183.26 162.49 186.23" fill="#4fa56a"/>
                <polygon points="157.32 183.26 162.49 186.23 167.67 183.23 162.51 180.26 157.32 183.26" fill="#92ca82"/>
                <polygon points="162.49 186.22 162.49 197.04 167.67 194.04 167.67 183.23 162.49 186.22" fill="#80c375"/>
              </g>
              <g>
                <polygon points="141.14 187.36 147.97 191.29 154.85 187.32 148.01 183.39 141.14 187.36" fill="#404041" opacity="0.2" style="mix-blend-mode: multiply"/>
                <polygon points="150.26 179.18 150.26 189.99 145.1 187.02 145.1 176.21 150.26 179.18" fill="#4fa56a"/>
                <polygon points="145.1 176.21 150.26 179.18 155.45 176.18 150.29 173.21 145.1 176.21" fill="#92ca82"/>
                <polygon points="150.26 179.18 150.26 189.99 155.45 186.99 155.45 176.18 150.26 179.18" fill="#80c375"/>
              </g>
              <g>
                <polygon points="128.91 180.31 135.75 184.24 142.63 180.27 135.79 176.34 128.91 180.31" fill="#404041" opacity="0.2" style="mix-blend-mode: multiply"/>
                <polygon points="138.04 172.13 138.04 182.94 132.88 179.97 132.88 169.16 138.04 172.13" fill="#4fa56a"/>
                <polygon points="132.88 169.16 138.04 172.13 143.23 169.13 138.06 166.16 132.88 169.16" fill="#92ca82"/>
                <polygon points="138.04 172.13 138.04 182.94 143.23 179.94 143.23 169.13 138.04 172.13" fill="#80c375"/>
              </g>
              <g>
                <polygon points="116.69 173.26 123.53 177.19 130.4 173.22 123.56 169.29 116.69 173.26" fill="#404041" opacity="0.2" style="mix-blend-mode: multiply"/>
                <polygon points="125.81 165.08 125.81 175.89 120.65 172.92 120.65 162.11 125.81 165.08" fill="#4fa56a"/>
                <polygon points="120.65 162.11 125.81 165.08 131 162.08 125.84 159.11 120.65 162.11" fill="#92ca82"/>
                <polygon points="125.81 165.07 125.81 175.89 131 172.89 131 162.08 125.81 165.07" fill="#80c375"/>
              </g>
              <g>
                <polygon points="104.47 166.21 111.3 170.14 118.18 166.17 111.34 162.24 104.47 166.21" fill="#404041" opacity="0.2" style="mix-blend-mode: multiply"/>
                <polygon points="113.59 158.03 113.59 168.84 108.43 165.87 108.43 155.06 113.59 158.03" fill="#4fa56a"/>
                <polygon points="108.43 155.06 113.59 158.03 118.78 155.03 113.62 152.06 108.43 155.06" fill="#92ca82"/>
                <polygon points="113.59 158.03 113.59 168.84 118.78 165.84 118.78 155.03 113.59 158.03" fill="#80c375"/>
              </g>
              <g>
                <polygon points="92.24 159.16 99.08 163.09 105.95 159.12 99.12 155.19 92.24 159.16" fill="#404041" opacity="0.2" style="mix-blend-mode: multiply"/>
                <polygon points="101.37 150.98 101.37 161.79 96.2 158.82 96.2 148.01 101.37 150.98" fill="#4fa56a"/>
                <polygon points="96.2 148.01 101.37 150.98 106.55 147.98 101.39 145.01 96.2 148.01" fill="#92ca82"/>
                <polygon points="101.37 150.97 101.37 161.79 106.55 158.79 106.55 147.98 101.37 150.97" fill="#80c375"/>
              </g>
            </g>
            <polygon points="23.09 130.61 21.19 131.71 213.64 243.56 215.53 242.47 23.09 130.61" fill="#efefef"/>
            <polygon points="231.86 139.06 222.97 172.11 258.14 192.57 271.58 184.83 271.5 161.93 231.86 139.06" fill="#404041" opacity="0.2" style="mix-blend-mode: multiply"/>
            <g>
              <polygon points="221.15 202.98 247.64 187.98 232.31 179.22 205.82 194.22 221.15 202.98" fill="#404041" opacity="0.2" style="mix-blend-mode: multiply"/>
              <g>
                <polygon points="244.22 186.2 241.76 185.58 241.68 183.52 243.38 183.52 244.49 185.07 244.22 186.2" fill="#250920"/>
                <polygon points="228.74 195.11 225.43 193.94 227.01 192.2 229.82 193.03 228.74 195.11" fill="#250920"/>
                <g>
                  <g>
                    <path d="M223.79,199.89l0,0-.06-.05h0l-.06-.07,0,0-.05-.05v0l-.05-.06v0l-.06-.09a.93.93,0,0,0-.05-.1h0l0-.09v0s0,0,0-.05a.24.24,0,0,0,0-.08l0-.06a.25.25,0,0,0,0-.07v-.12a.64.64,0,0,0,0-.07v-.06a.22.22,0,0,1,0-.08v0a.38.38,0,0,0,0-.1v-.36s0-.07,0-.1V198a.41.41,0,0,0,0-.11v0a.77.77,0,0,1,0-.15v0l0-.13v-.05a.44.44,0,0,1,0-.1v-.05a.44.44,0,0,0,0-.1l0-.06,0-.1V197s0-.1.05-.15h0a.58.58,0,0,0,.05-.14l0,0s0-.07,0-.11l0,0s0-.08,0-.11l0,0a.61.61,0,0,1,.07-.14v0l.06-.11a.3.3,0,0,1,0-.08.25.25,0,0,1,0-.07,1.28,1.28,0,0,1,.11-.2l0-.07.05-.08,0-.07a.35.35,0,0,0,0-.08l0-.05c0-.07.09-.14.15-.21h0l.11-.15.08-.1,0,0a.69.69,0,0,1,.11-.13l0,0,.07-.09.05,0,.07-.07,0,0,.06-.07.05,0,.07-.06.05,0,.07-.06.05,0,.08-.06.05,0,.08-.06,0,0,.12-.09h0l.12-.08.12-.06,0,0,.08,0,0,0,.12-.05.12,0h0l.08,0,0,0h.12l.07,0h.5l.09,0h0l.07,0h0l.06,0,.07,0h0l.1,0-1.77-1-.1,0h0a1.6,1.6,0,0,0-1.16,0,3.16,3.16,0,0,0-1,.57l0,0-.05,0a5.71,5.71,0,0,0-2,3.82,2.59,2.59,0,0,0,.29,1.5h0v0l0,.06,0,0,0,.05v0l.07.07h0l.06.05,0,0,0,0,0,0,.07.05,1.77,1-.07-.05,0,0Z" fill="#40363b"/>
                    <path d="M225.77,193.85a5.7,5.7,0,0,0-2.58,4.48c0,1.65,1.17,2.31,2.6,1.48a5.71,5.71,0,0,0,2.59-4.47C228.37,193.69,227.21,193,225.77,193.85Z" fill="#4e444a"/>
                  </g>
                  <path d="M225.78,194.72a4.05,4.05,0,0,0-1.84,3.17c0,1.17.83,1.64,1.85,1.06a4.07,4.07,0,0,0,1.83-3.18C227.62,194.61,226.79,194.14,225.78,194.72Z" fill="#bbbdbf"/>
                  <path d="M225.78,195.42a2.7,2.7,0,0,0-1.23,2.13c0,.78.56,1.09,1.24.7a2.72,2.72,0,0,0,1.23-2.13C227,195.34,226.46,195,225.78,195.42Z" fill="#40363b"/>
                  <path d="M225.78,195.74a2.12,2.12,0,0,0-.95,1.64c0,.6.43.85,1,.54a2.08,2.08,0,0,0,.94-1.63C226.73,195.68,226.3,195.44,225.78,195.74Z" fill="#bbbdbf"/>
                  <polygon points="227.08 196.19 227.07 195.98 226.01 196.6 226.76 195.29 226.63 195.22 225.87 196.52 225.87 195.29 225.69 195.4 225.69 196.63 224.93 196.2 224.8 196.42 225.56 196.86 224.49 197.47 224.49 197.69 225.56 197.07 224.81 198.38 224.94 198.45 225.69 197.14 225.69 198.37 225.88 198.27 225.88 197.04 226.63 197.47 226.76 197.24 226.01 196.81 227.08 196.19" fill="#bbbdbf"/>
                  <path d="M225.78,196.43a.78.78,0,0,0-.35.61c0,.22.16.31.35.2a.74.74,0,0,0,.35-.61C226.13,196.41,226,196.32,225.78,196.43Z" fill="#40363b"/>
                </g>
                <g>
                  <g>
                    <path d="M239.34,190.82l0,0-.06-.05h0l-.07-.07v0l0-.05,0,0,0-.06v0l-.06-.09a.93.93,0,0,1-.05-.1h0a.36.36,0,0,1,0-.09v0l0-.05a.31.31,0,0,1,0-.08l0-.06a.64.64,0,0,1,0-.07v-.06l0-.06a.15.15,0,0,0,0-.07v-.06a.22.22,0,0,0,0-.08v-.05s0-.06,0-.1v-.37a.28.28,0,0,1,0-.09v0s0-.07,0-.11v0a.77.77,0,0,1,0-.15v0s0-.08,0-.13v0a.3.3,0,0,0,0-.1l0-.05s0-.07,0-.1l0-.06,0-.1V188c0-.05,0-.1.05-.15h0l0-.14,0,0a.49.49,0,0,1,0-.11l0-.05,0-.1,0,0,.06-.15,0,0,.06-.11,0-.08,0-.07.12-.2,0-.07a.35.35,0,0,1,0-.08l0-.07.05-.08,0,0,.14-.21h0L240,186l.09-.1,0,0a1.47,1.47,0,0,1,.1-.13l0,0,.08-.09,0-.05.06-.06.05-.05a.46.46,0,0,0,.07-.07l.05,0,.07-.06,0,0,.07-.06,0,0,.07-.06.05,0L241,185l0,0,.12-.08h0l.12-.08.12-.06,0,0,.08,0,0,0,.12,0,.12-.05h0l.07,0,.05,0h.12l.06,0h.51l.09,0h0l.08,0h0l.06,0,.07,0h0l.1,0-1.77-1-.1,0h0a1.6,1.6,0,0,0-1.16,0,3.33,3.33,0,0,0-1,.56l0,0-.05,0a5.67,5.67,0,0,0-2,3.82,2.51,2.51,0,0,0,.29,1.5h0v0l0,.06,0,0,.05.05v0l.07.07h0l.06.05,0,0,.05,0,0,0,.08.05,1.77,1-.07-.05,0,0Z" fill="#40363b"/>
                    <path d="M241.32,184.78a5.69,5.69,0,0,0-2.58,4.48c0,1.65,1.17,2.31,2.6,1.48a5.67,5.67,0,0,0,2.58-4.47C243.92,184.62,242.75,184,241.32,184.78Z" fill="#4e444a"/>
                  </g>
                  <path d="M241.32,185.65a4.07,4.07,0,0,0-1.83,3.17c0,1.17.83,1.64,1.85,1.05a4,4,0,0,0,1.83-3.17C243.16,185.54,242.34,185.07,241.32,185.65Z" fill="#bbbdbf"/>
                  <path d="M241.33,186.35a2.7,2.7,0,0,0-1.23,2.13c0,.78.55,1.09,1.23.7a2.67,2.67,0,0,0,1.23-2.13C242.56,186.27,242,186,241.33,186.35Z" fill="#40363b"/>
                  <path d="M241.33,186.67a2.1,2.1,0,0,0-1,1.64c0,.6.43.85,1,.54a2.06,2.06,0,0,0,.95-1.63C242.28,186.61,241.85,186.37,241.33,186.67Z" fill="#bbbdbf"/>
                  <polygon points="242.62 187.12 242.62 186.91 241.55 187.53 242.31 186.22 242.18 186.15 241.42 187.45 241.42 186.22 241.23 186.33 241.24 187.56 240.48 187.13 240.35 187.35 241.11 187.79 240.04 188.4 240.04 188.62 241.11 188 240.35 189.31 240.49 189.38 241.24 188.07 241.24 189.3 241.43 189.2 241.42 187.97 242.18 188.4 242.31 188.17 241.55 187.74 242.62 187.12" fill="#bbbdbf"/>
                  <path d="M241.33,187.36a.75.75,0,0,0-.35.61c0,.22.16.31.35.2a.77.77,0,0,0,.35-.61C241.68,187.34,241.52,187.25,241.33,187.36Z" fill="#40363b"/>
                </g>
                <polygon points="241.99 181.48 230.28 174.73 232.79 175.07 244.49 181.83 241.99 181.48" fill="#c3d630"/>
                <polygon points="237.51 183.69 225.64 176.79 230.28 174.73 241.99 181.48 237.51 183.69" fill="#8dc540"/>
                <polygon points="233.77 181.77 222.16 175.03 225.64 176.79 237.51 183.69 233.77 181.77" fill="#659137"/>
                <polygon points="220.28 199.99 208.4 193.12 208.4 187.89 220.28 194.79 220.28 199.99" fill="#78a841"/>
                <polygon points="220.28 194.79 208.4 187.89 211.04 181.27 222.69 188.17 220.28 194.79" fill="#70565d"/>
                <polygon points="222.69 188.17 211.04 181.27 222.16 175.03 233.77 181.77 222.69 188.17" fill="#8dc540"/>
                <path d="M211,181.27l-2.64,6.62,11.88,6.9,2.41-6.62ZM220,193.89l-10.8-6.27,2.22-5.45,10.57,6.27Z" fill="#c3d630"/>
                <path d="M238.43,189.44a6.37,6.37,0,0,1,2.89-5c1.6-.93,2.9-.19,2.91,1.65,0,0,0,.07,0,.11l.79-.46-.52-3.91-2.5-.35-4.48,2.21-3.74-1.92-11.08,6.4-2.41,6.62V200l2.54-1.47a6.53,6.53,0,0,1,3-5.09c1.63-.94,3-.19,3,1.68l9.7-5.58S238.43,189.47,238.43,189.44Z" fill="#78a841"/>
                <path d="M238.43,189.44a6.37,6.37,0,0,1,2.89-5c1.6-.93,2.9-.18,2.91,1.65,0,0,0,.07,0,.11l.79-.46-.52-3.91h0l-24.2,14V200l2.54-1.47a6.51,6.51,0,0,1,3-5.08c1.63-.95,3-.19,3,1.67l9.7-5.58S238.43,189.47,238.43,189.44Z" fill="#659137"/>
                <path d="M220.28,196.21l-2.09-1.2a.28.28,0,0,0-.42.24v.69a.57.57,0,0,0,.29.5l2.22,1.26Z" fill="#a01623" fill-rule="evenodd"/>
                <polygon points="220.28 196.21 219.6 195.82 219.6 197.33 220.28 197.7 220.28 196.21" fill="#faaf40" fill-rule="evenodd"/>
                <path d="M210.37,190.57l-2-1.13V191l2,1.11a.37.37,0,0,0,.55-.32v-.24A1.08,1.08,0,0,0,210.37,190.57Z" fill="#a01623" fill-rule="evenodd"/>
                <polygon points="209.07 189.83 208.4 189.44 208.4 190.95 209.07 191.32 209.07 189.83" fill="#faaf40" fill-rule="evenodd"/>
                <g>
                  <polygon points="233.66 182.48 228.96 185.19 228.63 188.69 236.93 184.13 233.66 182.48" fill="#644c53"/>
                  <polygon points="222.33 192.14 228.13 188.96 228.45 185.48 223.48 188.35 222.33 192.14" fill="#644c53"/>
                </g>
                <g>
                  <g>
                    <polygon points="219.69 198.7 219.69 200.33 207.8 193.49 207.8 191.86 219.69 198.7" fill="#659137"/>
                    <polygon points="219.69 198.7 219.69 200.33 220.28 200 220.28 198.37 219.69 198.7" fill="#78a841"/>
                    <polygon points="207.8 191.86 219.69 198.7 220.28 198.37 208.39 191.53 207.8 191.86" fill="#8dc540"/>
                  </g>
                  <polygon points="214.33 196.54 214.33 197.82 211.85 196.39 211.85 195.12 214.33 196.54" fill="#404041"/>
                </g>
                <polygon points="209.15 187.62 221.94 188.44 211.37 182.16 209.15 187.62" fill="#fff" opacity="0.2"/>
              </g>
            </g>
            <polygon points="211.75 177.1 123.93 125.97 108.77 134.79 138.95 152.37 132.63 156 157.34 170.39 163.66 166.75 196.58 185.92 211.75 177.1" fill="#404041" opacity="0.1" style="mix-blend-mode: multiply"/>
            <g>
              <polygon points="110.14 149.22 125.48 158.2 143.34 147.99 128 139 110.14 149.22" fill="#231f20" opacity="0.1" style="mix-blend-mode: multiply"/>
              <g>
                <g>
                  <polygon points="143.19 145.09 141.97 145.81 127.71 137.51 128.94 136.79 143.19 145.09" fill="#e4e4e6"/>
                  <polygon points="141.97 145.81 141.97 148.63 143.19 147.91 143.19 145.09 141.97 145.81" fill="#4d5568"/>
                  <polygon points="127.71 137.51 127.71 140.33 141.97 148.63 141.97 145.81 127.71 137.51" fill="#3b4358"/>
                </g>
                <g>
                  <polygon points="125.86 138.09 140.12 146.38 143.19 144.58 128.94 136.29 125.86 138.09" fill="#a7581d"/>
                  <polygon points="140.12 146.38 140.12 146.89 125.86 138.59 125.86 138.09 140.12 146.38" fill="#ad611f"/>
                  <polygon points="143.19 144.58 143.19 145.09 140.12 146.89 140.12 146.38 143.19 144.58" fill="#ad611f"/>
                </g>
                <g>
                  <polygon points="136.87 145.42 134.16 147 119.91 138.71 122.62 137.12 136.87 145.42" fill="#e4e4e6"/>
                  <polygon points="134.16 147 134.16 153.18 136.87 151.59 136.87 145.42 134.16 147" fill="#4d5568"/>
                  <polygon points="119.91 138.71 119.91 144.88 134.16 153.18 134.16 147 119.91 138.71" fill="#3b4358"/>
                </g>
                <g>
                  <polygon points="128.4 153.71 127.17 154.43 112.92 146.13 114.15 145.42 128.4 153.71" fill="#e4e4e6"/>
                  <polygon points="127.17 154.43 127.17 157.25 128.4 156.53 128.4 153.71 127.17 154.43" fill="#4d5568"/>
                  <polygon points="112.92 146.13 112.92 148.96 127.17 157.25 127.17 154.43 112.92 146.13" fill="#3b4358"/>
                </g>
                <g>
                  <polygon points="115.42 139.8 131.89 149.39 140.94 144.21 124.47 134.62 115.42 139.8" fill="#ba6e22"/>
                  <polygon points="131.89 149.39 131.89 150.15 115.42 140.56 115.42 139.8 131.89 149.39" fill="#ad611f"/>
                  <polygon points="140.94 144.21 140.94 144.96 131.89 150.15 131.89 149.39 140.94 144.21" fill="#a7581d"/>
                </g>
                <g>
                  <polygon points="112.92 145.63 127.17 153.93 130.25 152.13 115.99 143.83 112.92 145.63" fill="#ba6e22"/>
                  <polygon points="127.17 153.93 127.17 154.43 112.92 146.13 112.92 145.63 127.17 153.93" fill="#ad611f"/>
                  <polygon points="130.25 152.13 130.25 152.63 127.17 154.43 127.17 153.93 130.25 152.13" fill="#a7581d"/>
                </g>
              </g>
              <g>
                <g>
                  <polygon points="128.35 141.43 128.35 143.05 130.09 142.03 130.09 140.41 128.35 141.43" fill="#dee2e2"/>
                  <polygon points="130.09 140.41 128.35 141.43 126.71 140.48 128.47 139.48 130.09 140.41" fill="url(#linear-gradient-8)"/>
                  <polygon points="128.35 141.43 128.35 143.05 126.71 142.1 126.71 140.48 128.35 141.43" fill="#d1d1d1"/>
                </g>
                <path d="M126.71,140.48l1.64,1,1.74-1-1.62-.93Zm.28,0,1.48-.84,1.34.76-1.46.86Z" fill="#fafbff"/>
              </g>
            </g>
            <g>
              <polygon points="166.37 181.87 181.72 190.86 199.57 180.64 184.23 171.66 166.37 181.87" fill="#231f20" opacity="0.1" style="mix-blend-mode: multiply"/>
              <g>
                <g>
                  <polygon points="199.43 177.74 198.2 178.46 183.94 170.17 185.17 169.45 199.43 177.74" fill="#e4e4e6"/>
                  <polygon points="198.2 178.46 198.2 181.28 199.43 180.56 199.43 177.74 198.2 178.46" fill="#4d5568"/>
                  <polygon points="183.94 170.17 183.94 172.99 198.2 181.28 198.2 178.46 183.94 170.17" fill="#3b4358"/>
                </g>
                <g>
                  <polygon points="182.1 170.74 196.35 179.04 199.43 177.24 185.17 168.94 182.1 170.74" fill="#a7581d"/>
                  <polygon points="196.35 179.04 196.35 179.54 182.1 171.25 182.1 170.74 196.35 179.04" fill="#ad611f"/>
                  <polygon points="199.43 177.24 199.43 177.74 196.35 179.54 196.35 179.04 199.43 177.24" fill="#ad611f"/>
                </g>
                <g>
                  <polygon points="193.11 178.07 190.4 179.65 176.14 171.36 178.85 169.78 193.11 178.07" fill="#e4e4e6"/>
                  <polygon points="190.4 179.65 190.4 185.83 193.11 184.25 193.11 178.07 190.4 179.65" fill="#4d5568"/>
                  <polygon points="176.14 171.36 176.14 177.54 190.4 185.83 190.4 179.65 176.14 171.36" fill="#3b4358"/>
                </g>
                <g>
                  <polygon points="184.63 186.36 183.41 187.08 169.15 178.79 170.38 178.07 184.63 186.36" fill="#e4e4e6"/>
                  <polygon points="183.41 187.08 183.41 189.9 184.63 189.19 184.63 186.36 183.41 187.08" fill="#4d5568"/>
                  <polygon points="169.15 178.79 169.15 181.61 183.41 189.9 183.41 187.08 169.15 178.79" fill="#3b4358"/>
                </g>
                <g>
                  <polygon points="171.65 172.46 188.12 182.04 197.17 176.86 180.7 167.27 171.65 172.46" fill="#ba6e22"/>
                  <polygon points="188.12 182.04 188.12 182.8 171.65 173.21 171.65 172.46 188.12 182.04" fill="#ad611f"/>
                  <polygon points="197.17 176.86 197.17 177.61 188.12 182.8 188.12 182.04 197.17 176.86" fill="#a7581d"/>
                </g>
                <g>
                  <polygon points="169.15 178.28 183.4 186.58 186.48 184.78 172.23 176.48 169.15 178.28" fill="#ba6e22"/>
                  <polygon points="183.4 186.58 183.4 187.09 169.15 178.79 169.15 178.28 183.4 186.58" fill="#ad611f"/>
                  <polygon points="186.48 184.78 186.48 185.29 183.4 187.09 183.4 186.58 186.48 184.78" fill="#a7581d"/>
                </g>
              </g>
              <g>
                <g>
                  <polygon points="184.58 174.09 184.58 175.7 186.33 174.68 186.33 173.07 184.58 174.09" fill="#dee2e2"/>
                  <polygon points="186.33 173.07 184.58 174.09 182.94 173.14 184.71 172.14 186.33 173.07" fill="url(#linear-gradient-9)"/>
                  <polygon points="184.58 174.09 184.58 175.7 182.94 174.75 182.94 173.14 184.58 174.09" fill="#d1d1d1"/>
                </g>
                <path d="M182.94,173.14l1.64,1,1.75-1-1.62-.93Zm.28,0,1.49-.84,1.33.77-1.46.85Z" fill="#fafbff"/>
              </g>
            </g>
            <g>
              <g>
                <polygon points="46.2 117.26 46.2 128.95 40.76 125.78 40.76 114.09 46.2 117.26" fill="#d1d1d1"/>
                <polygon points="40.76 114.09 46.2 117.26 51.31 114.3 45.8 111.18 40.76 114.09" fill="#fafbff"/>
                <polygon points="46.2 117.25 46.2 128.95 51.31 126 51.31 114.3 46.2 117.25" fill="#dee2e2"/>
              </g>
              <g>
                <polygon points="46.05 48.91 46.05 116.22 42.44 114.12 42.44 46.81 46.05 48.91" fill="#404041" opacity="0.2" style="mix-blend-mode: multiply"/>
                <polygon points="42.44 46.81 46.05 48.91 49.45 46.95 45.79 44.88 42.44 46.81" fill="#f9f040"/>
                <polygon points="46.05 48.91 46.05 116.22 49.45 114.26 49.45 46.95 46.05 48.91" fill="#f9dc40"/>
              </g>
            </g>
            <polygon points="166.14 125.94 171.72 129.16 166.14 140.44 166.14 125.94" fill="#fff" opacity="0.5" style="mix-blend-mode: overlay"/>
            <polygon points="174.28 130.65 179.87 133.88 174.28 145.15 174.28 130.65" fill="#fff" opacity="0.5" style="mix-blend-mode: overlay"/>
            <polygon points="187.66 150.83 193.31 154.12 187.66 156.24 187.66 150.83" fill="#fff" opacity="0.5" style="mix-blend-mode: overlay"/>
            <polygon points="139.42 122.99 145.07 126.27 139.42 128.4 139.42 122.99" fill="#fff" opacity="0.5" style="mix-blend-mode: overlay"/>
            <g>
              <polygon points="226.34 86.61 259.65 106.04 267.47 101.35 234.16 82.09 226.34 86.61" fill="#4f3952"/>
              <polygon points="234.16 82.09 234.16 83.2 266.49 101.94 267.47 101.35 234.16 82.09" fill="#70709e"/>
              <polygon points="234.16 83.2 227.36 87.2 250.71 100.85 257.63 96.82 234.16 83.2" fill="#109648"/>
              <polygon points="250.71 100.85 251.78 101.47 257.63 98.06 257.63 96.82 250.71 100.85" fill="#096a37"/>
            </g>
            <polygon points="46.2 128.95 25.32 126.59 34.12 121.52 40.76 122.05 40.76 125.78 46.2 128.95" fill="#404041" opacity="0.2" style="mix-blend-mode: multiply"/>
            <g>
              <path d="M28.85,45.18a19.86,19.86,0,0,0-1.49,7L23,49.72c.12-6.79,4.16-13,9-17.69a43,43,0,0,1,15.08-9.65,12.15,12.15,0,0,1,6.76-.85c2.26.51,4.11,2.07,6.18,3.12-3-1.44-6.51-.66-9.57.57a44,44,0,0,0-11.47,7,38,38,0,0,0-7.89,8.56A26.07,26.07,0,0,0,28.85,45.18Z" fill="#109648"/>
              <polygon points="68.06 45.36 63.67 42.84 58.99 45.35 63.31 48.05 68.06 45.36" fill="#109648"/>
              <polygon points="27.36 51.98 27.39 68.79 23.07 66.28 23.04 49.47 27.36 51.98" fill="url(#linear-gradient-10)"/>
              <polygon points="23.38 71.05 19.06 68.54 19.12 83.48 23.44 86 23.38 71.05" fill="url(#linear-gradient-11)"/>
              <polygon points="27.39 68.79 23.07 66.28 19.06 68.54 23.38 71.05 27.39 68.79" fill="#109648"/>
              <path d="M27.39,68.79l0-16.73a19.09,19.09,0,0,1,1.88-8,30.58,30.58,0,0,1,4.53-6.95,45.28,45.28,0,0,1,11.46-9.47,36,36,0,0,1,6.94-3.19,13.29,13.29,0,0,1,5.63-.71A5.61,5.61,0,0,1,61.74,26a8.18,8.18,0,0,1,1.39,4.16l.15,1.67L63.3,44v4.07l4.73-2.69V60.18L23.44,86l-.06-14.94Z" fill="#096a37"/>
            </g>
            <g>
              <polygon points="232.91 201.23 230.41 204.42 231.71 208.29 247.63 211.03 249.21 209 252.2 209.51 253.11 208.34 253.11 208.34 252.64 206.92 249.64 206.4 248.82 203.96 232.91 201.22 232.91 201.23" fill="#404041" opacity="0.2" style="mix-blend-mode: multiply"/>
              <g>
                <polygon points="252.19 201.08 252.19 209.52 254.25 208.34 254.25 199.89 252.19 201.08" fill="#88553a"/>
                <polygon points="252.19 201.08 252.19 209.52 250.12 208.32 250.12 199.88 252.19 201.08" fill="#74462e"/>
                <polygon points="252.2 177.22 252.2 204.42 257.81 201.19 257.81 174 252.2 177.22" fill="#80c375"/>
                <polygon points="257.81 174 252.2 177.22 246.56 173.97 252.17 170.74 257.81 174" fill="#92ca82"/>
                <polygon points="252.2 177.22 252.2 204.41 246.56 201.16 246.56 173.97 252.2 177.22" fill="#4fa56a"/>
              </g>
            </g>
            <g>
              <polygon points="217.11 210.42 214.61 213.62 215.91 217.49 231.83 220.22 233.41 218.19 236.4 218.71 237.31 217.53 237.31 217.53 236.84 216.11 233.84 215.6 233.02 213.15 217.11 210.42 217.11 210.42" fill="#404041" opacity="0.2" style="mix-blend-mode: multiply"/>
              <g>
                <polygon points="236.39 210.27 236.39 218.72 238.45 217.53 238.45 209.08 236.39 210.27" fill="#88553a"/>
                <polygon points="236.39 210.27 236.39 218.71 234.32 217.52 234.32 209.07 236.39 210.27" fill="#74462e"/>
                <polygon points="236.4 186.42 236.4 213.61 242.01 210.38 242.01 183.19 236.4 186.42" fill="#80c375"/>
                <polygon points="242.01 183.19 236.4 186.42 230.76 183.16 236.37 179.93 242.01 183.19" fill="#92ca82"/>
                <polygon points="236.4 186.41 236.4 213.61 230.76 210.35 230.76 183.16 236.4 186.41" fill="#4fa56a"/>
              </g>
            </g>
            <g>
              <polygon points="201.31 219.61 198.81 222.81 200.11 226.68 216.02 229.42 217.61 227.39 220.59 227.9 221.51 226.73 221.51 226.73 221.03 225.31 218.04 224.79 217.22 222.35 201.31 219.61 201.31 219.61" fill="#404041" opacity="0.2" style="mix-blend-mode: multiply"/>
              <g>
                <polygon points="220.59 219.47 220.59 227.91 222.65 226.72 222.65 218.28 220.59 219.47" fill="#88553a"/>
                <polygon points="220.59 219.46 220.59 227.91 218.52 226.71 218.52 218.27 220.59 219.46" fill="#74462e"/>
                <polygon points="220.6 195.61 220.6 222.8 226.21 219.57 226.21 192.38 220.6 195.61" fill="#80c375"/>
                <polygon points="226.21 192.38 220.6 195.61 214.96 192.36 220.57 189.13 226.21 192.38" fill="#92ca82"/>
                <polygon points="220.6 195.61 220.6 222.8 214.96 219.54 214.96 192.35 220.6 195.61" fill="#4fa56a"/>
              </g>
            </g>
          </g>
          <g>
            <path d="M75.92,44.45c-1.29,16.7-14.24,34.79-30.2,40.9-17.57,6.74-32-3.36-30.5-23.22S33.33,23,50.7,19.59C66.49,16.47,77.21,27.72,75.92,44.45Z" fill="none" stroke="#c8d6c8" stroke-miterlimit="10" stroke-width="2.78"/>
            <g>
              <path d="M73.12,45.25C72,60.08,60.44,76,46.34,81.29,31,87,18.59,78,19.88,60.76S35.55,26.63,50.73,23.45C64.69,20.53,74.27,30.39,73.12,45.25Z" fill="#e4eae4"/>
              <path d="M60.88,21.82c-1,13.33-11.7,26.89-24.68,30.55-14,3.93-25.24-5-24.11-20.28S26.21,2.71,40.09.78C53-1,61.9,8.47,60.88,21.82Z" fill="#fff" stroke="#c8d6c8" stroke-miterlimit="10" stroke-width="1.13"/>
              <path d="M39.37,77.24c-.78,10.25-9.43,21.8-19.83,26-11,4.45-19.76-1-18.92-12.31S11.5,67.5,22.45,64.19C32.8,61.06,40.14,67,39.37,77.24Z" fill="#fff" stroke="#c8d6c8" stroke-miterlimit="10" stroke-width="1.13"/>
              <path d="M90.93,38.72c-.77,9.86-8,20.11-16.49,23-9,3.09-16-3.08-15.16-13.95s9.12-21.47,18-23.52C85.79,22.35,91.7,28.86,90.93,38.72Z" fill="#fff" stroke="#c8d6c8" stroke-miterlimit="10" stroke-width="1.13"/>
              <g>
                <g>
                  <g>
                    <path d="M40.42,17.93c-.08,0-.09.05-.07.11a1.16,1.16,0,0,1-.44,1.14c-.63.34-1.07-.23-.76-.77a1.9,1.9,0,0,1,.62-.61c.07,0,0-.05,0-.1a1.23,1.23,0,0,0-1.84,0c-.88,1-.18,2.53.49,3.1a.58.58,0,0,1,.12.65,2.67,2.67,0,0,1-.9.86c1.35-.54,3.68-2,4.09-3.3C42,18.27,41.12,17.71,40.42,17.93Z" fill="#ce0e2d"/>
                    <path d="M39.63,18.86c.11,0,.24-.14.3-.39,0-.1,0-.19,0-.26s0-.1,0-.1a.26.26,0,0,0-.1.07,2.93,2.93,0,0,0-.25.25C39.35,18.71,39.47,18.89,39.63,18.86Z" fill="#ce0e2d"/>
                  </g>
                  <g>
                    <path d="M47.89,15.4a2.62,2.62,0,0,0-1.25-1.7A4.65,4.65,0,0,0,45,13.4a1.25,1.25,0,0,1-.5-.2l0,0c-1-.72-1.26-1.84-3.29-1.82a4,4,0,0,0-1.47.39,4.4,4.4,0,0,0-1.45,1.09l0,0,0,0c-.53.7-.25.46-1.1.41l-.27,0a4.09,4.09,0,0,0-3,1.35,5.23,5.23,0,0,0-.89,1.23,2.79,2.79,0,0,0,0,3.06c.49.58,1.72.41,2,.77s-.2,1.41-.56,1.83a3.8,3.8,0,0,0-.72.89,1.7,1.7,0,0,0-.13,1,.43.43,0,0,0,.38.42c.16-.06-.6-1.19,1.21-2a6.32,6.32,0,0,1,3.42-.44l0,0a.58.58,0,0,0-.12-.65c-.67-.57-1.37-2.1-.49-3.1a1.23,1.23,0,0,1,1.84,0c0,.05,0,.07,0,.1a1.9,1.9,0,0,0-.62.61c-.31.54.13,1.11.76.77A1.16,1.16,0,0,0,40.35,18c0-.06,0-.08.07-.11.7-.22,1.59.34,1.34,1.07-.41,1.32-2.74,2.76-4.09,3.3l-.26.1a2.85,2.85,0,0,0-.92.39c-.23.06-.42.54,0,.41,1.44-.79,2.73.27,4.57.73.51.08,1.9.65,2.12-.22a15.82,15.82,0,0,1,1-3.68c.13-.26.35-.32.63-.38A4,4,0,0,0,46.4,19,3.29,3.29,0,0,0,47.81,17,3.59,3.59,0,0,0,47.89,15.4Zm-8,3.07c-.14.62-.74.42-.35,0a2.93,2.93,0,0,1,.25-.25c.08-.08.14-.12.14,0S40,18.37,39.93,18.47Zm7.2-1.33a2.62,2.62,0,0,1-.57,1,3.63,3.63,0,0,1-2.33,1,4.19,4.19,0,0,0-1.17,0c-.71.18-.58,1-.42.86s.2-.24.45-.32.24-.08.43.11,0,.34-.19.91a9.22,9.22,0,0,0-.49,1.87c-.07.54-.14.81-.37.94a3.14,3.14,0,0,1-1.53-.31c-.75-.22-1.48-.52-2.12-.67,1.86-.9,4.77-3.64,3.25-4.71L42,17.75a1.77,1.77,0,0,0-.67-.26,2.16,2.16,0,0,0-1.15.09,1.21,1.21,0,0,0-1.09-.8,2,2,0,0,0-2.19,1.56,2.26,2.26,0,0,0,.59,2.49,8.48,8.48,0,0,0-1.2.1c-.27,0-.72.11-.75,0a1.44,1.44,0,0,1,.09-.62c.37-1.15.55-2.11-.89-2.44a.14.14,0,0,0,0,.2c.1.21.38.3.48.49.2.35-.26.42-.52.41-2.65-.38-1.11-4.07.82-4.74a3,3,0,0,1,1.31-.2c.53.09,1.06.46.45,1.19-.29.33.77.24.93-.64a3.43,3.43,0,0,1,1.18-1.84,2.36,2.36,0,0,1,.55-.33,2.75,2.75,0,0,1,3.07.4,2.32,2.32,0,0,1,.59,1.09c.32,1.1,1.5,2.44,2.83,1.63,0-.13-.08-.21-.16-.14s-.43.11-.54,0a1.73,1.73,0,0,1-.49-.16c-.71-.31-1.11-1.34.16-1.13a4.34,4.34,0,0,1,1,.31A2.19,2.19,0,0,1,47.13,17.14Z" fill="#006937"/>
                    <path d="M39.72,25.67a3.92,3.92,0,0,0,.59,0,1.5,1.5,0,0,0,.3,0h.29a4.2,4.2,0,0,1,2,.36,3.55,3.55,0,0,1,.82.52,2.05,2.05,0,0,1,.59.83A2,2,0,0,0,44,26.29a2.7,2.7,0,0,0-.74-.8,3.41,3.41,0,0,0-2.17-.6H40a4.75,4.75,0,0,1-1-.19,3.76,3.76,0,0,1-1.66-1.16,2.71,2.71,0,0,0,1.32,1.78A3.34,3.34,0,0,0,39.72,25.67Z" fill="#006937"/>
                    <path d="M27.86,33a2.58,2.58,0,0,1,.25.5.77.77,0,0,1,0,.3,3.16,3.16,0,0,1-.12.37,1.83,1.83,0,0,0,.3-.32,1.18,1.18,0,0,0,.19-.43,1.28,1.28,0,0,0,0-.43l-.06-.35a5.84,5.84,0,0,1-.14-1.25,1.41,1.41,0,0,1,.38-1,6.84,6.84,0,0,1,1.16-.94,1.89,1.89,0,0,0-.73.07,2.16,2.16,0,0,0-.77.39,2.09,2.09,0,0,0-.66.8,2,2,0,0,0-.19.94,2.85,2.85,0,0,0,.12.72A2.46,2.46,0,0,0,27.86,33Z" fill="#006937"/>
                    <path d="M45.4,27.29a2.06,2.06,0,0,0,.35-.75,1.28,1.28,0,0,0-.07-.76,1.37,1.37,0,0,0-.38-.49,2.76,2.76,0,0,0-1-.54,2.65,2.65,0,0,1-.52-.18.85.85,0,0,1-.34-.42.87.87,0,0,0,.2.6,1.92,1.92,0,0,0,.48.34,3.4,3.4,0,0,1,.87.61,1.06,1.06,0,0,1,.39.89,1.8,1.8,0,0,1-.16.59,5.07,5.07,0,0,1-.34.65A2.55,2.55,0,0,0,45.4,27.29Z" fill="#006937"/>
                    <path d="M29.32,28.16a.75.75,0,0,0,.21.26.88.88,0,0,0,.61.17,2.09,2.09,0,0,0,.64-.17,3.33,3.33,0,0,0,.58-.33,2.29,2.29,0,0,1-1.1.12.5.5,0,0,1-.35-.21.37.37,0,0,1-.08-.18.93.93,0,0,1,0-.23,1.13,1.13,0,0,1,.35-.84,2.48,2.48,0,0,1,.42-.36l.22-.14a1.34,1.34,0,0,1,.24-.12c.66-.29,1.47-.37,2.3-.74a4.09,4.09,0,0,0,1.17-.75,4.31,4.31,0,0,0,.86-1.11,6.93,6.93,0,0,1-1,.78,4.58,4.58,0,0,1-1.06.44c-.36.1-.73.17-1.12.24a5.85,5.85,0,0,0-1.26.37l-.33.17a2.75,2.75,0,0,0-.33.23,3.38,3.38,0,0,0-.58.56,2.35,2.35,0,0,0-.42.76,1.46,1.46,0,0,0,0,.77A1.25,1.25,0,0,0,29.32,28.16Z" fill="#006937"/>
                    <path d="M46.43,32.45a1.22,1.22,0,0,0-.38-.51,1.07,1.07,0,0,0-.32-.16c.05-.1.1-.21.14-.31a5.31,5.31,0,0,0,.2-.68,3.25,3.25,0,0,0,0-1.28,2.4,2.4,0,0,0-.46-1,2.88,2.88,0,0,0-.77-.67,3.78,3.78,0,0,1,.62.81,2.9,2.9,0,0,1,.31,1,3.27,3.27,0,0,1-.12,1.15,5.71,5.71,0,0,1-.21.58c-.05.09-.09.18-.14.28l-.15.25L45,32.2l.3.11a.86.86,0,0,1,.49.6,1.77,1.77,0,0,1,.08.46,2,2,0,0,1,0,.23c0,.07,0,.16,0,.25a3.5,3.5,0,0,1-.51,1,8.13,8.13,0,0,1-.87,1,2.21,2.21,0,0,0,.6-.29,3,3,0,0,0,.57-.45,3.44,3.44,0,0,0,.86-1.3,2.72,2.72,0,0,0,.11-.38,2,2,0,0,0-.08-1.07Z" fill="#006937"/>
                    <path d="M36.76,32.63a8.64,8.64,0,0,1-3.15,0,.33.33,0,0,0-.35.36,2.59,2.59,0,0,0,3.15,2.22,5.4,5.4,0,0,0,3.83-3.31c.08-.21-.07-.36-.26-.26A11,11,0,0,1,36.76,32.63ZM36.43,35a2.92,2.92,0,0,1-1.74-.21,3.6,3.6,0,0,1,1.89-1,2.07,2.07,0,0,1,1.7.37A4.34,4.34,0,0,1,36.43,35Zm2.76-2.5a6.11,6.11,0,0,1-2.52.89,4.27,4.27,0,0,1-2.42-.11.28.28,0,0,1-.08-.24,10,10,0,0,0,2.57-.1,12.58,12.58,0,0,0,2.62-.71A.7.7,0,0,1,39.19,32.45Z" fill="#006937"/>
                    <path d="M35.42,28.71a.92.92,0,0,0-.92.7,1,1,0,0,0,0,.17c0,.05.08.06.14,0a1.12,1.12,0,0,1,.53-.19.72.72,0,0,1,.49.1.1.1,0,0,0,.14-.06.6.6,0,0,0,.06-.37A.47.47,0,0,0,35.42,28.71Z" fill="#006937"/>
                    <path d="M38.67,29.12a1,1,0,0,1,.52-.18.7.7,0,0,1,.46.09A.12.12,0,0,0,39.8,29a.62.62,0,0,0,.05-.38.44.44,0,0,0-.42-.35.88.88,0,0,0-.89.68.48.48,0,0,0,0,.17S38.61,29.16,38.67,29.12Z" fill="#006937"/>
                    <path d="M38.73,37.39a3.76,3.76,0,0,1,.12-.76.64.64,0,0,1,0-.07,3.42,3.42,0,0,0,2.33,0,1.6,1.6,0,0,0,1.32.09,3.31,3.31,0,0,0,1.54-1.09,3.35,3.35,0,0,0,.5-.93,3.11,3.11,0,0,0,.17-.94,2,2,0,0,0-.17-.86,1.2,1.2,0,0,0-.21-.34l0,0,0,0a4.49,4.49,0,0,0,.24-.42,3.82,3.82,0,0,0,.3-.88,3.49,3.49,0,0,0,.07-.43c0-.15,0-.26,0-.4a4,4,0,0,0,0-.77,2.23,2.23,0,0,0-.57-1.28,2.8,2.8,0,0,0-1.09-.67,4.49,4.49,0,0,1,.79,1,2.38,2.38,0,0,1,.3,1.22,5.69,5.69,0,0,1,0,.7,3.6,3.6,0,0,1,0,.36c0,.11,0,.22-.07.33a2.93,2.93,0,0,1-.25.64,2.16,2.16,0,0,1-.18.3.71.71,0,0,1-.1.14l-.09.12-.38.45.35.17,0,0,0,0,.09.1a1.14,1.14,0,0,1,.15.23,1.34,1.34,0,0,1,.14.58,2.35,2.35,0,0,1-.07.68,2.24,2.24,0,0,1-.3.65,3,3,0,0,1-1.16,1,2.1,2.1,0,0,1-1.23.24,2.79,2.79,0,0,0,.78-.55c1.47-1.5,0-2.2.69-3.51s1.52-5-1.39-5.6h0a8.19,8.19,0,0,1-5.11-2.77,7.09,7.09,0,0,0,5.18,3.7c.54,1,1.68,3.78-.18,6A11.72,11.72,0,0,1,38.93,36l-.35.23a.5.5,0,0,0-.27.17,7.58,7.58,0,0,1-2.37,1,3.85,3.85,0,0,1-1.35,0,.33.33,0,0,0-.2,0,4,4,0,0,1-1.3-.59,4.51,4.51,0,0,1-2-3.73,10.94,10.94,0,0,1,.43-3.48s1.73-1.74,2.73-2.67A7,7,0,0,0,36.06,24a13,13,0,0,1-4.61,4.7,2.09,2.09,0,0,0-.9,2.43c.45,1.66-.14,2.31-.59,3.36-.35.79-.68,2.38.07,3a1.48,1.48,0,0,1-.59.4,1.34,1.34,0,0,1-.88,0,1,1,0,0,1-.62-.45,1.12,1.12,0,0,1-.14-.78.52.52,0,0,1,0-.11.45.45,0,0,1,0-.11,1.45,1.45,0,0,1,.09-.22,2.06,2.06,0,0,1,.23-.41c.18-.26.41-.53.67-.84a3.53,3.53,0,0,0,.66-1.15,1.51,1.51,0,0,0-.05-1.1,4.2,4.2,0,0,1-.45,1,5.76,5.76,0,0,1-.66.79,5.4,5.4,0,0,0-.8,1,3.44,3.44,0,0,0-.26.64c0,.11,0,.22-.05.32a3,3,0,0,0,0,.31,1.44,1.44,0,0,0,.32,1,1.3,1.3,0,0,0,.87.43,1.79,1.79,0,0,0,1.08-.23,1.47,1.47,0,0,0,.48-.38.88.88,0,0,0,.12-.17l0,0a4.38,4.38,0,0,0,3.43,0,4.21,4.21,0,0,0,.46.14s0,0,0,.07a3.22,3.22,0,0,1,0,.5c-1.51.52-5.15,1.86-5.88,2.93a.34.34,0,0,0,0,.5.26.26,0,0,0,.21,0,.5.5,0,0,0,.31-.22,8.65,8.65,0,0,1,2.7-1.5l-.15,1.13a1.41,1.41,0,0,0,.8,1.61,4.26,4.26,0,0,0,1.88.12l.26,0a13.46,13.46,0,0,0,2.36-.36l.42-.1a10.9,10.9,0,0,0,2.45-.9A3.05,3.05,0,0,0,41,39.41l.2-1.31c1.24,0,2.28.2,2.47.51a.23.23,0,0,0,.26.1.41.41,0,0,0,.19-.11.45.45,0,0,0,.14-.52C43.69,37.18,40,37.32,38.73,37.39Zm-.25,1a1.07,1.07,0,0,1-.42,1.38c-.44.21-.7.33-1.1-.15A3.1,3.1,0,0,0,38.48,38.39Zm-2.58-.56A6.92,6.92,0,0,0,38.11,37a5.31,5.31,0,0,0-.08.92V38c-.16.36-.55.88-1.81,1.18a1.45,1.45,0,0,1-1.64-.48l0-.11c0-.3.06-.51.07-.66A5.13,5.13,0,0,0,35.9,37.83ZM34,39.29a1.85,1.85,0,0,0,1.64.66,3.12,3.12,0,0,1-.68.46c-.26.12-.75.28-1,0S33.83,39.65,34,39.29Zm6,.28a1.45,1.45,0,0,1-.84,1,10.45,10.45,0,0,1-2.57.89,13.58,13.58,0,0,1-2.2.33l-.27,0a3.52,3.52,0,0,1-1.51-.09.61.61,0,0,1-.38-.71l.19-1.39.93-.35a1.26,1.26,0,0,0,1.74,1.81,3.73,3.73,0,0,0,1.24-1,1.14,1.14,0,0,0,1.27.53,3.85,3.85,0,0,0,.57-.22,2.11,2.11,0,0,0,1.05-1.35,1.74,1.74,0,0,0,0-1l1,0Z" fill="#006937"/>
                  </g>
                </g>
                <g>
                  <path d="M39.88,3.47C27.5,5.29,16,17.89,15,31.48s9,21.63,21.42,18.21c11.67-3.2,21.33-15.38,22.25-27.4S51.46,1.77,39.88,3.47ZM54.58,12a2.09,2.09,0,0,1,.26,1.68l-.81.06a1.57,1.57,0,0,0-.12-1.13c-.33-.52-1-.48-1.61,0h0a1.54,1.54,0,0,0-.49,1.86,1,1,0,0,0,.91.46l-.2.86a1.43,1.43,0,0,1-1.41-.72A2.6,2.6,0,0,1,51.83,12h0C52.79,11.12,54,11.09,54.58,12ZM52.77,9.76l-3,3.55-.57-.56,3-3.55ZM46.92,8.44a2.25,2.25,0,0,1,2.95-1.09,2.11,2.11,0,0,1,.4,3h0a2.27,2.27,0,0,1-2.94,1.12,2.11,2.11,0,0,1-.41-3Zm-3.23-3,.84.15-.6,1.74,1.54.27.59-1.73.82.15-1.49,4.38-.83-.14.6-1.77-1.54-.27L43,10l-.84-.14ZM38.35,8.08a2.89,2.89,0,0,1,2.43-2.57A1.65,1.65,0,0,1,42.33,6l-.66.78a1.16,1.16,0,0,0-1-.38A1.71,1.71,0,0,0,39.31,8h0c-.08.77.34,1.35,1,1.26a1.9,1.9,0,0,0,1.14-.65l.51.56a2.67,2.67,0,0,1-1.78,1,1.66,1.66,0,0,1-1.88-2.05ZM33,7.92l.85-.41,2.82,3.21-1,.48-.61-.72-1.77.89-.15,1.1-1,.48ZM26.9,12.17l2,.57.06-2.26.91-.76,2.22,3.34-.83.7-1.45-2.18-.12,2.34,0,0-2-.52,1.46,2.17-.82.7L26,12.94Zm-2.58,9.76-2.67-.64L22.82,23v0l-2.32.89,2.67.62-.44,1-4.14-.94.5-1.12,2.3-.82L20.18,21l.49-1.11,4.1,1ZM22.84,16.7l.63-.84,4.64.55-.7.94-1-.14L25.09,19l.45.88-.69.93Zm2.59,28.06-.64,1.49-.23-1.33-1.43.26,1.28-1.08-.24-1.33,1,.67,1.26-1.07-.63,1.48,1,.66Zm5.63,1.71-.16,1.44-.68-1-1.36.75.94-1.36-.69-1,1.27.16.93-1.35-.15,1.44,1.25.16Zm6.61.48-1-.54-1.14,1.12L36,46.08l-1-.55,1.34-.35.51-1.45L37.16,45l1.33-.34-1.13,1.1ZM43,43.57l-.81,1.34.06-1.37-1.21-.06,1.25-.79.06-1.38.71.89,1.24-.78-.8,1.33.71.88Zm2.83-7.9a4.34,4.34,0,0,1-.72.56,3.25,3.25,0,0,1-.64.33L44,37a1.5,1.5,0,0,1,.8.57,1,1,0,0,1,.07.75,1.5,1.5,0,0,1-.47.75,1.23,1.23,0,0,1-.53.3.67.67,0,0,1-.76-.26,3.14,3.14,0,0,0-1.42-.29l-.06.46a4.1,4.1,0,0,1-2.15,2.87,11.18,11.18,0,0,1-2.62,1l-.43.11a15.91,15.91,0,0,1-2.46.38l-.27,0a4.61,4.61,0,0,1-2.1-.16,1.89,1.89,0,0,1-1.08-2.18l0-.19a8.13,8.13,0,0,0-1.43.79,1.45,1.45,0,0,1-.83.59.84.84,0,0,1-.61,0,.72.72,0,0,1-.36-.62,1.4,1.4,0,0,1,.25-.85A4.55,4.55,0,0,1,29,39.77c-3.13-1.86-5-5.54-4.64-10.26a19.91,19.91,0,0,1,8.09-14,5.88,5.88,0,0,1,.95-1.29,5.23,5.23,0,0,1,2.81-1.56,4.35,4.35,0,0,1,.8-.05l.3,0,.35,0,.14-.19,0,0a5.26,5.26,0,0,1,1.74-1.31,4.51,4.51,0,0,1,1.24-.4l.47-.05h0A3.44,3.44,0,0,1,44.26,12a5.8,5.8,0,0,0,.63.59l0,0a.75.75,0,0,0,.32.13,2.87,2.87,0,0,0,.44,0,2.87,2.87,0,0,1,1.34.31h0a3,3,0,0,1,1.45,2,3.4,3.4,0,0,1,.07.46,11.42,11.42,0,0,1,2.38,8.36A19,19,0,0,1,47,33.76L47,34A4.5,4.5,0,0,1,45.86,35.67Zm2.78,3.18-.41,1.4-.37-1.15-1.26.41,1-1.12-.37-1.16,1,.47,1-1.12L48.88,38l1,.46Zm6.6-23.2-.75.45L55,17.84l-.72.44-.51-1.74L53,17l.6,2-.73.44L52,16.63l3.7-2.22.81,2.78-.71.44Z" fill="#ce0e2d"/>
                  <polygon points="24.03 16.9 24.69 18.19 25.51 17.09 24.03 16.9" fill="#ce0e2d"/>
                  <polygon points="33.65 8.8 33.42 10.41 34.54 9.85 33.65 8.8" fill="#ce0e2d"/>
                  <path d="M47.84,10.67a1.32,1.32,0,0,0,1.7-.7h0c.41-.69.37-1.49-.19-1.81a1.32,1.32,0,0,0-1.7.7h0A1.27,1.27,0,0,0,47.84,10.67Z" fill="#ce0e2d"/>
                </g>
              </g>
              <g>
                <path d="M74.57,60.16C66.39,62.94,60,57.26,60.79,47.37S69.08,27.8,77.21,25.89C84.94,24.08,90.38,30,89.68,39.08S82.35,57.52,74.57,60.16" fill="#fcd00c"/>
                <path d="M77.27,25C68.73,27,60.79,37.18,60,47.6S65.9,64,74.5,61c8.16-2.79,15.1-12.65,15.84-22.13S85.38,23.15,77.27,25m-.13,1.73C84.5,25,89.68,30.65,89,39.27s-7,17.54-14.38,20c-7.77,2.62-13.76-2.77-13-12.15s7.84-18.57,15.56-20.39" fill="#fff"/>
                <path d="M73.71,50.53c-1,1-1.85.68-1.8-.12C72,49,74,48,76.31,46.88a15.37,15.37,0,0,1-2.6,3.65M74.26,40c-.06.19-.21.29-.29.25s.15-.39-.07-.57-.25-.17-.21-.36a.31.31,0,0,1,.28-.22c.23,0,.45.37.29.9m12.36-4.56a.67.67,0,0,0-.59.05,4.8,4.8,0,0,0-1.7,1.38A24.2,24.2,0,0,0,82.17,40c.3-.69.62-1.41,1-2.16s.53-1.17.54-1.24,0-.13-.18-.11a3.81,3.81,0,0,0-.71.24l0,0h0c-.49.13-1.59,1.61-2.1,2.07,0-.1.09-.2.15-.33a2.13,2.13,0,0,0,.19-.54c0-.14-.07-.22-.25-.23a1.39,1.39,0,0,0-.67.14c-.27.11-.51.49-.73,1.13a16.48,16.48,0,0,1-.63,1.59,13.48,13.48,0,0,1-1.33,2.39,3.45,3.45,0,0,1-1.2,1.21c-.14.06-.25.06-.31,0s-.09-.16-.08-.32a5,5,0,0,1,.22-1c.13-.39.34-.92.62-1.58l.52-1.13a5.15,5.15,0,0,0,.35-.83c0-.16-.07-.24-.25-.25a2.38,2.38,0,0,0-.78.21.55.55,0,0,0-.17.11h0l0,0c-.5.43-1.37,1.71-2.09,2.29a.56.56,0,0,0,0-.12c.29-.92.78-3.31-.58-2.67s-1.35,3.17-.61,2.75a15.45,15.45,0,0,1-1.3,3.42,4.32,4.32,0,0,1-1.42,1.84c-.18.08-.3.07-.37,0a1.11,1.11,0,0,1-.07-.62,6.07,6.07,0,0,1,.22-1.11c.12-.46.75-2.18.94-2.67s.28-.75.28-.78-.08-.25-.28-.27a1.93,1.93,0,0,0-.79.2,1.52,1.52,0,0,0-.52.35,1.66,1.66,0,0,0-.32.6,14.85,14.85,0,0,0-.65,1.76,18.35,18.35,0,0,0-.45,2.08,12.55,12.55,0,0,1-1,1.41,2.4,2.4,0,0,1-.76.68c-.16.08-.28.07-.34,0a.81.81,0,0,1-.07-.53,8.62,8.62,0,0,1,.35-1.65c.2-.7.46-1.46.79-2.3q.31-.78.72-1.68a5.86,5.86,0,0,0,.43-1c0-.18-.08-.28-.3-.3a2.16,2.16,0,0,0-1.45.61,5.27,5.27,0,0,0-.57,1.21c-1.68,4.27-2.88,8.92-.23,7.7A6.73,6.73,0,0,0,68.22,48a.94.94,0,0,0,.47.86,1.53,1.53,0,0,0,1.15-.16,4.82,4.82,0,0,0,1.71-1.49,14.68,14.68,0,0,0,1.65-2.88c.14-.3.27-.61.39-.91A13,13,0,0,0,75,42.09c-.21.55-.37,1-.49,1.45a8.81,8.81,0,0,0-.25,1.09c0,.26-.17,1.67,1.11,1.11a4,4,0,0,0,1.49-1.21,13.09,13.09,0,0,0,1.54-2.42q-.3.8-.63,1.62l-.12.28c-.21.53-.43,1-.64,1.47-2.82,1.19-5.51,2.71-6.48,4.4s-.23,3.67,2.09,2.95c1.63-.52,3.29-2.38,5.1-6.6,1.59-.69,3-1.21,4.24-1.64,0,.58.53.85,1.32.61a3.48,3.48,0,0,0,1.11-.61l.2-.46-1.26.38c-.09,0-.14,0-.1-.13a.36.36,0,0,1,.22-.23l1.29-.39.14-.35-1.31.39c-.09,0-.14,0-.11-.13a.36.36,0,0,1,.23-.22L85,43l.14-.35-1.38.41c-.09,0-.14,0-.11-.13a.43.43,0,0,1,.23-.23l1.42-.41.11-.28a1.1,1.1,0,0,0-1.08-.11,3.92,3.92,0,0,0-2.08,1.65c-1.2.37-2.49.79-4.06,1.4l0-.08c.27-.66.49-1.22.54-1.35h0l1.3-3.31a8,8,0,0,0,1.47-1.32c-.12.35-.24.67-.35,1l-.06.15h0c0,.12-.09.23-.14.34-.29.73-1,2.83-1.15,3.1,0,.09,0,.12.08.12a1,1,0,0,0,.36-.11,2.18,2.18,0,0,0,1.16-1.17c.14-.3.25-.56.36-.78a21.12,21.12,0,0,1,1.71-2.87,4.83,4.83,0,0,1,1.3-1.42c.07,0,.13,0,.16,0s0,.06,0,.13a6.15,6.15,0,0,1-.44,1l-.07.14c-.33.68-.59,1.24-.76,1.66a3.78,3.78,0,0,0-.3.9c-.06.4.06.61.36.66a9.5,9.5,0,0,0,2-.55l.54-1.29c-.63-.12-1.32.91-1.34.38s1.65-4,1.76-4.28a.39.39,0,0,0-.13-.49" fill="#211e1f"/>
              </g>
              <g>
                <path d="M27.27,72.6a10,10,0,0,0-5,.35L22,73c-4.23,1.38-8,6-8.33,10.37,0,.08,0,.17,0,.28A4.78,4.78,0,0,0,16,88.33a6,6,0,0,0,4.91,0L22,87.93a18.57,18.57,0,0,0,4.36-2.83l.53-.46.89-11.93Z" fill="#fff"/>
                <g>
                  <polygon points="13.08 93.72 11.56 95.87 12.95 97 12.95 97.04 12.03 97.39 10.86 96.42 10.75 97.88 9.98 98.17 10.23 94.76 11 94.47 10.9 95.88 12.15 94.05 13.08 93.7 13.08 93.72" fill="#221f1f"/>
                  <polygon points="13.44 93.56 14.2 93.28 13.95 96.66 13.19 96.95 13.44 93.56" fill="#221f1f"/>
                  <polygon points="15.54 93.43 14.51 93.82 14.56 93.15 17.36 92.11 17.31 92.77 16.29 93.15 16.09 95.84 15.34 96.13 15.54 93.43" fill="#221f1f"/>
                  <path d="M20.31,93.85a3.38,3.38,0,0,1-.61.59,3.17,3.17,0,0,1-.7.38,2.05,2.05,0,0,1-.8.16.88.88,0,0,1-.53-.17.8.8,0,0,1-.27-.43,1.76,1.76,0,0,1,0-.62,3,3,0,0,1,.15-.68,2.88,2.88,0,0,1,.37-.69,3.12,3.12,0,0,1,.59-.62,3.26,3.26,0,0,1,.8-.45,1.69,1.69,0,0,1,.64-.11,1,1,0,0,1,.53.18l-.49.63a.56.56,0,0,0-.34-.08,1.36,1.36,0,0,0-.39.08,1.91,1.91,0,0,0-.49.28,2.46,2.46,0,0,0-.35.38,1.79,1.79,0,0,0-.2.42,1.55,1.55,0,0,0-.09.39,1,1,0,0,0,0,.35.51.51,0,0,0,.15.26.59.59,0,0,0,.31.13,1.11,1.11,0,0,0,.48-.1,1,1,0,0,0,.21-.1l.23-.14.21-.18.19-.2Z" fill="#221f1f"/>
                  <polygon points="22.81 93.29 22.9 91.98 21.45 92.53 21.35 93.84 20.62 94.12 20.87 90.81 21.6 90.53 21.5 91.86 22.95 91.31 23.05 89.99 23.77 89.72 23.52 93.02 22.81 93.29" fill="#221f1f"/>
                  <polygon points="26.59 91.84 24.15 92.77 24.39 89.49 26.77 88.6 26.72 89.27 25.05 89.9 25 90.53 26.57 89.94 26.53 90.58 24.95 91.17 24.9 91.83 26.64 91.17 26.59 91.84" fill="#221f1f"/>
                  <polygon points="29.34 89.7 29.37 88.69 29.45 87.61 30.15 87.34 29.91 90.58 29.31 90.81 27.9 89.32 27.84 90.38 27.77 91.39 27.05 91.67 27.3 88.41 27.91 88.18 29.34 89.7" fill="#221f1f"/>
                </g>
                <g>
                  <path d="M21.85,84.61a1.77,1.77,0,0,1-.72.5l-.28.06A6.11,6.11,0,0,1,22,87v0a16.69,16.69,0,0,0,4-2.59V84.3l-.6-.08a9.47,9.47,0,0,0-3.52.39" fill="#017a41"/>
                  <path d="M20.85,85.17a.66.66,0,0,1-.78-.71,7.14,7.14,0,0,0-5.37-1.18,4.14,4.14,0,0,0,2,4,5.2,5.2,0,0,0,4.26.06l.29-.12c.24-.09.48-.18.71-.29v0a6.11,6.11,0,0,0-1.1-1.79" fill="#3dae2b"/>
                  <path d="M22.16,74,22,74a11.28,11.28,0,0,0-7.24,9c0,.09,0,.17,0,.25a7.14,7.14,0,0,1,5.37,1.18v-.1L20.54,78a1.94,1.94,0,0,1,1.24-1.55.73.73,0,0,1,1,.78l-.08,1L26.51,77l.26-3.38a9.09,9.09,0,0,0-4.61.33" fill="#221f1f"/>
                  <path d="M22.63,80l-.89.31L21.46,84l.89-.31a1.94,1.94,0,0,1-.5,1,9.47,9.47,0,0,1,3.52-.39l.6.08.42-5.65L22.64,80Z" fill="#221f1f"/>
                </g>
              </g>
            </g>
          </g>
        </g>
      </g>
    </g>
  </g>
</svg>
