<svg width="38" height="40" viewBox="0 0 38 40" fill="none" xmlns="http://www.w3.org/2000/svg">
<path d="M27.3226 1.46252L20.3226 0.462524L16.3226 0.962524L10.8226 1.96252L6.32263 4.96252L1.32263 12.9625L0.322632 21.9625L1.32263 28.4625L4.82263 36.9625H8.82263L9.82263 33.9625V29.9625L8.82263 26.4625L9.82263 24.9625L17.3226 22.4625L18.8226 22.9625L21.3226 24.4625L18.3226 28.4625L16.8226 30.9625V38.4625L21.8226 37.9625L31.3226 29.4625L36.3226 19.9625L35.8226 15.4625L35.3226 7.96252L32.8226 3.96252L27.3226 1.46252Z" fill="url(#paint0_linear_788_441)"/>
<path d="M18.774 40H18.5947H18.4591H18.4373H18.3061H18.2799H18.1531H18.1268L18 39.9784H17.8732H17.847L17.7246 39.9525L17.6065 39.918H17.5365L17.4185 39.8834H17.3922L17.2786 39.8446H17.2523L17.143 39.8014H17.1168L17.0075 39.7539L16.8982 39.7064H16.8763L16.7714 39.6546L16.6183 39.4474H16.5921L16.4959 39.3913H16.4697L16.3866 39.2834H16.3603L16.2729 39.2186L16.2204 39.1798L16.1155 39.0934L16.0368 39.02L15.9581 38.9251C15.9309 38.8968 15.9061 38.8665 15.8837 38.8344L15.8225 38.7351C15.8225 38.7006 15.7832 38.6661 15.7657 38.6315L15.722 38.5279C15.705 38.4919 15.6918 38.4543 15.6826 38.4157L15.652 38.3034C15.6499 38.2689 15.6499 38.2343 15.652 38.1998V38.0876C15.652 38.0617 15.652 38.0358 15.652 38.0099V30.6497C15.6531 30.4541 15.7313 30.2668 15.8701 30.1273C16.0089 29.9879 16.1973 29.9073 16.3953 29.9028C16.5911 29.9028 16.7791 29.978 16.9195 30.1126C17.06 30.2472 17.1417 30.4306 17.1474 30.6238C17.1551 30.636 17.1656 30.6463 17.178 30.654C17.1985 30.6703 17.2204 30.6847 17.2436 30.6971L17.3135 30.7446L17.3879 30.7878L17.4622 30.831L17.5409 30.8698L17.624 30.9044L17.7114 30.9432L17.7989 30.9734C17.8286 30.9861 17.8593 30.9962 17.8907 31.0036L17.9825 31.0339L18.0787 31.0598H18.1749H18.2755L18.3673 31.0813H18.4723H18.5772H19.0144H19.1281H19.2418H19.3599H19.4779H19.5916L19.7184 31.0511L19.8321 31.0209L19.9545 30.9864L20.0726 30.9475L20.195 30.9L20.3131 30.8526L20.4355 30.7964L20.794 30.6194L21.1657 30.4209L21.5374 30.2093C21.6642 30.1403 21.791 30.0669 21.9134 29.9892L22.2938 29.7604L22.6698 29.523L23.0459 29.2726C23.1727 29.1906 23.2995 29.1042 23.4219 29.0136L23.8023 28.7459L24.1784 28.474L24.55 28.1891L24.926 27.8955L25.2977 27.5933L25.6694 27.2868L26.0367 26.9717L26.3996 26.6479C26.522 26.54 26.6444 26.4321 26.7625 26.3199L27.121 25.9831L27.4796 25.6421L27.8294 25.2924L28.1792 24.9385L28.5202 24.5802L28.8613 24.1744C28.975 24.0535 29.0887 23.9283 29.198 23.8031L29.5259 23.4319L29.8495 23.052L30.1643 22.6678L30.4747 22.2793L30.7808 21.8908L31.0738 21.4979L31.3667 21.1008L31.6466 20.6993L31.9177 20.3065C32.0095 20.1726 32.0969 20.0388 32.1844 19.905L32.438 19.5078C32.5211 19.374 32.6041 19.2402 32.6828 19.1064C32.7615 18.9726 32.8446 18.8387 32.9233 18.7049C33.002 18.5711 33.0764 18.4373 33.1507 18.2991L33.3737 17.8977L33.5836 17.4919C33.6535 17.3581 33.7191 17.2242 33.7847 17.0904C33.8503 16.9566 33.9159 16.8184 33.9771 16.6846C34.0383 16.5508 34.0995 16.4127 34.1564 16.2788C34.2132 16.145 34.2744 16.0112 34.3269 15.8774C34.3794 15.7436 34.4362 15.6097 34.4887 15.4759C34.5412 15.3421 34.5892 15.2083 34.6373 15.0744C34.6854 14.9406 34.7335 14.8111 34.7773 14.6773L34.9041 14.2801C34.9434 14.1463 34.9828 14.0168 35.0178 13.8873L35.1227 13.4945C35.1548 13.3592 35.1854 13.2297 35.2145 13.106C35.2407 12.9721 35.267 12.8469 35.2932 12.7174C35.3195 12.5879 35.3413 12.4627 35.3588 12.3332C35.3763 12.2037 35.3982 12.0785 35.4156 11.9534C35.4331 11.8282 35.4463 11.703 35.455 11.5778C35.4637 11.4526 35.455 11.3274 35.4856 11.2065C35.5046 11.0185 35.5951 10.8445 35.7388 10.7197C35.8826 10.5949 36.0689 10.5286 36.2602 10.5341C36.4516 10.5395 36.6337 10.6164 36.7699 10.7492C36.9061 10.882 36.9862 11.0609 36.9941 11.2497V18.6315C36.9963 18.6502 36.9963 18.669 36.9941 18.6876L36.9635 19.0848V19.1107L36.9154 19.5078V19.5338L36.8586 19.9352L36.7842 20.341V20.3626L36.6968 20.7684L36.5962 21.2001L36.4825 21.6317L36.3601 22.0634L36.2202 22.4951L36.0715 22.9268L35.7392 23.7902L35.3632 24.6535L34.9259 25.5169L34.4668 26.3803L33.9771 27.2437L33.448 28.0854L32.8883 28.9229L32.2849 29.7863L31.6597 30.5806L31.0038 31.3878L30.3261 32.1735L29.6265 32.9376L28.905 33.6715L28.1661 34.4053L27.414 35.1003L26.6488 35.7651L25.8705 36.404L25.0878 37.0084L24.292 37.5782L23.4962 38.1135L22.6961 38.6143L21.8959 39.0718L21.0957 39.5035H21.0608L20.9165 39.564L20.7766 39.6201H20.7503L20.606 39.6762L20.4617 39.7237H20.4355L20.2956 39.7669H20.2693L20.1294 39.8057H20.1032L19.9633 39.8359H19.937L19.7971 39.8661H19.7709H19.631H19.6047H19.4648H19.3249H19.2418H19.1063H18.7827L18.774 40ZM18.6778 38.5063H18.8046H19.1412L19.491 38.4632L19.8452 38.3812L20.2081 38.2603L20.4442 38.161L21.1832 37.7725L21.9353 37.3408L22.6873 36.8746L23.4438 36.3652L24.1784 35.8299L24.926 35.2428L25.6694 34.6341L26.3996 33.9952L27.1123 33.3304L27.8206 32.6397L28.5202 31.9447L29.1936 31.2109L29.8407 30.4597L30.4704 29.687L31.0694 28.9056L31.6422 28.107L32.1756 27.3127L32.6785 26.5098L33.1463 25.6853L33.5836 24.8737L33.9727 24.0665L34.3269 23.2592L34.633 22.4476L34.8953 21.6533L35.0134 21.2562L35.1139 20.8633L35.2058 20.4748L35.2845 20.0993L35.3501 19.7151L35.4069 19.3352L35.4463 18.9596L35.4769 18.6013V17.0041C35.4288 17.1034 35.385 17.2027 35.3413 17.3019C35.2976 17.4012 35.2058 17.5912 35.1358 17.7336C35.0658 17.8761 34.9959 18.0185 34.9216 18.1653L34.6986 18.597C34.6242 18.7395 34.5455 18.8819 34.4668 19.0287C34.3881 19.1755 34.305 19.3136 34.222 19.4604L33.9727 19.8921L33.7104 20.3237L33.4437 20.7554L33.1682 21.1871L32.884 21.6188L32.5866 22.0505L32.2849 22.4822C32.18 22.6203 32.0794 22.7584 31.9745 22.9139L31.6553 23.324L31.3317 23.7254L31.0038 24.1269L30.6628 24.524C30.5534 24.6535 30.4354 24.783 30.3217 24.9126L29.9763 25.2968L29.6221 25.6766C29.504 25.8061 29.3816 25.9313 29.2636 26.0522C29.1455 26.1731 29.0231 26.3026 28.9006 26.4235L28.5333 26.7861L28.1617 27.1444L27.79 27.494L27.4096 27.8394L27.0292 28.1761L26.6444 28.5042L26.2553 28.8279C26.1285 28.9359 25.9973 29.0395 25.8661 29.1431L25.477 29.4496L25.0835 29.7474L24.6856 30.0367C24.5544 30.1316 24.4232 30.2266 24.2877 30.3173L23.8898 30.5935L23.4919 30.8569L23.0896 31.1072C22.9584 31.1936 22.8229 31.2713 22.6917 31.3533L22.3026 31.4699L21.9047 31.6943L21.5024 31.9059L21.1045 32.1088L20.9208 32.1908L20.7547 32.2555L20.5885 32.3203L20.4224 32.3764L20.2519 32.4239L20.0857 32.4671L19.9195 32.5059L19.7534 32.5404L19.5916 32.5663H19.4255H19.2637H19.0975H18.6165H18.4591H18.3061H18.1531L18 32.5404L17.8514 32.5102L17.7071 32.48L17.5628 32.4412L17.4185 32.398L17.2698 32.3764L17.1299 32.3246V38.0142L17.2873 38.1265L17.5978 38.2862L17.9563 38.4114L18.3542 38.4977L18.6778 38.5063ZM7.10378 38.761H6.78022H6.65341H6.62718H6.50038H6.47414H6.34734H6.3211L6.1943 38.7351H6.17244L6.04564 38.7092H6.0194L5.89697 38.679H5.87074L5.74831 38.6445H5.72207L5.59964 38.6056H5.57341L5.45535 38.5625H5.42912L5.31106 38.515H5.28482L5.17114 38.4589H5.14053L5.03122 38.3984H5.00061L4.89567 38.3337H4.86507L4.76013 38.2689H4.73389L4.62895 37.9883H4.60272L4.50652 37.9106C4.49642 37.9126 4.48602 37.9126 4.47591 37.9106L4.37535 37.7897V37.7638L4.28352 37.6775L4.24854 37.6387L3.75008 37.0904L3.29097 36.4904L2.85372 35.8558L2.35963 35.0183L1.92238 34.129L1.49825 33.1966L1.13533 32.2253L0.824885 31.2281L0.558164 30.218L0.308932 28.9229L0.155895 27.8437L0.0553273 26.7645V26.5443C0.0531722 26.53 0.0531722 26.5155 0.0553273 26.5012V19.1236C0.0563401 18.9296 0.133387 18.7435 0.270325 18.6042C0.407262 18.465 0.593461 18.3835 0.789905 18.3768C0.982561 18.3786 1.16747 18.452 1.30769 18.5824C1.44792 18.7129 1.53314 18.8907 1.54635 19.0805V19.2877V19.4906C1.54635 19.5597 1.54635 19.6287 1.54635 19.6935L1.6338 20.5094L1.66003 20.7079L1.86117 21.9037L1.90052 22.098C1.90052 22.167 1.93113 22.2318 1.94424 22.2965C1.95736 22.3613 1.97048 22.426 1.98797 22.4908L2.1891 23.0649L2.24157 23.2549L2.34651 23.6305L2.40335 23.8161L2.70943 24.7269L2.77502 24.9082L2.84498 25.0809C2.84498 25.1413 2.8887 25.2018 2.91494 25.2579C2.94117 25.314 2.96303 25.3745 2.98489 25.4306C3.00676 25.4867 3.03299 25.5471 3.05923 25.6033C3.08546 25.6594 3.10732 25.7198 3.13356 25.7759L3.3653 26.2767C3.39591 26.3328 3.42214 26.3846 3.44838 26.4407C3.47461 26.4968 3.50522 26.5486 3.53146 26.6048L3.78943 27.0753C3.81599 27.1271 3.84518 27.1775 3.87688 27.2264L3.9687 27.3818L4.05616 27.5286L4.14798 27.6753L4.24417 27.8221L4.33599 27.9603C4.37097 28.0121 4.40158 28.0595 4.43656 28.1027L4.53276 28.2409L4.63332 28.379L4.73389 28.5085L4.83446 28.6423L4.9394 28.7675L5.04434 28.897L5.14928 29.0179L5.25859 29.1431L5.35478 29.2467C5.37148 29.2675 5.39056 29.2863 5.41163 29.3028L5.47721 29.3632L5.54717 29.415L5.62588 29.4712L5.70021 29.523L5.77892 29.5661L5.86199 29.6093L5.94944 29.6525L6.02815 29.687L6.11997 29.7215L6.21179 29.7561L6.31236 29.7863H6.40418H6.50475H6.60532H6.70588H6.81082H6.91576H7.43609H7.54103H7.65471H7.76403H7.86897L7.97391 29.7604C8.01091 29.7543 8.04744 29.7456 8.08322 29.7345C8.11868 29.7279 8.15372 29.7192 8.18816 29.7086L8.2931 29.6784L8.39366 29.6438L8.48111 29.6093L8.54233 29.5791L8.59917 29.5402L8.64727 29.5057L8.68662 29.4625C8.70061 29.4501 8.71243 29.4355 8.7216 29.4194L8.75221 29.3719C8.76408 29.3541 8.77432 29.3353 8.78282 29.3158L8.80905 29.251C8.81894 29.2274 8.82627 29.2028 8.83091 29.1776L8.85278 29.0913V29.0049V28.9056C8.85278 28.8711 8.85278 28.8366 8.85278 28.7977V28.7459C8.86833 28.5563 8.95664 28.3796 9.09966 28.252C9.24268 28.1245 9.42963 28.0556 9.62233 28.0595C9.7211 28.0601 9.81878 28.0799 9.90981 28.1177C10.0008 28.1556 10.0834 28.2107 10.1528 28.2801C10.2223 28.3494 10.2772 28.4316 10.3145 28.5219C10.3517 28.6122 10.3706 28.7089 10.37 28.8064V36.2616V36.404C10.3722 36.4169 10.3722 36.43 10.37 36.4429V36.5853C10.37 36.5853 10.37 36.6112 10.37 36.6285L10.3482 36.7623C10.3482 36.7623 10.3482 36.7969 10.3482 36.8141L10.3132 36.9436C10.3132 36.9436 10.3132 36.9825 10.3132 36.9954L10.2738 37.1249C10.2738 37.1249 10.2738 37.1638 10.2738 37.1811L10.2257 37.3063L10.1951 37.3624L10.1339 37.4832L10.0596 37.5566L9.98962 37.6646L9.94153 37.7293L9.85845 37.8329C9.8434 37.8537 9.82577 37.8726 9.80598 37.889L9.71416 37.984L9.65294 38.0401L9.54363 38.1265C9.5245 38.1457 9.50235 38.1617 9.47804 38.1739L9.35998 38.2516L9.2944 38.2905L9.15885 38.3596L9.09326 38.3898L8.9446 38.4502H8.90087L8.77844 38.4934H8.74784L8.33245 38.6056H8.31059L8.03512 38.6617H8.01326L7.73342 38.7006H7.60224H7.58038H7.44921H7.13876L7.10378 38.761ZM6.99884 37.2717H7.10378H7.54103L7.97828 37.1983L8.38929 37.0861L8.55107 37.0127L8.65164 36.9393L8.72597 36.8573L8.78719 36.7494L8.83529 36.6112L8.87027 36.4386V36.2357V31.0813L8.73909 31.1288L8.59043 31.172L8.44613 31.2109L8.29747 31.2454L8.1488 31.2756L8.00014 31.3015L7.85148 31.3274H7.69844H7.5454H7.39674H6.95949H6.80645H6.64904H6.50038H6.34734L6.1943 31.2972L6.04564 31.2627L5.89697 31.2281L5.74831 31.1806L5.59964 31.1331L5.43786 31.0813L5.29794 31.0209L5.15365 30.9518L5.0181 30.8785L4.88256 30.7964L4.74701 30.7101L4.61583 30.6151L4.48903 30.5158L4.37535 30.395L4.25729 30.2827L4.13486 30.1446L4.01243 30.0064L3.89 29.864L3.77194 29.7215L3.65389 29.5748L3.50085 29.4107C3.4615 29.3632 3.42652 29.3114 3.38716 29.2596L3.27348 29.1042C3.2385 29.0567 3.19915 29.0049 3.16417 28.9488L3.0636 28.7934C3.02862 28.7416 2.99364 28.6855 2.95429 28.6337C2.91494 28.5819 2.8887 28.5258 2.84935 28.4696L2.74878 28.3099C2.7138 28.2538 2.67882 28.1977 2.64821 28.1416L2.54765 27.9732C2.51267 27.9171 2.48206 27.861 2.45145 27.8049L2.1891 27.2825L2.09728 27.1012C2.06667 27.0451 2.03606 26.9846 2.00983 26.9242L1.75185 26.376C1.72562 26.3155 1.69938 26.2508 1.66878 26.1903L1.59007 26.0004L1.56384 25.94V26.4796L1.67315 27.6926L1.84805 28.8927L2.09291 30.0669L2.40335 31.2022L2.75753 32.2901L3.19477 33.3304L3.60142 34.1463L4.03866 34.9147L4.51527 35.627L5.03122 36.2616L5.39414 36.6674L5.60839 36.8357L5.8445 36.9739L6.12434 37.1249L6.40418 37.2113L6.80645 37.276L6.99884 37.2717ZM9.35998 27.8135H9.27691C9.12551 27.7975 8.98258 27.7366 8.86703 27.6387C8.75148 27.5408 8.66875 27.4106 8.62978 27.2652L8.57294 27.0451C8.52921 26.8983 8.49423 26.7688 8.468 26.6523C8.1739 25.4969 7.99812 24.3154 7.9433 23.1254V22.8534V22.2879V22.0289C7.9433 22.0289 7.9433 22.0289 7.9433 22.003L7.96953 21.744V21.7181L8.00451 21.4591C8.00451 21.4591 8.00451 21.4591 8.00451 21.4332L8.04824 21.1785V21.1526L8.10071 20.8979C8.10071 20.8979 8.10071 20.8763 8.10071 20.8677L8.1663 20.6173C8.1637 20.6074 8.1637 20.597 8.1663 20.5871L8.23625 20.3367L8.31059 20.2892L8.39366 20.0431V20.0129L8.48549 19.7712V19.741L8.59043 19.5035V19.469L8.70848 19.2402C8.71477 19.2281 8.72209 19.2166 8.73035 19.2057L8.86152 18.9812C8.86069 18.9697 8.86069 18.9582 8.86152 18.9467L9.00581 18.7265L9.03205 18.692L9.19383 18.4804L9.22007 18.4459L9.39059 18.243L9.4212 18.2128L9.66606 17.9538L9.69229 17.9279L9.95464 17.6818L9.98088 17.6559L10.252 17.4271L10.2782 17.4055L10.5624 17.1854H10.5887L10.8816 16.9782H10.9035L11.2052 16.7839H11.2314L11.5375 16.6026H11.5593L11.8742 16.4256H11.896L12.2108 16.2616H12.2327L12.8886 15.9551L13.5619 15.6874L14.2222 15.4543L14.8518 15.2601L15.7263 15.0313L16.8807 14.7938L17.5715 14.6859H17.5978C17.7083 14.6715 17.8207 14.6833 17.9257 14.7205H17.9476L18.5422 14.9492L19.08 15.191L19.7228 15.5191L20.1906 15.7824L20.6716 16.0932L20.9165 16.2616L21.1438 16.4299L21.3668 16.6069L21.5855 16.7882H21.6073L21.8216 16.9825H21.8434L22.0489 17.1854V17.2113L22.2457 17.4228V17.453L22.4337 17.6732C22.4384 17.6849 22.4459 17.6952 22.4556 17.7034L22.6305 17.9365V17.971L22.7923 18.2128C22.7937 18.2257 22.7937 18.2387 22.7923 18.2516L22.9366 18.5063L23.177 18.5625L23.3039 18.8215C23.3103 18.8377 23.3176 18.8535 23.3257 18.869L23.435 19.1409C23.435 19.1409 23.435 19.1755 23.435 19.1927L23.5225 19.4733C23.525 19.4919 23.525 19.5108 23.5225 19.5294L23.5924 19.8187L23.6143 19.8575L23.6493 20.0863C23.6493 20.0863 23.6493 20.1252 23.6493 20.1424V20.3755C23.6493 20.3755 23.6493 20.4101 23.6493 20.4317V20.6907C23.5968 21.9555 22.9628 23.3844 21.7123 25.068C21.6507 25.1502 21.5726 25.219 21.4829 25.2702C21.3933 25.3214 21.2939 25.3539 21.191 25.3656C21.0881 25.3773 20.9839 25.3681 20.8848 25.3384C20.7856 25.3088 20.6937 25.2593 20.6148 25.1932L20.2737 24.9169L19.8365 24.6104L19.3992 24.347L18.7958 24.0103L17.9476 23.6132L17.5978 23.4707L16.7626 23.6175L16.0761 23.7643L15.276 23.9758L14.76 24.1744L14.161 24.3859L13.5576 24.6061L12.9629 24.8823L12.377 25.1975L12.0928 25.3658L11.813 25.5471L11.5462 25.7371L11.2926 25.9357L11.0478 26.1429L10.816 26.363L10.6018 26.5875L10.4531 26.7602L10.3219 26.9372L10.1995 27.1185L10.0333 27.412C9.96958 27.5338 9.87292 27.6357 9.75407 27.7066C9.63522 27.7775 9.49882 27.8145 9.35998 27.8135ZM9.46055 22.3483V22.8448V23.0865C9.48934 23.8408 9.58 24.5915 9.73165 25.3313L9.75788 25.3011L10.0202 25.0593L10.0596 25.0377L10.3307 24.8046H10.3569L10.6411 24.5845H10.6674L10.9603 24.3773H10.9822L11.2839 24.183H11.3101L11.6162 23.9974H11.6381L11.9529 23.8247H11.9747L12.2896 23.665H12.3114L12.9673 23.3628L13.6407 23.0908L14.3009 22.862L14.9305 22.6678L15.805 22.439L16.9594 22.1973L17.6502 22.0936C17.7723 22.0789 17.8962 22.0907 18.0131 22.1282L18.6209 22.3613L19.1587 22.603L19.8015 22.9268L20.2693 23.1944L20.7503 23.5009L20.9952 23.6693C21.756 22.534 22.1583 21.554 22.1932 20.7554V20.5655V20.3928L22.167 20.2244L22.0796 19.8575L22.0096 19.633L21.9178 19.4258L21.8128 19.21L21.6948 18.9941L21.5592 18.7913L21.4281 18.6013L21.2663 18.4071L21.0957 18.2171L20.9121 18.0358L20.5055 17.6991L20.1163 17.384L19.6791 17.0947L19.2418 16.8357L18.6515 16.5249L17.6415 16.0932L16.8107 16.2357L16.1373 16.404L15.3372 16.6156L14.76 16.7925L14.161 16.9998L13.5576 17.2285L12.9629 17.5005L12.377 17.8156L12.0928 17.9883L11.813 18.1653L11.5462 18.3552L11.2926 18.5538L11.0478 18.7654L10.816 18.9812L10.6018 19.21L10.4531 19.3783L10.3219 19.5553L10.1995 19.741L10.0858 19.9309L9.98525 20.1252L9.89343 20.3237L9.74039 20.7554L9.62233 21.1871L9.53488 21.6447L9.48241 22.1152L9.46055 22.3483Z" fill="#FEFEFE"/>
<path d="M18.8389 32.6182C17.9165 32.6315 17.0136 32.3565 16.2591 31.8325C16.0754 31.7045 15.9229 31.5378 15.8125 31.3444C15.7021 31.151 15.6366 30.9359 15.6207 30.7144C15.5377 29.6007 16.6089 28.4438 17.807 27.261L18.1262 26.9415C21.0732 23.9197 22.4199 21.6102 22.1314 20.1122C21.6941 17.7509 18.4104 16.3825 17.6496 16.0976C16.7751 16.2271 12.6518 16.9264 10.588 19.2143C8.74717 21.2778 9.62167 25.0637 9.93649 26.3069C9.95835 26.4062 9.99333 26.5228 10.0283 26.6523C10.3256 27.7574 11.0296 30.3475 8.88709 31.0857C8.32473 31.2795 7.73375 31.3802 7.1381 31.3836C6.60775 31.3988 6.07967 31.3092 5.58486 31.1202C5.09004 30.9312 4.63846 30.6465 4.25663 30.2828C2.84794 28.6995 1.78515 26.8463 1.13467 24.8392C0.400331 22.6525 0.0181892 20.3655 0.00219595 18.0617C-0.0326524 15.6885 0.3475 13.327 1.12593 11.0814C1.90626 8.80216 3.18396 6.7199 4.86878 4.98165C7.91203 1.86057 13.5132 0 19.8533 0C20.754 0 21.6635 0.0388517 22.5599 0.116555C28.5021 0.621627 35.3319 2.96568 36.683 8.03367C37.6799 11.798 36.3288 16.5983 32.8833 21.5541C29.7351 26.0738 25.3277 30.0194 21.0907 32.1088C20.3875 32.441 19.6184 32.6149 18.8389 32.6182ZM17.1249 30.6108H17.1555C17.6494 30.9477 18.2387 31.1215 18.8389 31.1073C19.3915 31.1046 19.9366 30.9808 20.4348 30.7447C24.3701 28.8021 28.677 24.9471 31.6372 20.6864C34.8334 16.0932 36.1058 11.7246 35.2226 8.38765C34.2738 4.85646 29.2541 2.18001 22.4287 1.59724C21.5804 1.52817 20.7103 1.48932 19.8533 1.48932C13.9155 1.48932 8.72094 3.18152 5.95753 6.01338C4.42383 7.59678 3.26105 9.49338 2.55136 11.5692C1.83171 13.6529 1.47971 15.8431 1.5107 18.0445C1.52643 20.1924 1.88197 22.3248 2.56447 24.3643C3.14002 26.1621 4.08358 27.8239 5.33663 29.2467C5.5779 29.4651 5.86045 29.6343 6.16808 29.7447C6.4757 29.855 6.80237 29.9044 7.12935 29.8899C7.55945 29.8881 7.98632 29.8166 8.393 29.6784C9.07074 29.4453 8.95268 28.4524 8.5679 27.0408C8.52855 26.894 8.49357 26.7602 8.46733 26.648C7.87268 24.1744 7.32611 20.5914 9.46863 18.2171C12.0921 15.3292 17.0811 14.66 17.6452 14.591C17.76 14.5744 17.8772 14.5863 17.9862 14.6255C18.4891 14.7939 22.9534 16.3825 23.618 19.8057C24.1427 22.5081 21.3574 25.7457 19.2193 27.9473L18.8782 28.2884C17.3435 29.8036 17.0768 30.3734 17.1292 30.5893L17.1249 30.6108Z" fill="#FEFEFE"/>
<path d="M18.6209 15.4846C18.3891 15.4846 18.1574 15.4846 17.9257 15.4543C16.3603 15.3076 15.0529 14.6557 14.4277 13.7276C14.2297 13.4384 14.1016 13.1082 14.0531 12.7625C14.0046 12.4168 14.037 12.0646 14.1478 11.7332C14.6463 10.2309 16.6226 9.18195 18.9576 9.18195C19.1762 9.18195 19.3948 9.18195 19.6222 9.21216C21.1919 9.35894 22.5036 10.0021 23.1202 10.9389C23.3185 11.2246 23.4486 11.5508 23.5009 11.8933C23.5531 12.2357 23.5261 12.5854 23.4219 12.916C22.9584 14.4053 20.9296 15.4846 18.6209 15.4846ZM18.9576 10.6626C17.1648 10.6626 15.8356 11.4353 15.5864 12.1865C15.545 12.3051 15.5333 12.4318 15.5524 12.5559C15.5714 12.6799 15.6206 12.7976 15.6957 12.8988C15.9843 13.3304 16.7582 13.8485 18.0699 13.9693C18.2536 13.9866 18.4372 13.9952 18.6209 13.9952C20.4005 13.9952 21.7603 13.1966 22.0008 12.4584C22.0356 12.3389 22.0415 12.2129 22.0179 12.0907C21.9944 11.9685 21.9421 11.8534 21.8653 11.7548C21.5723 11.3231 20.7853 10.8051 19.4691 10.6842C19.2991 10.6687 19.1283 10.6615 18.9576 10.6626Z" fill="#FEFEFE"/>
<path d="M19.5304 10.5893C19.4136 10.5888 19.2985 10.5622 19.1937 10.5116C19.1029 10.4681 19.022 10.407 18.9556 10.3319C18.8893 10.2569 18.8389 10.1695 18.8075 10.0748C18.7761 9.98015 18.7643 9.88023 18.7728 9.78098C18.7813 9.68173 18.8099 9.58519 18.857 9.49709L23.2995 0.686389C23.3962 0.52267 23.5524 0.401408 23.7364 0.347185C23.9204 0.292963 24.1184 0.309839 24.2902 0.394391C24.462 0.478944 24.5949 0.624845 24.6618 0.802516C24.7287 0.980187 24.7247 1.17633 24.6506 1.35118L20.2081 10.1748C20.1458 10.2997 20.0493 10.4047 19.9294 10.478C19.8096 10.5513 19.6713 10.5898 19.5304 10.5893Z" fill="#FEFEFE"/>
<path d="M32.4992 13.0844C29.4778 13.0844 26.1373 12.8642 23.4832 12.6873L22.7617 12.6398C22.7004 12.6401 22.6397 12.6276 22.5836 12.6033C22.5275 12.579 22.4772 12.5432 22.436 12.4985C22.3947 12.4537 22.3635 12.4009 22.3443 12.3434C22.3251 12.2859 22.3183 12.2251 22.3244 12.1649C22.3241 12.104 22.3368 12.0437 22.3617 11.988C22.3866 11.9322 22.4232 11.8823 22.469 11.8416C22.5149 11.8008 22.5689 11.7701 22.6277 11.7514C22.6864 11.7327 22.7485 11.7265 22.8098 11.7332L23.5312 11.785C27.2916 12.0311 32.4424 12.3721 36.0366 12.0397C36.0971 12.0335 36.1584 12.0391 36.2168 12.0562C36.2751 12.0733 36.3295 12.1017 36.3768 12.1395C36.4241 12.1774 36.4634 12.2241 36.4924 12.277C36.5215 12.3299 36.5396 12.3879 36.546 12.4477C36.5523 12.5075 36.5466 12.5679 36.5293 12.6256C36.5119 12.6832 36.4832 12.7369 36.4449 12.7836C36.4065 12.8303 36.3592 12.8691 36.3056 12.8977C36.2521 12.9264 36.1933 12.9443 36.1328 12.9506C35.0309 13.0412 33.7935 13.0844 32.4992 13.0844ZM15.0311 11.9361H14.9743C12.2808 11.6124 10.921 11.3706 8.45928 10.9001C6.50445 10.5527 4.57152 10.0943 2.67011 9.52732C2.55414 9.49182 2.45721 9.4123 2.40063 9.30625C2.34405 9.2002 2.33246 9.0763 2.36841 8.96181C2.40436 8.84732 2.4849 8.75162 2.59232 8.69576C2.69974 8.6399 2.82524 8.62845 2.9412 8.66394C4.80855 9.21894 6.70636 9.66862 8.62544 10.0108C11.0653 10.477 12.412 10.7145 15.0749 11.0382C15.1943 11.0451 15.3061 11.0985 15.3856 11.1868C15.4652 11.275 15.5059 11.3908 15.499 11.5088C15.492 11.6267 15.4379 11.737 15.3485 11.8156C15.2591 11.8941 15.1418 11.9344 15.0224 11.9275L15.0311 11.9361Z" fill="#FEFEFE"/>
<path d="M24.0515 10.5418C22.5212 10.5418 21.2357 10.477 20.5098 10.4123C20.3743 10.4123 6.84143 8.92294 7.15625 3.71249C7.156 3.65238 7.16847 3.59288 7.19287 3.5378C7.21726 3.48272 7.25303 3.43328 7.2979 3.39264C7.34277 3.352 7.39574 3.32106 7.45341 3.30181C7.51109 3.28255 7.57221 3.27539 7.63285 3.2808C7.69374 3.28056 7.75401 3.29287 7.80979 3.31696C7.86558 3.34104 7.91566 3.37636 7.95682 3.42065C7.99798 3.46495 8.02932 3.51725 8.04883 3.57419C8.06833 3.63113 8.07558 3.69147 8.0701 3.75134C7.87334 7.26095 17.1867 9.20785 20.606 9.51867C24.8167 9.90718 33.7235 9.58342 35.2451 7.09259C35.2744 7.04209 35.3137 6.99795 35.3607 6.96283C35.4077 6.9277 35.4614 6.90232 35.5186 6.88821C35.5757 6.8741 35.6352 6.87154 35.6934 6.8807C35.7516 6.88986 35.8074 6.91054 35.8573 6.9415C35.9096 6.97036 35.9554 7.00954 35.9918 7.05662C36.0282 7.1037 36.0544 7.15766 36.0687 7.21516C36.0831 7.27265 36.0853 7.33245 36.0753 7.39083C36.0652 7.4492 36.0431 7.50491 36.0103 7.55449C34.5105 10.0281 28.3235 10.5418 24.0515 10.5418Z" fill="#FEFEFE"/>
<path d="M23.9334 6.82061C23.2076 6.82061 22.4687 6.78607 21.7472 6.72132C19.0887 6.48821 16.7232 5.85795 15.0879 4.91687C13.3389 3.91968 12.5868 2.63757 13.0153 1.39863C13.0153 1.35115 13.0459 1.30798 13.0678 1.26049C13.0908 1.20635 13.1243 1.15721 13.1665 1.11587C13.2087 1.07453 13.2588 1.0418 13.3138 1.01956C13.3688 0.997309 13.4277 0.985978 13.4872 0.98621C13.5466 0.986441 13.6054 0.998232 13.6603 1.02091C13.7151 1.04358 13.7649 1.0767 13.8068 1.11837C13.8486 1.16004 13.8818 1.20944 13.9043 1.26376C13.9269 1.31807 13.9383 1.37624 13.9381 1.43493C13.9379 1.49363 13.9259 1.5517 13.903 1.60584L13.868 1.69218C13.4919 2.78003 14.7425 3.6952 15.5426 4.14415C17.0643 5.00753 19.2986 5.61189 21.8259 5.83205C24.2142 6.07494 26.6272 5.89809 28.9531 5.30971C30.4616 4.87802 31.5766 4.27798 32.1013 3.58296C32.1374 3.53789 32.1822 3.5003 32.2331 3.47233C32.284 3.44436 32.34 3.42656 32.3979 3.41995C32.4557 3.41333 32.5143 3.41803 32.5703 3.43378C32.6264 3.44953 32.6787 3.47602 32.7243 3.51173C32.77 3.54745 32.8081 3.59169 32.8364 3.64193C32.8647 3.69218 32.8827 3.74744 32.8894 3.80456C32.8961 3.86168 32.8914 3.91955 32.8754 3.97485C32.8595 4.03016 32.8327 4.08182 32.7965 4.12689C32.145 4.99026 30.8901 5.68959 29.1673 6.16876C27.4605 6.61814 25.6999 6.83741 23.9334 6.82061Z" fill="#FEFEFE"/>
<path d="M34.3182 18.1308C34.2378 18.1302 34.1591 18.1078 34.0908 18.066C31.4017 16.4947 24.9741 14.8672 21.5505 14.3924C21.4931 14.3842 21.4378 14.3649 21.388 14.3356C21.3381 14.3063 21.2946 14.2676 21.2599 14.2217C21.1898 14.129 21.1598 14.0126 21.1766 13.8981C21.1935 13.7836 21.2556 13.6804 21.3495 13.6112C21.4434 13.542 21.5613 13.5124 21.6773 13.529C25.1753 14.0125 31.7646 15.6874 34.5499 17.3192C34.6026 17.3477 34.6488 17.3866 34.6857 17.4335C34.7225 17.4804 34.7491 17.5343 34.7639 17.5918C34.7787 17.6494 34.7813 17.7093 34.7715 17.7678C34.7618 17.8264 34.7399 17.8824 34.7073 17.9322C34.6659 17.9962 34.6081 18.0482 34.5397 18.0831C34.4714 18.1179 34.395 18.1344 34.3182 18.1308ZM0.916711 15.7177C0.800745 15.7348 0.682619 15.7058 0.588319 15.637C0.494019 15.5682 0.43127 15.4652 0.413875 15.3507C0.39648 15.2362 0.425865 15.1196 0.495565 15.0265C0.565265 14.9334 0.669571 14.8715 0.785536 14.8543C3.20015 14.1355 5.68148 13.6569 8.19253 13.4254C10.6169 13.1627 13.057 13.0704 15.4946 13.1491C15.614 13.1491 15.7286 13.196 15.813 13.2794C15.8975 13.3627 15.945 13.4758 15.945 13.5938C15.945 13.7117 15.8975 13.8248 15.813 13.9082C15.7286 13.9916 15.614 14.0384 15.4946 14.0384C13.0963 13.964 10.6957 14.0564 8.31059 14.3147C5.85043 14.5367 3.4189 15.0009 1.05226 15.7004C1.00814 15.7125 0.962496 15.7183 0.916711 15.7177Z" fill="#FEFEFE"/>
<path d="M30.4572 23.5959C30.3864 23.597 30.3163 23.581 30.2531 23.5494C30.1899 23.5179 30.1354 23.4716 30.0943 23.4146C29.1919 22.2781 28.0735 21.3265 26.8018 20.6129C25.2374 19.7151 23.5679 19.0091 21.8303 18.5106C21.7143 18.4769 21.6167 18.399 21.5589 18.2941C21.5011 18.1893 21.4878 18.0661 21.522 17.9516C21.5562 17.8371 21.6351 17.7407 21.7413 17.6837C21.8475 17.6266 21.9723 17.6135 22.0883 17.6473C23.9017 18.1687 25.6422 18.9111 27.2697 19.8575C28.6438 20.6233 29.8505 21.6503 30.8201 22.8793C30.8569 22.9257 30.8837 22.979 30.8988 23.036C30.914 23.093 30.9171 23.1524 30.9081 23.2106C30.8991 23.2689 30.8781 23.3247 30.8464 23.3746C30.8148 23.4245 30.7731 23.4675 30.7239 23.5009C30.6482 23.561 30.5543 23.5944 30.4572 23.5959ZM0.759269 20.764C0.682395 20.7631 0.606976 20.7432 0.539806 20.7063C0.472636 20.6694 0.415825 20.6165 0.37449 20.5525C0.340613 20.5033 0.3174 20.4477 0.306308 20.3893C0.295216 20.3308 0.296485 20.2707 0.310033 20.2127C0.323582 20.1548 0.349119 20.1002 0.385041 20.0524C0.420963 20.0047 0.466496 19.9648 0.518782 19.9352C2.08366 18.9979 3.77308 18.2801 5.5384 17.8027C7.53698 17.2391 9.58771 16.8747 11.6599 16.7148C11.7799 16.7051 11.8989 16.7428 11.9908 16.8197C12.0826 16.8966 12.1397 17.0064 12.1496 17.1249C12.1595 17.2434 12.1212 17.3609 12.0433 17.4516C11.9654 17.5423 11.8542 17.5987 11.7342 17.6084C9.72472 17.7637 7.73573 18.1151 5.79638 18.6574C4.10563 19.1144 2.48705 19.8001 0.986638 20.695C0.917902 20.7364 0.839721 20.7602 0.759269 20.764Z" fill="#FEFEFE"/>
<path d="M26.6751 28.2452C26.5616 28.247 26.4518 28.2053 26.369 28.1287C24.779 26.786 22.9408 25.7599 20.9559 25.1069C20.8984 25.087 20.8455 25.0562 20.8002 25.0162C20.7548 24.9762 20.7179 24.9277 20.6915 24.8736C20.6651 24.8195 20.6498 24.7607 20.6464 24.7008C20.643 24.6408 20.6515 24.5808 20.6716 24.5241C20.7122 24.4096 20.7972 24.3157 20.9079 24.2631C20.9627 24.237 21.0222 24.2219 21.083 24.2185C21.1437 24.2152 21.2045 24.2236 21.2619 24.2435C23.3562 24.938 25.2961 26.0223 26.9768 27.438C27.0763 27.4837 27.1547 27.5647 27.1965 27.6649C27.2383 27.7651 27.2404 27.8771 27.2024 27.9787C27.1644 28.0804 27.0891 28.1642 26.9914 28.2136C26.8937 28.263 26.7808 28.2742 26.6751 28.2452ZM2.28533 26.0868C2.16936 26.1108 2.04847 26.0884 1.94925 26.0244C1.85003 25.9605 1.78061 25.8602 1.75626 25.7458C1.73191 25.6313 1.75462 25.5119 1.8194 25.414C1.88418 25.316 1.98572 25.2475 2.10169 25.2234C4.19536 24.2808 6.42917 23.6774 8.71726 23.4362C8.77641 23.4271 8.83682 23.4301 8.89474 23.445C8.95267 23.4599 9.00689 23.4864 9.05403 23.5228C9.10117 23.5592 9.14023 23.6048 9.1688 23.6568C9.19736 23.7087 9.21482 23.7659 9.2201 23.8247C9.22931 23.8835 9.22614 23.9435 9.21079 24.0009C9.19544 24.0584 9.16824 24.1121 9.13088 24.1587C9.09353 24.2053 9.04683 24.2438 8.99372 24.2717C8.9406 24.2997 8.88221 24.3165 8.8222 24.3212C6.62268 24.5552 4.47585 25.1383 2.4646 26.0479C2.40275 26.0809 2.33375 26.0987 2.26347 26.0997L2.28533 26.0868Z" fill="#FEFEFE"/>
<path d="M17.6196 23.4622C17.5201 23.4627 17.4215 23.4438 17.3294 23.4065C17.2374 23.3692 17.1538 23.3142 17.0834 23.2447C17.0131 23.1752 16.9574 23.0927 16.9196 23.0018C16.8817 22.911 16.8626 22.8136 16.8632 22.7154V15.6357C16.8552 15.5332 16.8689 15.4301 16.9032 15.333C16.9375 15.2359 16.9918 15.1468 17.0626 15.0713C17.1334 14.9959 17.2192 14.9357 17.3147 14.8946C17.4102 14.8534 17.5132 14.8322 17.6174 14.8322C17.7216 14.8322 17.8246 14.8534 17.9201 14.8946C18.0156 14.9357 18.1014 14.9959 18.1722 15.0713C18.2431 15.1468 18.2973 15.2359 18.3316 15.333C18.366 15.4301 18.3796 15.5332 18.3717 15.6357V22.7154C18.3722 22.8132 18.3532 22.9102 18.3157 23.0008C18.2781 23.0914 18.2228 23.1738 18.1529 23.2432C18.083 23.3126 17.9999 23.3677 17.9084 23.4052C17.8169 23.4428 17.7187 23.4622 17.6196 23.4622Z" fill="#FEFEFE"/>
<path d="M5.96693 36.3091C5.85097 36.3091 5.73975 36.2636 5.65775 36.1827C5.57575 36.1017 5.52969 35.9919 5.52969 35.8774V32.8685C5.52969 32.75 5.57737 32.6364 5.66224 32.5526C5.74711 32.4688 5.86221 32.4218 5.98224 32.4218C6.10226 32.4218 6.21737 32.4688 6.30224 32.5526C6.38711 32.6364 6.43479 32.75 6.43479 32.8685V35.8645C6.43678 35.9249 6.4259 35.985 6.40285 36.041C6.37981 36.097 6.34511 36.1476 6.30101 36.1895C6.25691 36.2314 6.20438 36.2637 6.14683 36.2843C6.08929 36.3049 6.028 36.3134 5.96693 36.3091Z" fill="#FEFEFE"/>
<path d="M20.8116 36.663C20.6956 36.663 20.5844 36.6175 20.5024 36.5366C20.4204 36.4556 20.3743 36.3458 20.3743 36.2313V33.598C20.3743 33.4795 20.422 33.3659 20.5069 33.2821C20.5917 33.1983 20.7069 33.1512 20.8269 33.1512C20.9469 33.1512 21.062 33.1983 21.1469 33.2821C21.2317 33.3659 21.2794 33.4795 21.2794 33.598V36.2184C21.2814 36.2788 21.2705 36.3389 21.2475 36.3949C21.2244 36.4509 21.1898 36.5015 21.1456 36.5434C21.1015 36.5853 21.049 36.6176 20.9915 36.6382C20.9339 36.6588 20.8726 36.6673 20.8116 36.663Z" fill="#FEFEFE"/>
<defs>
<linearGradient id="paint0_linear_788_441" x1="-4.11479" y1="35.4907" x2="41.1215" y2="6.32978" gradientUnits="userSpaceOnUse">
<stop stop-color="#8BB35D"/>
<stop offset="0.44" stop-color="#8BB35D"/>
<stop offset="0.75" stop-color="#418F49"/>
<stop offset="1" stop-color="#2D925A"/>
</linearGradient>
</defs>
</svg>
