<svg width="23" height="16" viewBox="0 0 23 16" fill="none" xmlns="http://www.w3.org/2000/svg">
<path d="M22.2536 7.29289C22.6441 7.68342 22.6441 8.31658 22.2536 8.70711L15.8897 15.0711C15.4991 15.4616 14.866 15.4616 14.4754 15.0711C14.0849 14.6805 14.0849 14.0474 14.4754 13.6569L20.1323 8L14.4754 2.34315C14.0849 1.95262 14.0849 1.31946 14.4754 0.928933C14.866 0.538408 15.4991 0.538409 15.8897 0.928933L22.2536 7.29289ZM1.45349 9C0.901206 9 0.453491 8.55228 0.453491 8C0.453491 7.44772 0.901206 7 1.45349 7L1.45349 9ZM21.5465 9L1.45349 9L1.45349 7L21.5465 7L21.5465 9Z" fill="#2D925A"/>
</svg>
