<svg width="18" height="16" viewBox="0 0 18 16" fill="none" xmlns="http://www.w3.org/2000/svg">
<path d="M4.57515 2.31302C4.57515 3.31432 3.6571 4.12603 2.52464 4.12603C1.39217 4.12603 0.474121 3.31432 0.474121 2.31302C0.474121 1.31172 1.39217 0.5 2.52464 0.5C3.6571 0.5 4.57515 1.31172 4.57515 2.31302Z" fill="white"/>
<path d="M0.754533 5.45868H4.25969V15.5H0.754533V5.45868Z" fill="white"/>
<path d="M9.90299 5.45868H6.39783V15.5H9.90299C9.90299 15.5 9.90299 12.3388 9.90299 10.3623C9.90299 9.17602 10.3315 7.9845 12.0411 7.9845C13.9733 7.9845 13.9616 9.537 13.9526 10.7397C13.9409 12.3119 13.969 13.9163 13.969 15.5H17.4741V10.2004C17.4444 6.81647 16.5117 5.25723 13.4432 5.25723C11.6209 5.25723 10.4913 6.03935 9.90299 6.74696V5.45868Z" fill="white"/>
</svg>
