<svg width="25" height="18" viewBox="0 0 25 18" fill="none" xmlns="http://www.w3.org/2000/svg">
<path fill-rule="evenodd" clip-rule="evenodd" d="M21.7202 1.08516C22.2193 1.23236 22.6716 1.50712 23.0325 1.88234C23.3934 2.25756 23.6504 2.72034 23.7784 3.22517C24.4445 7.04631 24.4445 10.954 23.7784 14.7752C23.6489 15.2782 23.3912 15.7389 23.0304 16.1123C22.6697 16.4856 22.2181 16.7588 21.7202 16.9052C19.8919 17.4052 12.5985 17.4052 12.5985 17.4052C12.5985 17.4052 5.29526 17.4052 3.46692 16.9052C2.96899 16.7588 2.51748 16.4856 2.15671 16.1123C1.79594 15.7389 1.53821 15.2782 1.40873 14.7752C0.742661 10.954 0.742661 7.04631 1.40873 3.22517C1.53669 2.72034 1.79377 2.25756 2.15464 1.88234C2.51551 1.50712 2.96779 1.23236 3.46692 1.08516C5.29526 0.59516 12.5985 0.59517 12.5985 0.59517C12.5985 0.59517 19.8919 0.56516 21.7202 1.08516ZM10.4006 5.70516V13.0152L16.2452 9.36519L10.4006 5.70516Z" fill="white"/>
</svg>
