<svg width="35" height="16" viewBox="0 0 35 16" fill="none" xmlns="http://www.w3.org/2000/svg">
<path d="M23.1919 0.840859C23.0256 0.718294 22.8443 0.617492 22.6524 0.540871C22.5184 0.47592 22.3717 0.441718 22.2229 0.440835C22.0352 0.428207 21.847 0.459596 21.6735 0.532509C21.5001 0.605423 21.3462 0.717892 21.2238 0.860879C21.0772 0.980796 20.9616 1.13427 20.8868 1.30833C20.812 1.48239 20.7802 1.67192 20.7941 1.86088V14.1709C20.7762 14.3546 20.8145 14.5394 20.904 14.7008C21.0139 14.8708 21.014 15.0209 21.2238 15.1509C21.3378 15.2873 21.486 15.3909 21.6533 15.4508C21.823 15.5263 22.0072 15.5638 22.1929 15.5608C22.376 15.5428 22.5567 15.506 22.7323 15.4508C22.8867 15.368 23.031 15.2673 23.1619 15.1509C23.2779 15.0077 23.3846 14.8574 23.4816 14.7008V1.83085C23.5003 1.64387 23.462 1.45562 23.3717 1.29087C23.3632 1.12508 23.3 0.966804 23.1919 0.840859Z" fill="white"/>
<path d="M9.54451 13.1607C9.37921 13.0391 9.19754 12.9414 9.00496 12.8707C8.8734 12.7991 8.72502 12.7646 8.57542 12.7707H4.16939L9.65439 3.91071C9.78049 3.70171 9.85256 3.46457 9.86416 3.2207C9.88247 2.9894 9.84834 2.75695 9.76428 2.54071C9.6371 2.31987 9.45013 2.13957 9.22485 2.02069C9.02997 1.89876 8.80523 1.83301 8.57542 1.83069H1.68167C1.49815 1.83132 1.31592 1.86174 1.14212 1.92072C0.974806 1.98069 0.826574 2.08424 0.712578 2.2207C0.594334 2.36204 0.487364 2.51252 0.3928 2.67072C0.303495 2.82857 0.265125 3.01015 0.282915 3.19067C0.263683 3.37448 0.302078 3.55974 0.3928 3.7207C0.489808 3.87728 0.596658 4.0276 0.712578 4.17072C0.820154 4.3119 0.97103 4.41377 1.14212 4.46069C1.3127 4.5324 1.49674 4.56648 1.68167 4.56067H6.08769L0.502686 13.4107C0.374856 13.6232 0.299534 13.8632 0.282915 14.1107C0.302529 14.3545 0.377692 14.5905 0.502686 14.8007C0.583347 15.0149 0.735046 15.1949 0.932348 15.3107C1.16178 15.4383 1.41922 15.507 1.68167 15.5107H8.55542C8.70397 15.5073 8.85028 15.4733 8.98508 15.4107C9.17795 15.3362 9.35945 15.2353 9.52451 15.1107C9.64711 14.9944 9.72489 14.8387 9.74428 14.6707C9.82545 14.5065 9.86011 14.3232 9.84429 14.1407C9.86011 13.9582 9.82545 13.7749 9.74428 13.6107C9.73095 13.4423 9.66049 13.2835 9.54451 13.1607Z" fill="white"/>
<path d="M19.1036 6.33113C18.941 6.20293 18.7589 6.10166 18.5642 6.03114C18.3974 5.95869 18.2164 5.92448 18.0347 5.93111C17.8085 5.94021 17.5869 5.99824 17.3852 6.10115C17.2202 6.23255 17.0756 6.3875 16.9557 6.56111C16.2672 6.16879 15.49 5.95885 14.6977 5.95112C13.968 5.94737 13.247 6.11072 12.59 6.42866C11.933 6.7466 11.3574 7.21073 10.9071 7.78554C10.4568 8.36034 10.1438 9.03061 9.99205 9.74507C9.8403 10.4595 9.85383 11.1992 10.0316 11.9077C10.2093 12.6161 10.5465 13.2745 11.0175 13.8324C11.4885 14.3904 12.0806 14.8331 12.7488 15.1268C13.417 15.4205 14.1435 15.5574 14.8726 15.5269C15.6017 15.4965 16.3143 15.2995 16.9557 14.9511C17.1099 15.1951 17.3371 15.3841 17.605 15.4911C17.8836 15.5856 18.1857 15.5856 18.4643 15.4911C18.7587 15.4092 19.0204 15.238 19.2136 15.0011C19.3392 14.7416 19.4106 14.4592 19.4234 14.1712V7.33113C19.4411 7.14532 19.4065 6.95829 19.3235 6.79115C19.307 6.6166 19.229 6.45356 19.1036 6.33113ZM14.6977 12.7711C14.291 12.769 13.894 12.6458 13.5575 12.417C13.221 12.1883 12.9602 11.8644 12.8083 11.4867C12.6564 11.109 12.6204 10.6946 12.7047 10.2963C12.789 9.89805 12.9898 9.53392 13.2817 9.25032C13.5735 8.96672 13.9431 8.77655 14.3433 8.70399C14.7436 8.63144 15.1563 8.67977 15.529 8.84291C15.9017 9.00604 16.2174 9.27654 16.4359 9.61995C16.6544 9.96335 16.7657 10.3641 16.7558 10.7711C16.7375 11.3096 16.5082 11.8192 16.1175 12.1898C15.7267 12.5603 15.2059 12.7619 14.6677 12.7511L14.6977 12.7711Z" fill="white"/>
<path d="M29.7486 5.93067C28.7997 5.91878 27.8687 6.18958 27.0738 6.70863C26.279 7.22767 25.6562 7.97157 25.2848 8.84571C24.9134 9.71986 24.81 10.6848 24.9878 11.6179C25.1657 12.551 25.6167 13.41 26.2835 14.0859C26.9504 14.7619 27.8029 15.224 28.7328 15.4138C29.6628 15.6035 30.628 15.5123 31.506 15.1516C32.3839 14.7908 33.135 14.177 33.6635 13.388C34.1921 12.5991 34.4743 11.6706 34.4743 10.7207C34.4693 9.46223 33.9717 8.25584 33.0883 7.36036C32.2048 6.46488 31.0058 5.95159 29.7486 5.93067ZM29.6388 12.7507C29.2436 12.7507 28.8573 12.6334 28.5287 12.4136C28.2001 12.1939 27.9439 11.8815 27.7927 11.5161C27.6414 11.1506 27.6019 10.7485 27.679 10.3605C27.7561 9.97258 27.9464 9.6162 28.2259 9.3365C28.5053 9.05679 28.8614 8.8663 29.249 8.78913C29.6366 8.71196 30.0383 8.75159 30.4034 8.90296C30.7686 9.05434 31.0806 9.31064 31.3002 9.63954C31.5198 9.96843 31.6369 10.3551 31.6369 10.7507C31.6245 11.2738 31.4127 11.7723 31.045 12.1441C30.6772 12.5159 30.1812 12.733 29.6588 12.7507H29.6388Z" fill="white"/>
</svg>
